<svg width="21" height="20" viewBox="0 0 21 20" fill="none" xmlns="http://www.w3.org/2000/svg">
<g clip-path="url(#clip0_914_734)">
<path d="M5.93852 9.35729C5.88672 9.02348 5.85985 8.68151 5.85985 8.33329C5.85985 4.65139 8.86426 1.66663 12.5704 1.66663C16.2765 1.66663 19.2809 4.65139 19.2809 8.33329C19.2809 9.16502 19.1276 9.96117 18.8475 10.6954C18.7893 10.8479 18.7603 10.9241 18.7471 10.9836C18.734 11.0426 18.7289 11.0841 18.7275 11.1445C18.7261 11.2055 18.7343 11.2726 18.7509 11.4069L19.0863 14.1321C19.1227 14.4271 19.1408 14.5746 19.0917 14.6818C19.0488 14.7758 18.9724 14.8504 18.8775 14.8912C18.7691 14.9378 18.6221 14.9162 18.328 14.8731L15.6736 14.4841C15.535 14.4637 15.4657 14.4536 15.4026 14.4539C15.3401 14.4543 15.2969 14.4589 15.2358 14.4717C15.1741 14.4847 15.0952 14.5143 14.9374 14.5734C14.2013 14.8491 13.4036 15 12.5704 15C12.2219 15 11.8796 14.9736 11.5454 14.9227M7.21953 18.3333C9.69028 18.3333 11.6932 16.2813 11.6932 13.75C11.6932 11.2187 9.69028 9.16663 7.21953 9.16663C4.74879 9.16663 2.74585 11.2187 2.74585 13.75C2.74585 14.2588 2.82678 14.7482 2.97617 15.2056C3.03933 15.3989 3.0709 15.4955 3.08126 15.5616C3.09208 15.6305 3.09398 15.6692 3.08995 15.7389C3.08609 15.8056 3.0694 15.881 3.036 16.0319L2.52655 18.3333L5.02222 17.9925C5.15844 17.9739 5.22655 17.9646 5.28602 17.965C5.34865 17.9654 5.38189 17.9688 5.44331 17.981C5.50164 17.9926 5.58835 18.0233 5.76178 18.0845C6.21871 18.2457 6.70914 18.3333 7.21953 18.3333Z" stroke="#12143C" stroke-width="2" stroke-linecap="round" stroke-linejoin="round"/>
</g>
<defs>
<clipPath id="clip0_914_734">
<rect width="20" height="20" fill="white" transform="translate(0.859863)"/>
</clipPath>
</defs>
</svg>
