<svg width="16" height="17" viewBox="0 0 16 17" fill="none" xmlns="http://www.w3.org/2000/svg">
<path d="M6.5 12.25V14.5M9.5 12.25V14.5M8 2.5C11.3135 2.5 14 5.0185 14 8.125C14 9.55075 13.4338 10.8527 12.5 11.845V13.75C12.5 13.9489 12.421 14.1397 12.2803 14.2803C12.1397 14.421 11.9489 14.5 11.75 14.5H4.25C4.05109 14.5 3.86032 14.421 3.71967 14.2803C3.57902 14.1397 3.5 13.9489 3.5 13.75V11.845C2.56625 10.8535 2 9.5515 2 8.125C2 5.0185 4.6865 2.5 8 2.5Z" stroke="#12143C" stroke-linecap="round" stroke-linejoin="round"/>
<path d="M5 7.75C5 7.94891 5.07902 8.13968 5.21967 8.28033C5.36032 8.42098 5.55109 8.5 5.75 8.5C5.94891 8.5 6.13968 8.42098 6.28033 8.28033C6.42098 8.13968 6.5 7.94891 6.5 7.75C6.5 7.55109 6.42098 7.36032 6.28033 7.21967C6.13968 7.07902 5.94891 7 5.75 7C5.55109 7 5.36032 7.07902 5.21967 7.21967C5.07902 7.36032 5 7.55109 5 7.75ZM9.5 7.75C9.5 7.94891 9.57902 8.13968 9.71967 8.28033C9.86032 8.42098 10.0511 8.5 10.25 8.5C10.4489 8.5 10.6397 8.42098 10.7803 8.28033C10.921 8.13968 11 7.94891 11 7.75C11 7.55109 10.921 7.36032 10.7803 7.21967C10.6397 7.07902 10.4489 7 10.25 7C10.0511 7 9.86032 7.07902 9.71967 7.21967C9.57902 7.36032 9.5 7.55109 9.5 7.75Z" fill="#12143C" stroke="#12143C" stroke-linecap="round" stroke-linejoin="round"/>
</svg>
