<svg width="38" height="37" viewBox="0 0 38 37" fill="none" xmlns="http://www.w3.org/2000/svg">
<path d="M19.1567 0.586426H19.0738C9.04432 0.586426 0.913818 8.71934 0.913818 18.7518V18.8347C0.913818 28.8672 9.04432 37.0001 19.0738 37.0001H19.1567C29.1862 37.0001 37.3167 28.8672 37.3167 18.8347V18.7518C37.3167 8.71934 29.1862 0.586426 19.1567 0.586426Z" fill="#12143C"/>
<path d="M28.2251 10.4341C26.5493 9.66485 24.7536 9.09841 22.8749 8.77437C22.8405 8.76799 22.806 8.7833 22.7895 8.8152C22.5586 9.22599 22.3023 9.76308 22.1237 10.1841C20.1035 9.88172 18.0936 9.88172 16.1142 10.1841C15.9344 9.75287 15.6691 9.22599 15.437 8.8152C15.4191 8.78458 15.3847 8.76927 15.3515 8.77437C13.4742 9.09841 11.6772 9.66485 10.0013 10.4341C9.98731 10.4405 9.97455 10.4507 9.96563 10.4647C6.55783 15.5575 5.62424 20.5253 6.08209 25.4318C6.08464 25.456 6.0974 25.479 6.11653 25.493C8.36501 27.1451 10.5434 28.1479 12.6809 28.8125C12.7153 28.8227 12.751 28.81 12.7727 28.7819C13.2778 28.0917 13.7293 27.3633 14.1157 26.5966C14.1386 26.5519 14.1157 26.4983 14.0698 26.4805C13.3543 26.2087 12.6745 25.8783 12.019 25.5032C11.9667 25.4726 11.9629 25.3986 12.01 25.3629C12.1478 25.2596 12.2855 25.1524 12.4169 25.044C12.4411 25.0236 12.4743 25.0197 12.5023 25.0325C16.8042 26.9971 21.4618 26.9971 25.7126 25.0325C25.7407 25.0185 25.7738 25.0236 25.7981 25.0427C25.9294 25.1511 26.0672 25.2596 26.2062 25.3629C26.2534 25.3986 26.2508 25.4726 26.1986 25.5032C25.5443 25.886 24.8632 26.21 24.1465 26.4805C24.0993 26.4983 24.0789 26.5519 24.1018 26.5978C24.4972 27.362 24.9474 28.0905 25.4435 28.7819C25.4639 28.8113 25.5009 28.824 25.5353 28.8138C27.6831 28.1491 29.8614 27.1464 32.1099 25.4943C32.129 25.4803 32.1418 25.4573 32.1443 25.4344C32.6927 19.7624 31.2261 14.8355 28.2583 10.4673C28.2506 10.4533 28.2391 10.4418 28.2238 10.4354L28.2251 10.4341ZM14.7559 22.444C13.4601 22.444 12.3939 21.255 12.3939 19.7943C12.3939 18.3335 13.441 17.1445 14.7559 17.1445C16.0708 17.1445 17.1396 18.345 17.1179 19.7943C17.1179 21.255 16.0708 22.444 14.7559 22.444ZM23.4909 22.444C22.1951 22.444 21.129 21.255 21.129 19.7943C21.129 18.3335 22.176 17.1445 23.4909 17.1445C24.8058 17.1445 25.8746 18.345 25.8529 19.7943C25.8529 21.255 24.8173 22.444 23.4909 22.444Z" fill="white"/>
</svg>
