<svg width="37" height="37" viewBox="0 0 37 37" fill="none" xmlns="http://www.w3.org/2000/svg">
<path d="M36.4017 18.7939C36.4017 27.9895 29.5873 35.5917 20.735 36.8253C19.9073 36.9401 19.0604 37.0001 18.2008 37.0001C17.2086 37.0001 16.2342 36.921 15.2853 36.7679C6.61918 35.3722 0 27.8555 0 18.7939C0 8.73845 8.14962 0.586426 18.2021 0.586426C28.2546 0.586426 36.4042 8.73845 36.4042 18.7939H36.4017Z" fill="#12143C"/>
<path d="M20.7354 15.2061V19.1724H25.6405L24.8637 24.5153H20.7354V36.8249C19.9077 36.9398 19.0608 36.9997 18.2012 36.9997C17.209 36.9997 16.2346 36.9206 15.2857 36.7675V24.5153H10.762V19.1724H15.2857V14.3195C15.2857 11.3087 17.7255 8.86694 20.7366 8.86694V8.8695C20.7456 8.8695 20.7532 8.86694 20.7622 8.86694H25.6417V13.4877H22.4533C21.5057 13.4877 20.7366 14.257 20.7366 15.2049L20.7354 15.2061Z" fill="white"/>
</svg>
