<svg width="22" height="21" viewBox="0 0 22 21" fill="none" xmlns="http://www.w3.org/2000/svg">
<path d="M11.0417 19.2726V1.09082M6.49626 19.2726V14.7272M6.49626 5.63628V1.09082M15.5872 19.2726V14.7272M15.5872 5.63628V1.09082M1.95081 5.63628H20.1326M1.95081 14.7272H20.1326M20.1326 14.909V5.45446C20.1326 3.92704 20.1326 3.16333 19.8354 2.57994C19.5739 2.06677 19.1567 1.64955 18.6435 1.38808C18.0601 1.09082 17.2964 1.09082 15.769 1.09082L6.31444 1.09082C4.78703 1.09082 4.02332 1.09082 3.43992 1.38808C2.92675 1.64955 2.50953 2.06677 2.24806 2.57994C1.95081 3.16333 1.95081 3.92704 1.95081 5.45446L1.95081 14.909C1.95081 16.4364 1.95081 17.2001 2.24806 17.7835C2.50953 18.2967 2.92675 18.7139 3.43992 18.9754C4.02332 19.2726 4.78703 19.2726 6.31444 19.2726H15.769C17.2964 19.2726 18.0601 19.2726 18.6435 18.9754C19.1567 18.7139 19.5739 18.2967 19.8354 17.7835C20.1326 17.2001 20.1326 16.4364 20.1326 14.909Z" stroke="#12143C" stroke-width="1.81818" stroke-linecap="round" stroke-linejoin="round"/>
</svg>
