<svg width="37" height="37" viewBox="0 0 37 37" fill="none" xmlns="http://www.w3.org/2000/svg">
<path d="M18.6472 0.586426H18.5643C8.53481 0.586426 0.404297 8.71934 0.404297 18.7518V18.8347C0.404297 28.8672 8.53481 37.0001 18.5643 37.0001H18.6472C28.6767 37.0001 36.8072 28.8672 36.8072 18.8347V18.7518C36.8072 8.71934 28.6767 0.586426 18.6472 0.586426Z" fill="#12143C"/>
<path d="M24.2389 7.99512H12.9748C9.86291 7.99512 7.3313 10.5275 7.3313 13.6403V23.9483C7.3313 27.0612 9.86291 29.5935 12.9748 29.5935H24.2389C27.3508 29.5935 29.8824 27.0612 29.8824 23.9483V13.6403C29.8824 10.5275 27.3508 7.99512 24.2389 7.99512ZM9.32216 13.6403C9.32216 11.6259 10.961 9.98656 12.9748 9.98656H24.2389C26.2527 9.98656 27.8916 11.6259 27.8916 13.6403V23.9483C27.8916 25.9627 26.2527 27.6021 24.2389 27.6021H12.9748C10.961 27.6021 9.32216 25.9627 9.32216 23.9483V13.6403Z" fill="white"/>
<path d="M18.6069 24.0432C21.5007 24.0432 23.8563 21.6882 23.8563 18.7922C23.8563 15.8963 21.5019 13.5413 18.6069 13.5413C15.7118 13.5413 13.3574 15.8963 13.3574 18.7922C13.3574 21.6882 15.7118 24.0432 18.6069 24.0432ZM18.6069 15.534C20.4039 15.534 21.8654 16.996 21.8654 18.7935C21.8654 20.591 20.4039 22.053 18.6069 22.053C16.8099 22.053 15.3483 20.591 15.3483 18.7935C15.3483 16.996 16.8099 15.534 18.6069 15.534Z" fill="white"/>
<path d="M24.3431 14.3902C25.1223 14.3902 25.7575 13.7561 25.7575 12.9754C25.7575 12.1946 25.1236 11.5605 24.3431 11.5605C23.5626 11.5605 22.9287 12.1946 22.9287 12.9754C22.9287 13.7561 23.5626 14.3902 24.3431 14.3902Z" fill="white"/>
</svg>
