<svg width="303" height="66" viewBox="0 0 303 66" fill="none" xmlns="http://www.w3.org/2000/svg">
<path d="M38.2798 15.3364L36.4751 13.2583L46.1001 3.03174L46.1411 2.97705L44.3774 2.79932V0.680176H51.8013V2.79932L49.9282 3.16846L38.2798 15.3364ZM33.2212 20.5864V18.481L35.395 18.0708V3.20947L33.2212 2.79932V0.680176H40.9458V2.79932L38.8403 3.20947V18.0708L40.9458 18.481V20.5864H33.2212ZM44.8149 20.5864V18.481L46.5786 18.3032V18.2896L41.3286 11.0435L43.4888 8.62354L50.6118 18.1392L52.5122 18.481V20.5864H44.8149ZM53.9067 20.5864V18.481L55.9575 18.0708V8.32275L53.7974 7.9126V5.79346H59.1294L59.3071 7.93994C59.7993 7.17432 60.41 6.58187 61.1392 6.1626C61.8774 5.73421 62.7114 5.52002 63.6411 5.52002C65.1632 5.52002 66.3481 5.98942 67.1958 6.92822C68.0435 7.85791 68.4673 9.31624 68.4673 11.3032V18.0708L70.5181 18.481V20.5864H63.0942V18.481L65.022 18.0708V11.3306C65.022 10.2095 64.7987 9.4165 64.3521 8.95166C63.9054 8.4777 63.2401 8.24072 62.356 8.24072C61.6906 8.24072 61.1073 8.39111 60.606 8.69189C60.1138 8.98356 59.7127 9.39372 59.4028 9.92236V18.0708L61.2759 18.481V20.5864H53.9067ZM78.7759 20.8735C77.354 20.8735 76.1326 20.5545 75.1118 19.9165C74.091 19.2785 73.3071 18.3944 72.7603 17.2642C72.2134 16.1248 71.9399 14.8169 71.9399 13.3403V13.0532C71.9399 11.5858 72.2134 10.2869 72.7603 9.15674C73.3071 8.02653 74.091 7.13786 75.1118 6.49072C76.1326 5.84359 77.3449 5.52002 78.7485 5.52002C80.1704 5.52002 81.3918 5.84359 82.4126 6.49072C83.4334 7.12874 84.2173 8.01286 84.7642 9.14307C85.311 10.2733 85.5845 11.5767 85.5845 13.0532V13.3403C85.5845 14.8169 85.311 16.1248 84.7642 17.2642C84.2173 18.3944 83.4334 19.2785 82.4126 19.9165C81.4009 20.5545 80.1886 20.8735 78.7759 20.8735ZM78.7759 18.2212C79.5415 18.2212 80.1704 18.0161 80.6626 17.606C81.1639 17.1867 81.5376 16.6125 81.7837 15.8833C82.0298 15.145 82.1528 14.2974 82.1528 13.3403V13.0532C82.1528 12.1053 82.0298 11.2668 81.7837 10.5376C81.5376 9.80843 81.1639 9.23421 80.6626 8.81494C80.1613 8.39567 79.5233 8.18604 78.7485 8.18604C77.992 8.18604 77.3631 8.39567 76.8618 8.81494C76.3605 9.23421 75.9868 9.80843 75.7407 10.5376C75.5037 11.2668 75.3853 12.1053 75.3853 13.0532V13.3403C75.3853 14.2974 75.5037 15.145 75.7407 15.8833C75.9868 16.6125 76.3605 17.1867 76.8618 17.606C77.3722 18.0161 78.0103 18.2212 78.7759 18.2212ZM92.0376 20.5864L88.4009 8.18604L86.6646 7.9126V5.79346H93.3774V7.9126L91.7095 8.21338L93.3638 14.6392L93.7056 16.0337H93.7876L94.2661 14.6392L97.3696 5.79346H99.8716L102.866 14.6938L103.372 16.2661H103.454L103.932 14.6938L105.723 8.21338L103.946 7.9126V5.79346H110.522V7.9126L108.827 8.19971L105.04 20.5864H102.018L99.188 12.6021L98.6138 10.6606H98.5317L97.9575 12.6021L95.0591 20.5864H92.0376ZM124.358 20.5864V18.8638L126.586 18.481V13.3403L120.461 2.67627L118.821 2.4165V0.680176H125.684V2.4165L123.415 2.67627L127.639 10.4966L127.926 11.0298L127.94 11.0024L128.213 10.4966L132.643 2.67627L130.292 2.4165V0.680176H137.018V2.4165L135.282 2.67627L129.266 13.1353V18.481L131.495 18.8638V20.5864H124.358ZM143.704 20.8735C142.336 20.8735 141.156 20.5545 140.163 19.9165C139.178 19.2694 138.417 18.3807 137.879 17.2505C137.342 16.1112 137.073 14.8123 137.073 13.354V13.0532C137.073 11.5949 137.342 10.3006 137.879 9.17041C138.417 8.03109 139.178 7.13786 140.163 6.49072C141.156 5.84359 142.327 5.52002 143.676 5.52002C145.043 5.52002 146.219 5.84359 147.204 6.49072C148.197 7.13786 148.963 8.02653 149.5 9.15674C150.038 10.2869 150.307 11.5858 150.307 13.0532V13.354C150.307 14.8215 150.038 16.1248 149.5 17.2642C148.963 18.3944 148.202 19.2785 147.217 19.9165C146.233 20.5545 145.062 20.8735 143.704 20.8735ZM143.704 18.7681C144.56 18.7681 145.276 18.5356 145.85 18.0708C146.433 17.5968 146.871 16.9543 147.163 16.1431C147.463 15.3228 147.614 14.3931 147.614 13.354V13.0532C147.614 12.0142 147.463 11.089 147.163 10.2778C146.871 9.45752 146.433 8.81494 145.85 8.3501C145.267 7.87614 144.542 7.63916 143.676 7.63916C142.819 7.63916 142.099 7.87614 141.516 8.3501C140.933 8.81494 140.495 9.45752 140.204 10.2778C139.912 11.089 139.766 12.0142 139.766 13.0532V13.354C139.766 14.3931 139.912 15.3228 140.204 16.1431C140.495 16.9543 140.933 17.5968 141.516 18.0708C142.109 18.5356 142.838 18.7681 143.704 18.7681ZM158.893 20.8735C157.289 20.8735 156.036 20.3586 155.133 19.3286C154.231 18.2987 153.78 16.6945 153.78 14.5161V7.9126L152.084 7.52979V5.79346H153.78H156.473V14.5435C156.473 16.1203 156.706 17.2049 157.17 17.7974C157.635 18.3898 158.36 18.686 159.344 18.686C160.301 18.686 161.09 18.4946 161.709 18.1118C162.338 17.7199 162.812 17.1685 163.131 16.4575V7.9126L161.149 7.52979V5.79346H163.131H165.825V18.481L167.52 18.8638V20.5864H163.405L163.227 18.3989C162.762 19.1919 162.161 19.8026 161.422 20.231C160.693 20.6593 159.85 20.8735 158.893 20.8735ZM169.393 20.5864V18.8638L171.622 18.481V7.9126L169.393 7.52979V5.79346H174.028L174.26 7.68018L174.288 7.93994C174.707 7.18343 175.222 6.59098 175.833 6.1626C176.452 5.73421 177.159 5.52002 177.952 5.52002C178.234 5.52002 178.521 5.54736 178.813 5.60205C179.114 5.64762 179.328 5.6932 179.456 5.73877L179.1 8.24072L177.227 8.13135C176.516 8.08577 175.919 8.24984 175.436 8.62354C174.953 8.98812 174.579 9.48031 174.315 10.1001V18.481L176.543 18.8638V20.5864H169.393ZM187.987 20.5864V18.481L190.147 18.0708V3.20947L187.987 2.79932V0.680176H190.147H195.083L200.92 15.0767H201.002L206.663 0.680176H213.84V2.79932L211.667 3.20947V18.0708L213.84 18.481V20.5864H206.061V18.481L208.344 18.0708V13.436L208.372 4.72705L208.303 4.71338L202.137 20.1353H199.635L193.292 4.79541L193.223 4.80908L193.401 13.2036V18.0708L195.766 18.481V20.5864H187.987ZM222.645 20.8735C221.25 20.8735 220.034 20.5636 218.995 19.9438C217.965 19.3149 217.163 18.4491 216.588 17.3462C216.023 16.2433 215.741 14.981 215.741 13.5591V12.9849C215.741 11.5448 216.019 10.2642 216.575 9.14307C217.14 8.02197 217.915 7.13786 218.899 6.49072C219.883 5.84359 221.004 5.52002 222.262 5.52002C223.602 5.52002 224.723 5.7889 225.625 6.32666C226.537 6.86442 227.225 7.63005 227.69 8.62354C228.155 9.60791 228.387 10.7928 228.387 12.1782V14.147H219.309L219.282 14.2153C219.318 14.9901 219.478 15.6782 219.76 16.2798C220.052 16.8813 220.462 17.3553 220.991 17.7017C221.528 18.048 222.18 18.2212 222.946 18.2212C223.748 18.2212 224.477 18.1118 225.133 17.8931C225.79 17.6743 226.396 17.3644 226.952 16.9634L228.032 19.1235C227.448 19.6157 226.706 20.0304 225.803 20.3677C224.901 20.7049 223.848 20.8735 222.645 20.8735ZM219.364 11.7271H225.092V11.3716C225.092 10.7244 224.992 10.1593 224.792 9.67627C224.6 9.18408 224.295 8.80127 223.875 8.52783C223.465 8.25439 222.941 8.11768 222.303 8.11768C221.747 8.11768 221.26 8.27262 220.84 8.58252C220.421 8.89242 220.084 9.31624 219.829 9.854C219.583 10.3826 219.414 10.9842 219.323 11.6587L219.364 11.7271ZM230.247 20.5864V18.481L232.311 18.0708V8.32275L230.137 7.9126V5.79346H235.469L235.633 7.73486C236.116 7.03304 236.718 6.49072 237.438 6.10791C238.167 5.71598 239.01 5.52002 239.967 5.52002C240.933 5.52002 241.758 5.73877 242.442 6.17627C243.135 6.60465 243.659 7.25635 244.014 8.13135C244.47 7.32015 245.067 6.68213 245.805 6.21729C246.553 5.75244 247.428 5.52002 248.43 5.52002C249.916 5.52002 251.083 6.02588 251.93 7.0376C252.787 8.04932 253.215 9.58057 253.215 11.6313V18.0708L255.28 18.481V20.5864H247.829V18.481L249.77 18.0708V11.6177C249.77 10.369 249.56 9.49398 249.141 8.99268C248.722 8.49137 248.107 8.24072 247.295 8.24072C246.539 8.24072 245.915 8.48226 245.422 8.96533C244.939 9.4484 244.625 10.0636 244.479 10.811V18.0708L246.352 18.481V20.5864H239.174V18.481L241.047 18.0708V11.6177C241.047 10.4146 240.833 9.55322 240.405 9.03369C239.976 8.50505 239.357 8.24072 238.545 8.24072C237.871 8.24072 237.301 8.37744 236.836 8.65088C236.381 8.92432 236.016 9.31169 235.743 9.81299V18.0708L237.67 18.481V20.5864H230.247ZM263.633 20.8735C262.239 20.8735 261.022 20.5636 259.983 19.9438C258.953 19.3149 258.151 18.4491 257.577 17.3462C257.012 16.2433 256.729 14.981 256.729 13.5591V12.9849C256.729 11.5448 257.007 10.2642 257.563 9.14307C258.128 8.02197 258.903 7.13786 259.887 6.49072C260.872 5.84359 261.993 5.52002 263.25 5.52002C264.59 5.52002 265.711 5.7889 266.614 6.32666C267.525 6.86442 268.213 7.63005 268.678 8.62354C269.143 9.60791 269.375 10.7928 269.375 12.1782V14.147H260.297L260.27 14.2153C260.306 14.9901 260.466 15.6782 260.749 16.2798C261.04 16.8813 261.45 17.3553 261.979 17.7017C262.517 18.048 263.168 18.2212 263.934 18.2212C264.736 18.2212 265.465 18.1118 266.122 17.8931C266.778 17.6743 267.384 17.3644 267.94 16.9634L269.02 19.1235C268.437 19.6157 267.694 20.0304 266.792 20.3677C265.889 20.7049 264.836 20.8735 263.633 20.8735ZM260.352 11.7271H266.081V11.3716C266.081 10.7244 265.98 10.1593 265.78 9.67627C265.588 9.18408 265.283 8.80127 264.864 8.52783C264.454 8.25439 263.93 8.11768 263.292 8.11768C262.736 8.11768 262.248 8.27262 261.829 8.58252C261.409 8.89242 261.072 9.31624 260.817 9.854C260.571 10.3826 260.402 10.9842 260.311 11.6587L260.352 11.7271Z" fill="white"/>
<mask id="path-2-outside-1_318_397" maskUnits="userSpaceOnUse" x="47" y="32.5864" width="209" height="34" fill="black">
<rect fill="white" x="47" y="32.5864" width="209" height="34"/>
<path d="M48.9966 64.5864V61.5786L52.1021 60.9927V39.7622L48.9966 39.1763V36.1489H52.1021H57.0825L70.1294 56.9106L70.2466 56.8716V39.7622L66.6528 39.1763V36.1489H74.6802H77.7856V39.1763L74.6802 39.7622V64.5864H70.0122L56.6528 43.9028L56.5356 43.9224V60.9927L60.1294 61.5786V64.5864H48.9966ZM90.1685 64.9966C88.1763 64.9966 86.438 64.5539 84.9536 63.6685C83.4823 62.77 82.3364 61.533 81.5161 59.9575C80.7088 58.382 80.3052 56.5786 80.3052 54.5474V53.7271C80.3052 51.6698 80.7023 49.8403 81.4966 48.2388C82.3039 46.6372 83.4106 45.3742 84.8169 44.4497C86.2231 43.5252 87.8247 43.063 89.6216 43.063C91.5356 43.063 93.1372 43.4471 94.4263 44.2153C95.7284 44.9836 96.7114 46.0773 97.3755 47.4966C98.0396 48.9028 98.3716 50.5955 98.3716 52.5747V55.3872H85.4028L85.3638 55.4849C85.4159 56.5916 85.6437 57.5747 86.0474 58.4341C86.464 59.2935 87.05 59.9705 87.8052 60.4653C88.5734 60.9601 89.5044 61.2075 90.5981 61.2075C91.744 61.2075 92.7856 61.0513 93.7231 60.7388C94.6606 60.4263 95.5265 59.9836 96.3208 59.4106L97.8638 62.4966C97.0304 63.1997 95.9692 63.7922 94.6802 64.2739C93.3911 64.7557 91.8872 64.9966 90.1685 64.9966ZM85.481 51.9302H93.6646V51.4224C93.6646 50.4979 93.5213 49.6906 93.2349 49.0005C92.9614 48.2974 92.5252 47.7505 91.9263 47.3599C91.3403 46.9692 90.5916 46.7739 89.6802 46.7739C88.8859 46.7739 88.1893 46.9953 87.5903 47.438C86.9914 47.8807 86.5096 48.4862 86.145 49.2544C85.7935 50.0096 85.5526 50.869 85.4224 51.8325L85.481 51.9302ZM108.313 64.5864L103.118 46.8716L100.637 46.481V43.4536H110.227V46.481L107.844 46.9106L110.208 56.0903L110.696 58.0825H110.813L111.497 56.0903L115.93 43.4536H119.504L123.782 56.1685L124.504 58.4146H124.622L125.305 56.1685L127.864 46.9106L125.325 46.481V43.4536H134.719V46.481L132.297 46.8911L126.887 64.5864H122.571L118.528 53.1802L117.708 50.4067H117.59L116.77 53.1802L112.629 64.5864H108.313ZM145.598 64.9966C144.088 64.9966 142.675 64.8534 141.36 64.5669C140.058 64.2674 138.749 63.8312 137.434 63.2583L137.375 57.6724H140.911L141.653 60.7192C142.213 60.9666 142.786 61.1619 143.372 61.3052C143.971 61.4354 144.635 61.5005 145.364 61.5005C146.77 61.5005 147.76 61.2531 148.333 60.7583C148.918 60.2635 149.211 59.6515 149.211 58.9224C149.211 58.2192 148.905 57.6203 148.293 57.1255C147.694 56.6177 146.542 56.1815 144.836 55.8169C142.31 55.27 140.448 54.4757 139.25 53.4341C138.066 52.3794 137.473 51.0122 137.473 49.3325C137.473 48.1737 137.779 47.1255 138.391 46.188C139.016 45.2505 139.928 44.5018 141.125 43.9419C142.336 43.369 143.821 43.0825 145.579 43.0825C147.18 43.0825 148.599 43.2518 149.836 43.5903C151.086 43.9159 152.148 44.3521 153.02 44.8989L153.137 50.27H149.641L149.036 47.4771C148.632 47.1906 148.163 46.9692 147.629 46.813C147.096 46.6567 146.484 46.5786 145.793 46.5786C144.713 46.5786 143.86 46.8195 143.235 47.3013C142.61 47.77 142.297 48.3625 142.297 49.0786C142.297 49.4953 142.395 49.8729 142.59 50.2114C142.799 50.55 143.189 50.8625 143.762 51.1489C144.348 51.4224 145.201 51.6893 146.321 51.9497C149.068 52.5877 151.034 53.4211 152.219 54.4497C153.404 55.4784 153.997 56.839 153.997 58.5317C153.997 60.4198 153.306 61.9692 151.926 63.1802C150.546 64.3911 148.437 64.9966 145.598 64.9966ZM156.594 64.5864V61.5786L159.543 60.9927V37.731L156.418 37.145V34.1177H164.446V60.9927L167.395 61.5786V64.5864H156.594ZM179.153 64.9966C177.161 64.9966 175.422 64.5539 173.938 63.6685C172.467 62.77 171.321 61.533 170.5 59.9575C169.693 58.382 169.29 56.5786 169.29 54.5474V53.7271C169.29 51.6698 169.687 49.8403 170.481 48.2388C171.288 46.6372 172.395 45.3742 173.801 44.4497C175.208 43.5252 176.809 43.063 178.606 43.063C180.52 43.063 182.122 43.4471 183.411 44.2153C184.713 44.9836 185.696 46.0773 186.36 47.4966C187.024 48.9028 187.356 50.5955 187.356 52.5747V55.3872H174.387L174.348 55.4849C174.4 56.5916 174.628 57.5747 175.032 58.4341C175.448 59.2935 176.034 59.9705 176.79 60.4653C177.558 60.9601 178.489 61.2075 179.583 61.2075C180.728 61.2075 181.77 61.0513 182.708 60.7388C183.645 60.4263 184.511 59.9836 185.305 59.4106L186.848 62.4966C186.015 63.1997 184.954 63.7922 183.665 64.2739C182.375 64.7557 180.872 64.9966 179.153 64.9966ZM174.465 51.9302H182.649V51.4224C182.649 50.4979 182.506 49.6906 182.219 49.0005C181.946 48.2974 181.51 47.7505 180.911 47.3599C180.325 46.9692 179.576 46.7739 178.665 46.7739C177.87 46.7739 177.174 46.9953 176.575 47.438C175.976 47.8807 175.494 48.4862 175.129 49.2544C174.778 50.0096 174.537 50.869 174.407 51.8325L174.465 51.9302ZM198.098 64.9575C196.301 64.9575 194.902 64.4562 193.899 63.4536C192.896 62.438 192.395 60.8234 192.395 58.6099V46.9692H189.309V43.4536H192.395V38.3169H197.297V43.4536H201.477V46.9692H197.297V58.6099C197.297 59.5083 197.48 60.1659 197.844 60.5825C198.222 60.9862 198.73 61.188 199.368 61.188C199.732 61.188 200.136 61.1554 200.579 61.0903C201.034 61.0252 201.399 60.9601 201.672 60.895L202.18 64.3521C201.607 64.5213 200.95 64.6646 200.208 64.7817C199.478 64.8989 198.775 64.9575 198.098 64.9575ZM212.434 64.9575C210.637 64.9575 209.237 64.4562 208.235 63.4536C207.232 62.438 206.731 60.8234 206.731 58.6099V46.9692H203.645V43.4536H206.731V38.3169H211.633V43.4536H215.813V46.9692H211.633V58.6099C211.633 59.5083 211.816 60.1659 212.18 60.5825C212.558 60.9862 213.066 61.188 213.704 61.188C214.068 61.188 214.472 61.1554 214.915 61.0903C215.37 61.0252 215.735 60.9601 216.008 60.895L216.516 64.3521C215.943 64.5213 215.286 64.6646 214.543 64.7817C213.814 64.8989 213.111 64.9575 212.434 64.9575ZM228.293 64.9966C226.301 64.9966 224.563 64.5539 223.079 63.6685C221.607 62.77 220.461 61.533 219.641 59.9575C218.834 58.382 218.43 56.5786 218.43 54.5474V53.7271C218.43 51.6698 218.827 49.8403 219.622 48.2388C220.429 46.6372 221.536 45.3742 222.942 44.4497C224.348 43.5252 225.95 43.063 227.747 43.063C229.661 43.063 231.262 43.4471 232.551 44.2153C233.853 44.9836 234.836 46.0773 235.5 47.4966C236.165 48.9028 236.497 50.5955 236.497 52.5747V55.3872H223.528L223.489 55.4849C223.541 56.5916 223.769 57.5747 224.172 58.4341C224.589 59.2935 225.175 59.9705 225.93 60.4653C226.698 60.9601 227.629 61.2075 228.723 61.2075C229.869 61.2075 230.911 61.0513 231.848 60.7388C232.786 60.4263 233.652 59.9836 234.446 59.4106L235.989 62.4966C235.155 63.1997 234.094 63.7922 232.805 64.2739C231.516 64.7557 230.012 64.9966 228.293 64.9966ZM223.606 51.9302H231.79V51.4224C231.79 50.4979 231.646 49.6906 231.36 49.0005C231.086 48.2974 230.65 47.7505 230.051 47.3599C229.465 46.9692 228.717 46.7739 227.805 46.7739C227.011 46.7739 226.314 46.9953 225.715 47.438C225.116 47.8807 224.635 48.4862 224.27 49.2544C223.918 50.0096 223.678 50.869 223.547 51.8325L223.606 51.9302ZM239.504 64.5864V61.5786L242.434 60.9927V47.0669L239.348 46.481V43.4536H246.965L247.219 46.1099L247.258 46.5396C247.818 45.4198 248.502 44.5604 249.309 43.9614C250.129 43.3625 251.086 43.063 252.18 43.063C252.545 43.063 252.929 43.0955 253.333 43.1606C253.749 43.2257 254.088 43.2974 254.348 43.3755L253.782 47.9263L251.028 47.77C250.129 47.7179 249.387 47.8937 248.801 48.2974C248.228 48.701 247.747 49.2609 247.356 49.9771V60.9927L250.286 61.5786V64.5864H239.504Z"/>
</mask>
<path d="M48.9966 64.5864H47.9966V65.5864H48.9966V64.5864ZM48.9966 61.5786L48.8112 60.596L47.9966 60.7496V61.5786H48.9966ZM52.1021 60.9927L52.2875 61.9753L53.1021 61.8216V60.9927H52.1021ZM52.1021 39.7622H53.1021V38.9332L52.2875 38.7795L52.1021 39.7622ZM48.9966 39.1763H47.9966V40.0052L48.8112 40.1589L48.9966 39.1763ZM48.9966 36.1489V35.1489H47.9966V36.1489H48.9966ZM57.0825 36.1489L57.9292 35.6169L57.6352 35.1489H57.0825V36.1489ZM70.1294 56.9106L69.2827 57.4427L69.7006 58.1077L70.4456 57.8593L70.1294 56.9106ZM70.2466 56.8716L70.5628 57.8203L71.2466 57.5923V56.8716H70.2466ZM70.2466 39.7622H71.2466V38.912L70.4075 38.7752L70.2466 39.7622ZM66.6528 39.1763H65.6528V40.0264L66.4919 40.1632L66.6528 39.1763ZM66.6528 36.1489V35.1489H65.6528V36.1489H66.6528ZM77.7856 36.1489H78.7856V35.1489H77.7856V36.1489ZM77.7856 39.1763L77.9711 40.1589L78.7856 40.0052V39.1763H77.7856ZM74.6802 39.7622L74.4948 38.7795L73.6802 38.9332V39.7622H74.6802ZM74.6802 64.5864V65.5864H75.6802V64.5864H74.6802ZM70.0122 64.5864L69.1722 65.129L69.4676 65.5864H70.0122V64.5864ZM56.6528 43.9028L57.4928 43.3603L57.1364 42.8084L56.4884 42.9164L56.6528 43.9028ZM56.5356 43.9224L56.3712 42.936L55.5356 43.0752V43.9224H56.5356ZM56.5356 60.9927H55.5356V61.8428L56.3747 61.9796L56.5356 60.9927ZM60.1294 61.5786H61.1294V60.7285L60.2903 60.5916L60.1294 61.5786ZM60.1294 64.5864V65.5864H61.1294V64.5864H60.1294ZM49.9966 64.5864V61.5786H47.9966V64.5864H49.9966ZM49.182 62.5613L52.2875 61.9753L51.9166 60.01L48.8112 60.596L49.182 62.5613ZM53.1021 60.9927V39.7622H51.1021V60.9927H53.1021ZM52.2875 38.7795L49.182 38.1936L48.8112 40.1589L51.9166 40.7449L52.2875 38.7795ZM49.9966 39.1763V36.1489H47.9966V39.1763H49.9966ZM48.9966 37.1489H52.1021V35.1489H48.9966V37.1489ZM52.1021 37.1489H57.0825V35.1489H52.1021V37.1489ZM56.2358 36.681L69.2827 57.4427L70.9761 56.3786L57.9292 35.6169L56.2358 36.681ZM70.4456 57.8593L70.5628 57.8203L69.9304 55.9229L69.8132 55.962L70.4456 57.8593ZM71.2466 56.8716V39.7622H69.2466V56.8716H71.2466ZM70.4075 38.7752L66.8138 38.1893L66.4919 40.1632L70.0857 40.7492L70.4075 38.7752ZM67.6528 39.1763V36.1489H65.6528V39.1763H67.6528ZM66.6528 37.1489H74.6802V35.1489H66.6528V37.1489ZM74.6802 37.1489H77.7856V35.1489H74.6802V37.1489ZM76.7856 36.1489V39.1763H78.7856V36.1489H76.7856ZM77.6002 38.1936L74.4948 38.7795L74.8656 40.7449L77.9711 40.1589L77.6002 38.1936ZM73.6802 39.7622V64.5864H75.6802V39.7622H73.6802ZM74.6802 63.5864H70.0122V65.5864H74.6802V63.5864ZM70.8522 64.0439L57.4928 43.3603L55.8128 44.4454L69.1722 65.129L70.8522 64.0439ZM56.4884 42.9164L56.3712 42.936L56.7 44.9088L56.8172 44.8892L56.4884 42.9164ZM55.5356 43.9224V60.9927H57.5356V43.9224H55.5356ZM56.3747 61.9796L59.9685 62.5656L60.2903 60.5916L56.6966 60.0057L56.3747 61.9796ZM59.1294 61.5786V64.5864H61.1294V61.5786H59.1294ZM60.1294 63.5864H48.9966V65.5864H60.1294V63.5864ZM84.9536 63.6685L84.4324 64.522L84.4413 64.5273L84.9536 63.6685ZM81.5161 59.9575L80.6261 60.4135L80.6291 60.4193L81.5161 59.9575ZM81.4966 48.2388L80.6036 47.7886L80.6007 47.7945L81.4966 48.2388ZM84.8169 44.4497L84.2676 43.6141L84.8169 44.4497ZM94.4263 44.2153L93.9143 45.0744L93.9181 45.0766L94.4263 44.2153ZM97.3755 47.4966L96.4697 47.9204L96.4712 47.9236L97.3755 47.4966ZM98.3716 55.3872V56.3872H99.3716V55.3872H98.3716ZM85.4028 55.3872V54.3872H84.7258L84.4744 55.0158L85.4028 55.3872ZM85.3638 55.4849L84.4353 55.1135L84.3547 55.315L84.3649 55.5319L85.3638 55.4849ZM86.0474 58.4341L85.1422 58.8593L85.1476 58.8704L86.0474 58.4341ZM87.8052 60.4653L87.2571 61.3018L87.2637 61.306L87.8052 60.4653ZM96.3208 59.4106L97.2152 58.9634L96.6894 57.9118L95.7358 58.5996L96.3208 59.4106ZM97.8638 62.4966L98.5086 63.2609L99.1102 62.7533L98.7582 62.0494L97.8638 62.4966ZM85.481 51.9302L84.6235 52.4447L84.9148 52.9302H85.481V51.9302ZM93.6646 51.9302V52.9302H94.6646V51.9302H93.6646ZM93.2349 49.0005L92.3029 49.3629L92.3069 49.3734L92.3113 49.3839L93.2349 49.0005ZM91.9263 47.3599L91.3715 48.192L91.38 48.1975L91.9263 47.3599ZM86.145 49.2544L85.2416 48.8256L85.2384 48.8324L86.145 49.2544ZM85.4224 51.8325L84.4314 51.6986L84.3844 52.0462L84.5649 52.347L85.4224 51.8325ZM90.1685 63.9966C88.3287 63.9966 86.773 63.5893 85.4659 62.8096L84.4413 64.5273C86.103 65.5184 88.0239 65.9966 90.1685 65.9966V63.9966ZM85.4748 62.815C84.1636 62.0144 83.142 60.915 82.4031 59.4957L80.6291 60.4193C81.5308 62.1511 82.8009 63.5257 84.4325 64.5219L85.4748 62.815ZM82.4061 59.5015C81.6811 58.0866 81.3052 56.4435 81.3052 54.5474H79.3052C79.3052 56.7137 79.7365 58.6774 80.6261 60.4135L82.4061 59.5015ZM81.3052 54.5474V53.7271H79.3052V54.5474H81.3052ZM81.3052 53.7271C81.3052 51.8006 81.6763 50.1271 82.3925 48.6831L80.6007 47.7945C79.7283 49.5536 79.3052 51.5389 79.3052 53.7271H81.3052ZM82.3895 48.6889C83.1234 47.233 84.116 46.1073 85.3662 45.2853L84.2676 43.6141C82.7053 44.6411 81.4844 46.0414 80.6036 47.7887L82.3895 48.6889ZM85.3662 45.2853C86.5981 44.4754 88.0061 44.063 89.6216 44.063V42.063C87.6433 42.063 85.8482 42.575 84.2676 43.6141L85.3662 45.2853ZM89.6216 44.063C91.4043 44.063 92.8173 44.4206 93.9143 45.0744L94.9382 43.3563C93.4571 42.4736 91.667 42.063 89.6216 42.063V44.063ZM93.9181 45.0766C95.04 45.7385 95.8878 46.6766 96.4697 47.9204L98.2812 47.0728C97.5351 45.478 96.4167 44.2286 94.9344 43.3541L93.9181 45.0766ZM96.4712 47.9236C97.0575 49.1651 97.3716 50.7042 97.3716 52.5747H99.3716C99.3716 50.4868 99.0216 48.6406 98.2797 47.0696L96.4712 47.9236ZM97.3716 52.5747V55.3872H99.3716V52.5747H97.3716ZM98.3716 54.3872H85.4028V56.3872H98.3716V54.3872ZM84.4744 55.0158L84.4353 55.1135L86.2922 55.8563L86.3313 55.7586L84.4744 55.0158ZM84.3649 55.5319C84.4221 56.748 84.6743 57.8631 85.1422 58.8592L86.9525 58.0089C86.6131 57.2864 86.4096 56.4352 86.3627 55.4379L84.3649 55.5319ZM85.1476 58.8704C85.6384 59.8827 86.3418 60.7021 87.2571 61.3018L88.3532 59.6289C87.7581 59.239 87.2897 58.7042 86.9472 57.9978L85.1476 58.8704ZM87.2637 61.306C88.2228 61.9238 89.3506 62.2075 90.5981 62.2075V60.2075C89.6582 60.2075 88.924 59.9965 88.3467 59.6246L87.2637 61.306ZM90.5981 62.2075C91.8347 62.2075 92.9851 62.0389 94.0394 61.6875L93.4069 59.7901C92.5862 60.0637 91.6533 60.2075 90.5981 60.2075V62.2075ZM94.0394 61.6875C95.072 61.3432 96.0287 60.8544 96.9058 60.2217L95.7358 58.5996C95.0244 59.1128 94.2493 59.5093 93.4069 59.7901L94.0394 61.6875ZM95.4264 59.8579L96.9693 62.9438L98.7582 62.0494L97.2152 58.9634L95.4264 59.8579ZM97.2189 61.7323C96.4928 62.345 95.5387 62.8855 94.3301 63.3372L95.0303 65.2106C96.3998 64.6988 97.5681 64.0545 98.5086 63.2609L97.2189 61.7323ZM94.3301 63.3372C93.177 63.7682 91.7963 63.9966 90.1685 63.9966V65.9966C91.9781 65.9966 93.6052 65.7432 95.0303 65.2106L94.3301 63.3372ZM85.481 52.9302H93.6646V50.9302H85.481V52.9302ZM94.6646 51.9302V51.4224H92.6646V51.9302H94.6646ZM94.6646 51.4224C94.6646 50.3966 94.5058 49.4539 94.1585 48.6171L92.3113 49.3839C92.5369 49.9273 92.6646 50.5992 92.6646 51.4224H94.6646ZM94.1669 48.638C93.8221 47.7515 93.2565 47.0336 92.4725 46.5223L91.38 48.1975C91.7939 48.4674 92.1008 48.8432 92.3029 49.3629L94.1669 48.638ZM92.481 46.5278C91.6887 45.9996 90.7315 45.7739 89.6802 45.7739V47.7739C90.4517 47.7739 90.992 47.9389 91.3716 48.1919L92.481 46.5278ZM89.6802 45.7739C88.687 45.7739 87.7787 46.0552 86.9959 46.6338L88.1847 48.2422C88.5998 47.9353 89.0848 47.7739 89.6802 47.7739V45.7739ZM86.9959 46.6338C86.2469 47.1874 85.6666 47.93 85.2416 48.8257L87.0484 49.6831C87.3526 49.0423 87.7358 48.574 88.1847 48.2422L86.9959 46.6338ZM85.2384 48.8324C84.838 49.6926 84.5729 50.6516 84.4314 51.6986L86.4134 51.9664C86.5323 51.0864 86.7489 50.3266 87.0516 49.6764L85.2384 48.8324ZM84.5649 52.347L84.6235 52.4447L86.3384 51.4157L86.2799 51.318L84.5649 52.347ZM108.313 64.5864L107.353 64.8678L107.564 65.5864H108.313V64.5864ZM103.118 46.8716L104.077 46.5902L103.899 45.9823L103.273 45.8838L103.118 46.8716ZM100.637 46.481H99.6372V47.3358L100.482 47.4688L100.637 46.481ZM100.637 43.4536V42.4536H99.6372V43.4536H100.637ZM110.227 43.4536H111.227V42.4536H110.227V43.4536ZM110.227 46.481L110.405 47.4651L111.227 47.3168V46.481H110.227ZM107.844 46.9106L107.667 45.9265L106.607 46.1175L106.876 47.16L107.844 46.9106ZM110.208 56.0903L111.179 55.8523L111.176 55.841L110.208 56.0903ZM110.696 58.0825L109.725 58.3206L109.911 59.0825H110.696V58.0825ZM110.813 58.0825V59.0825H111.527L111.759 58.4071L110.813 58.0825ZM111.497 56.0903L110.553 55.7593L110.551 55.7658L111.497 56.0903ZM115.93 43.4536V42.4536H115.221L114.987 43.1225L115.93 43.4536ZM119.504 43.4536L120.452 43.1348L120.223 42.4536H119.504V43.4536ZM123.782 56.1685L124.734 55.8622L124.73 55.8496L123.782 56.1685ZM124.504 58.4146L123.552 58.7208L123.776 59.4146H124.504V58.4146ZM124.622 58.4146V59.4146H125.363L125.578 58.7057L124.622 58.4146ZM125.305 56.1685L126.262 56.4596L126.266 56.4473L126.269 56.4348L125.305 56.1685ZM127.864 46.9106L128.828 47.177L129.123 46.1095L128.031 45.9247L127.864 46.9106ZM125.325 46.481H124.325V47.3259L125.158 47.4669L125.325 46.481ZM125.325 43.4536V42.4536H124.325V43.4536H125.325ZM134.719 43.4536H135.719V42.4536H134.719V43.4536ZM134.719 46.481L134.886 47.4669L135.719 47.3258V46.481H134.719ZM132.297 46.8911L132.13 45.9052L131.522 46.0083L131.341 46.5987L132.297 46.8911ZM126.887 64.5864V65.5864H127.627L127.844 64.8788L126.887 64.5864ZM122.571 64.5864L121.628 64.9205L121.864 65.5864H122.571V64.5864ZM118.528 53.1802L117.569 53.4638L117.576 53.4893L117.585 53.5143L118.528 53.1802ZM117.708 50.4067L118.666 50.1231L118.455 49.4067H117.708V50.4067ZM117.59 50.4067V49.4067H116.843L116.631 50.1231L117.59 50.4067ZM116.77 53.1802L117.71 53.5214L117.72 53.4929L117.729 53.4638L116.77 53.1802ZM112.629 64.5864V65.5864H113.33L113.569 64.9277L112.629 64.5864ZM109.273 64.305L104.077 46.5902L102.158 47.153L107.353 64.8678L109.273 64.305ZM103.273 45.8838L100.793 45.4931L100.482 47.4688L102.962 47.8594L103.273 45.8838ZM101.637 46.481V43.4536H99.6372V46.481H101.637ZM100.637 44.4536H110.227V42.4536H100.637V44.4536ZM109.227 43.4536V46.481H111.227V43.4536H109.227ZM110.05 45.4968L107.667 45.9265L108.022 47.8948L110.405 47.4651L110.05 45.4968ZM106.876 47.16L109.239 56.3396L111.176 55.841L108.813 46.6613L106.876 47.16ZM109.236 56.3284L109.725 58.3206L111.667 57.8445L111.179 55.8523L109.236 56.3284ZM110.696 59.0825H110.813V57.0825H110.696V59.0825ZM111.759 58.4071L112.442 56.4149L110.551 55.7658L109.867 57.758L111.759 58.4071ZM112.44 56.4214L116.874 43.7847L114.987 43.1225L110.553 55.7593L112.44 56.4214ZM115.93 44.4536H119.504V42.4536H115.93V44.4536ZM118.557 43.7725L122.834 56.4873L124.73 55.8496L120.452 43.1348L118.557 43.7725ZM122.83 56.4747L123.552 58.7208L125.456 58.1083L124.734 55.8622L122.83 56.4747ZM124.504 59.4146H124.622V57.4146H124.504V59.4146ZM125.578 58.7057L126.262 56.4596L124.349 55.8773L123.665 58.1234L125.578 58.7057ZM126.269 56.4348L128.828 47.177L126.9 46.6443L124.341 55.9021L126.269 56.4348ZM128.031 45.9247L125.492 45.495L125.158 47.4669L127.697 47.8966L128.031 45.9247ZM126.325 46.481V43.4536H124.325V46.481H126.325ZM125.325 44.4536H134.719V42.4536H125.325V44.4536ZM133.719 43.4536V46.481H135.719V43.4536H133.719ZM134.552 45.495L132.13 45.9052L132.464 47.8771L134.886 47.4669L134.552 45.495ZM131.341 46.5987L125.931 64.294L127.844 64.8788L133.254 47.1835L131.341 46.5987ZM126.887 63.5864H122.571V65.5864H126.887V63.5864ZM123.513 64.2523L119.47 52.8461L117.585 53.5143L121.628 64.9205L123.513 64.2523ZM119.487 52.8965L118.666 50.1231L116.749 50.6904L117.569 53.4638L119.487 52.8965ZM117.708 49.4067H117.59V51.4067H117.708V49.4067ZM116.631 50.1231L115.811 52.8965L117.729 53.4638L118.549 50.6904L116.631 50.1231ZM115.83 52.8389L111.689 64.2452L113.569 64.9277L117.71 53.5214L115.83 52.8389ZM112.629 63.5864H108.313V65.5864H112.629V63.5864ZM141.36 64.5669L141.136 65.5415L141.147 65.544L141.36 64.5669ZM137.434 63.2583L136.434 63.2688L136.441 63.9164L137.035 64.1751L137.434 63.2583ZM137.375 57.6724V56.6724H136.365L136.376 57.6829L137.375 57.6724ZM140.911 57.6724L141.882 57.4357L141.696 56.6724H140.911V57.6724ZM141.653 60.7192L140.681 60.9559L140.798 61.4347L141.249 61.6339L141.653 60.7192ZM143.372 61.3052L143.134 62.2766L143.147 62.2796L143.159 62.2824L143.372 61.3052ZM148.333 60.7583L147.687 59.9942L147.679 60.0015L148.333 60.7583ZM148.293 57.1255L147.647 57.8882L147.656 57.8958L147.665 57.9031L148.293 57.1255ZM144.836 55.8169L144.625 56.7943L144.627 56.7948L144.836 55.8169ZM139.25 53.4341L138.586 54.1811L138.594 54.1887L139.25 53.4341ZM138.391 46.188L137.559 45.6333L137.554 45.6414L138.391 46.188ZM141.125 43.9419L141.549 44.8478L141.553 44.8458L141.125 43.9419ZM149.836 43.5903L149.572 44.5549L149.584 44.5581L149.836 43.5903ZM153.02 44.8989L154.02 44.8771L154.008 44.338L153.551 44.0516L153.02 44.8989ZM153.137 50.27V51.27H154.159L154.137 50.2482L153.137 50.27ZM149.641 50.27L148.664 50.4819L148.835 51.27H149.641V50.27ZM149.036 47.4771L150.013 47.2652L149.931 46.8861L149.614 46.6615L149.036 47.4771ZM143.235 47.3013L143.835 48.1013L143.845 48.0933L143.235 47.3013ZM142.59 50.2114L141.724 50.7111L141.731 50.7234L141.739 50.7355L142.59 50.2114ZM143.762 51.1489L143.315 52.0434L143.327 52.0494L143.339 52.0551L143.762 51.1489ZM146.321 51.9497L146.094 52.9237L146.095 52.9238L146.321 51.9497ZM152.219 54.4497L152.875 53.6946L152.219 54.4497ZM145.598 63.9966C144.151 63.9966 142.81 63.8593 141.573 63.5898L141.147 65.544C142.54 65.8474 144.025 65.9966 145.598 65.9966V63.9966ZM141.584 63.5923C140.346 63.3076 139.096 62.8916 137.833 62.3415L137.035 64.1751C138.402 64.7708 139.769 65.2272 141.136 65.5415L141.584 63.5923ZM138.434 63.2478L138.375 57.6619L136.376 57.6829L136.434 63.2688L138.434 63.2478ZM137.375 58.6724H140.911V56.6724H137.375V58.6724ZM139.939 57.909L140.681 60.9559L142.624 60.4826L141.882 57.4357L139.939 57.909ZM141.249 61.6339C141.862 61.9047 142.49 62.1192 143.134 62.2766L143.609 60.3338C143.081 60.2047 142.564 60.0285 142.057 59.8046L141.249 61.6339ZM143.159 62.2824C143.84 62.4303 144.576 62.5005 145.364 62.5005V60.5005C144.693 60.5005 144.102 60.4405 143.584 60.328L143.159 62.2824ZM145.364 62.5005C146.829 62.5005 148.13 62.2545 148.986 61.5151L147.679 60.0015C147.389 60.2517 146.712 60.5005 145.364 60.5005V62.5005ZM148.978 61.5223C149.775 60.8488 150.211 59.963 150.211 58.9224H148.211C148.211 59.34 148.062 59.6782 147.687 59.9943L148.978 61.5223ZM150.211 58.9224C150.211 57.8787 149.737 57.0069 148.922 56.3479L147.665 57.9031C148.074 58.2337 148.211 58.5598 148.211 58.9224H150.211ZM148.94 56.3627C148.135 55.6798 146.761 55.2056 145.045 54.839L144.627 56.7948C146.323 57.1573 147.254 57.5556 147.647 57.8882L148.94 56.3627ZM145.048 54.8395C142.594 54.3083 140.921 53.5619 139.907 52.6795L138.594 54.1887C139.975 55.3896 142.026 56.2317 144.625 56.7943L145.048 54.8395ZM139.915 52.6871C138.957 51.8345 138.473 50.7458 138.473 49.3325H136.473C136.473 51.2786 137.174 52.9243 138.586 54.181L139.915 52.6871ZM138.473 49.3325C138.473 48.3606 138.727 47.5036 139.228 46.7346L137.554 45.6414C136.832 46.7474 136.473 47.9867 136.473 49.3325H138.473ZM139.223 46.7427C139.73 45.9822 140.488 45.3439 141.549 44.8478L140.702 43.036C139.368 43.6597 138.302 44.5188 137.559 45.6333L139.223 46.7427ZM141.553 44.8458C142.595 44.3527 143.924 44.0825 145.579 44.0825V42.0825C143.717 42.0825 142.077 42.3853 140.698 43.038L141.553 44.8458ZM145.579 44.0825C147.112 44.0825 148.44 44.2448 149.572 44.5549L150.1 42.6258C148.759 42.2587 147.248 42.0825 145.579 42.0825V44.0825ZM149.584 44.5581C150.76 44.8641 151.722 45.2652 152.489 45.7462L153.551 44.0516C152.574 43.4389 151.413 42.9676 150.088 42.6226L149.584 44.5581ZM152.02 44.9207L152.137 50.2918L154.137 50.2482L154.02 44.8771L152.02 44.9207ZM153.137 49.27H149.641V51.27H153.137V49.27ZM150.618 50.0582L150.013 47.2652L148.058 47.6889L148.664 50.4819L150.618 50.0582ZM149.614 46.6615C149.11 46.3034 148.538 46.0369 147.91 45.8533L147.348 47.7727C147.789 47.9016 148.154 48.0778 148.457 48.2926L149.614 46.6615ZM147.91 45.8533C147.266 45.6648 146.557 45.5786 145.793 45.5786V47.5786C146.41 47.5786 146.925 47.6487 147.348 47.7727L147.91 45.8533ZM145.793 45.5786C144.572 45.5786 143.479 45.8506 142.624 46.5093L143.845 48.0933C144.241 47.7884 144.853 47.5786 145.793 47.5786V45.5786ZM142.635 46.5013C141.785 47.139 141.297 48.016 141.297 49.0786H143.297C143.297 48.7089 143.435 48.401 143.835 48.1013L142.635 46.5013ZM141.297 49.0786C141.297 49.6587 141.435 50.2106 141.724 50.7111L143.457 49.7117C143.355 49.5352 143.297 49.3319 143.297 49.0786H141.297ZM141.739 50.7355C142.087 51.3022 142.668 51.7197 143.315 52.0434L144.209 50.2545C143.711 50.0053 143.51 49.7977 143.442 49.6873L141.739 50.7355ZM143.339 52.0551C144.019 52.3722 144.95 52.6577 146.094 52.9237L146.547 50.9757C145.452 50.7209 144.678 50.4726 144.185 50.2427L143.339 52.0551ZM146.095 52.9238C148.791 53.55 150.565 54.3376 151.564 55.2048L152.875 53.6946C151.504 52.5045 149.345 51.6255 146.547 50.9756L146.095 52.9238ZM151.564 55.2048C152.511 56.0273 152.997 57.1029 152.997 58.5317H154.997C154.997 56.5751 154.297 54.9294 152.875 53.6946L151.564 55.2048ZM152.997 58.5317C152.997 60.1412 152.424 61.4135 151.267 62.4285L152.586 63.9319C154.189 62.525 154.997 60.6984 154.997 58.5317H152.997ZM151.267 62.4285C150.146 63.4118 148.321 63.9966 145.598 63.9966V65.9966C148.552 65.9966 150.946 65.3704 152.586 63.9319L151.267 62.4285ZM156.594 64.5864H155.594V65.5864H156.594V64.5864ZM156.594 61.5786L156.399 60.5978L155.594 60.7577V61.5786H156.594ZM159.543 60.9927L159.738 61.9735L160.543 61.8135V60.9927H159.543ZM159.543 37.731H160.543V36.901L159.728 36.7481L159.543 37.731ZM156.418 37.145H155.418V37.9749L156.234 38.1279L156.418 37.145ZM156.418 34.1177V33.1177H155.418V34.1177H156.418ZM164.446 34.1177H165.446V33.1177H164.446V34.1177ZM164.446 60.9927H163.446V61.8135L164.251 61.9735L164.446 60.9927ZM167.395 61.5786H168.395V60.7577L167.59 60.5978L167.395 61.5786ZM167.395 64.5864V65.5864H168.395V64.5864H167.395ZM157.594 64.5864V61.5786H155.594V64.5864H157.594ZM156.789 62.5594L159.738 61.9735L159.349 60.0118L156.399 60.5978L156.789 62.5594ZM160.543 60.9927V37.731H158.543V60.9927H160.543ZM159.728 36.7481L156.603 36.1621L156.234 38.1279L159.359 38.7138L159.728 36.7481ZM157.418 37.145V34.1177H155.418V37.145H157.418ZM156.418 35.1177H164.446V33.1177H156.418V35.1177ZM163.446 34.1177V60.9927H165.446V34.1177H163.446ZM164.251 61.9735L167.2 62.5594L167.59 60.5978L164.641 60.0118L164.251 61.9735ZM166.395 61.5786V64.5864H168.395V61.5786H166.395ZM167.395 63.5864H156.594V65.5864H167.395V63.5864ZM173.938 63.6685L173.417 64.522L173.426 64.5273L173.938 63.6685ZM170.5 59.9575L169.611 60.4135L169.614 60.4193L170.5 59.9575ZM170.481 48.2388L169.588 47.7886L169.585 47.7945L170.481 48.2388ZM173.801 44.4497L173.252 43.6141L173.801 44.4497ZM183.411 44.2153L182.899 45.0744L182.902 45.0766L183.411 44.2153ZM186.36 47.4966L185.454 47.9204L185.456 47.9236L186.36 47.4966ZM187.356 55.3872V56.3872H188.356V55.3872H187.356ZM174.387 55.3872V54.3872H173.71L173.459 55.0158L174.387 55.3872ZM174.348 55.4849L173.42 55.1135L173.339 55.315L173.349 55.5319L174.348 55.4849ZM175.032 58.4341L174.127 58.8593L174.132 58.8704L175.032 58.4341ZM176.79 60.4653L176.242 61.3018L176.248 61.306L176.79 60.4653ZM185.305 59.4106L186.2 58.9634L185.674 57.9118L184.72 58.5996L185.305 59.4106ZM186.848 62.4966L187.493 63.2609L188.095 62.7533L187.743 62.0494L186.848 62.4966ZM174.465 51.9302L173.608 52.4447L173.899 52.9302H174.465V51.9302ZM182.649 51.9302V52.9302H183.649V51.9302H182.649ZM182.219 49.0005L181.287 49.3629L181.291 49.3734L181.296 49.3839L182.219 49.0005ZM180.911 47.3599L180.356 48.192L180.364 48.1975L180.911 47.3599ZM175.129 49.2544L174.226 48.8256L174.223 48.8324L175.129 49.2544ZM174.407 51.8325L173.416 51.6986L173.369 52.0462L173.549 52.347L174.407 51.8325ZM179.153 63.9966C177.313 63.9966 175.757 63.5893 174.45 62.8096L173.426 64.5273C175.087 65.5184 177.008 65.9966 179.153 65.9966V63.9966ZM174.459 62.815C173.148 62.0144 172.126 60.915 171.387 59.4957L169.614 60.4193C170.515 62.1511 171.785 63.5257 173.417 64.5219L174.459 62.815ZM171.39 59.5015C170.665 58.0866 170.29 56.4435 170.29 54.5474H168.29C168.29 56.7137 168.721 58.6774 169.611 60.4135L171.39 59.5015ZM170.29 54.5474V53.7271H168.29V54.5474H170.29ZM170.29 53.7271C170.29 51.8006 170.661 50.1271 171.377 48.6831L169.585 47.7945C168.713 49.5536 168.29 51.5389 168.29 53.7271H170.29ZM171.374 48.6889C172.108 47.233 173.1 46.1073 174.351 45.2853L173.252 43.6141C171.69 44.6411 170.469 46.0414 169.588 47.7887L171.374 48.6889ZM174.351 45.2853C175.583 44.4754 176.99 44.063 178.606 44.063V42.063C176.628 42.063 174.833 42.575 173.252 43.6141L174.351 45.2853ZM178.606 44.063C180.389 44.063 181.802 44.4206 182.899 45.0744L183.923 43.3563C182.442 42.4736 180.651 42.063 178.606 42.063V44.063ZM182.902 45.0766C184.024 45.7385 184.872 46.6766 185.454 47.9204L187.266 47.0728C186.519 45.478 185.401 44.2286 183.919 43.3541L182.902 45.0766ZM185.456 47.9236C186.042 49.1651 186.356 50.7042 186.356 52.5747H188.356C188.356 50.4868 188.006 48.6406 187.264 47.0696L185.456 47.9236ZM186.356 52.5747V55.3872H188.356V52.5747H186.356ZM187.356 54.3872H174.387V56.3872H187.356V54.3872ZM173.459 55.0158L173.42 55.1135L175.277 55.8563L175.316 55.7586L173.459 55.0158ZM173.349 55.5319C173.406 56.748 173.659 57.8631 174.127 58.8592L175.937 58.0089C175.597 57.2864 175.394 56.4352 175.347 55.4379L173.349 55.5319ZM174.132 58.8704C174.623 59.8827 175.326 60.7021 176.242 61.3018L177.338 59.6289C176.743 59.239 176.274 58.7042 175.932 57.9978L174.132 58.8704ZM176.248 61.306C177.207 61.9238 178.335 62.2075 179.583 62.2075V60.2075C178.643 60.2075 177.908 59.9965 177.331 59.6246L176.248 61.306ZM179.583 62.2075C180.819 62.2075 181.969 62.0389 183.024 61.6875L182.391 59.7901C181.571 60.0637 180.638 60.2075 179.583 60.2075V62.2075ZM183.024 61.6875C184.056 61.3432 185.013 60.8544 185.89 60.2217L184.72 58.5996C184.009 59.1128 183.234 59.5093 182.391 59.7901L183.024 61.6875ZM184.411 59.8579L185.954 62.9438L187.743 62.0494L186.2 58.9634L184.411 59.8579ZM186.203 61.7323C185.477 62.345 184.523 62.8855 183.314 63.3372L184.015 65.2106C185.384 64.6988 186.552 64.0545 187.493 63.2609L186.203 61.7323ZM183.314 63.3372C182.161 63.7682 180.781 63.9966 179.153 63.9966V65.9966C180.963 65.9966 182.59 65.7432 184.015 65.2106L183.314 63.3372ZM174.465 52.9302H182.649V50.9302H174.465V52.9302ZM183.649 51.9302V51.4224H181.649V51.9302H183.649ZM183.649 51.4224C183.649 50.3966 183.49 49.4539 183.143 48.6171L181.296 49.3839C181.521 49.9273 181.649 50.5992 181.649 51.4224H183.649ZM183.151 48.638C182.806 47.7515 182.241 47.0336 181.457 46.5223L180.364 48.1975C180.778 48.4674 181.085 48.8432 181.287 49.3629L183.151 48.638ZM181.465 46.5278C180.673 45.9996 179.716 45.7739 178.665 45.7739V47.7739C179.436 47.7739 179.976 47.9389 180.356 48.1919L181.465 46.5278ZM178.665 45.7739C177.671 45.7739 176.763 46.0552 175.98 46.6338L177.169 48.2422C177.584 47.9353 178.069 47.7739 178.665 47.7739V45.7739ZM175.98 46.6338C175.231 47.1874 174.651 47.93 174.226 48.8257L176.033 49.6831C176.337 49.0423 176.72 48.574 177.169 48.2422L175.98 46.6338ZM174.223 48.8324C173.822 49.6926 173.557 50.6516 173.416 51.6986L175.398 51.9664C175.517 51.0864 175.733 50.3266 176.036 49.6764L174.223 48.8324ZM173.549 52.347L173.608 52.4447L175.323 51.4157L175.264 51.318L173.549 52.347ZM193.899 63.4536L193.187 64.1562L193.192 64.1607L193.899 63.4536ZM192.395 46.9692H193.395V45.9692H192.395V46.9692ZM189.309 46.9692H188.309V47.9692H189.309V46.9692ZM189.309 43.4536V42.4536H188.309V43.4536H189.309ZM192.395 43.4536V44.4536H193.395V43.4536H192.395ZM192.395 38.3169V37.3169H191.395V38.3169H192.395ZM197.297 38.3169H198.297V37.3169H197.297V38.3169ZM197.297 43.4536H196.297V44.4536H197.297V43.4536ZM201.477 43.4536H202.477V42.4536H201.477V43.4536ZM201.477 46.9692V47.9692H202.477V46.9692H201.477ZM197.297 46.9692V45.9692H196.297V46.9692H197.297ZM197.844 60.5825L197.092 61.241L197.103 61.2535L197.114 61.2657L197.844 60.5825ZM200.579 61.0903L200.437 60.1004L200.433 60.101L200.579 61.0903ZM201.672 60.895L202.662 60.7497L202.503 59.6693L201.441 59.9222L201.672 60.895ZM202.18 64.3521L202.464 65.3111L203.296 65.0652L203.17 64.2067L202.18 64.3521ZM200.208 64.7817L200.052 63.794L200.049 63.7944L200.208 64.7817ZM198.098 63.9575C196.492 63.9575 195.374 63.5147 194.606 62.7465L193.192 64.1607C194.429 65.3977 196.111 65.9575 198.098 65.9575V63.9575ZM194.611 62.7511C193.873 62.0034 193.395 60.7014 193.395 58.6099H191.395C191.395 60.9454 191.92 62.8726 193.187 64.1561L194.611 62.7511ZM193.395 58.6099V46.9692H191.395V58.6099H193.395ZM192.395 45.9692H189.309V47.9692H192.395V45.9692ZM190.309 46.9692V43.4536H188.309V46.9692H190.309ZM189.309 44.4536H192.395V42.4536H189.309V44.4536ZM193.395 43.4536V38.3169H191.395V43.4536H193.395ZM192.395 39.3169H197.297V37.3169H192.395V39.3169ZM196.297 38.3169V43.4536H198.297V38.3169H196.297ZM197.297 44.4536H201.477V42.4536H197.297V44.4536ZM200.477 43.4536V46.9692H202.477V43.4536H200.477ZM201.477 45.9692H197.297V47.9692H201.477V45.9692ZM196.297 46.9692V58.6099H198.297V46.9692H196.297ZM196.297 58.6099C196.297 59.609 196.494 60.5581 197.092 61.241L198.597 59.924C198.465 59.7736 198.297 59.4076 198.297 58.6099H196.297ZM197.114 61.2657C197.71 61.9032 198.5 62.188 199.368 62.188V60.188C198.96 60.188 198.733 60.0691 198.575 59.8994L197.114 61.2657ZM199.368 62.188C199.79 62.188 200.244 62.1504 200.724 62.0797L200.433 60.101C200.028 60.1605 199.674 60.188 199.368 60.188V62.188ZM200.72 62.0803C201.19 62.0132 201.588 61.943 201.904 61.8678L201.441 59.9222C201.21 59.9772 200.879 60.0373 200.437 60.1004L200.72 62.0803ZM200.683 61.0404L201.191 64.4974L203.17 64.2067L202.662 60.7497L200.683 61.0404ZM201.897 63.393C201.375 63.5473 200.761 63.6819 200.052 63.794L200.363 65.7695C201.138 65.6472 201.84 65.4954 202.464 65.3111L201.897 63.393ZM200.049 63.7944C199.367 63.9039 198.718 63.9575 198.098 63.9575V65.9575C198.833 65.9575 199.589 65.8939 200.366 65.7691L200.049 63.7944ZM208.235 63.4536L207.523 64.1562L207.528 64.1607L208.235 63.4536ZM206.731 46.9692H207.731V45.9692H206.731V46.9692ZM203.645 46.9692H202.645V47.9692H203.645V46.9692ZM203.645 43.4536V42.4536H202.645V43.4536H203.645ZM206.731 43.4536V44.4536H207.731V43.4536H206.731ZM206.731 38.3169V37.3169H205.731V38.3169H206.731ZM211.633 38.3169H212.633V37.3169H211.633V38.3169ZM211.633 43.4536H210.633V44.4536H211.633V43.4536ZM215.813 43.4536H216.813V42.4536H215.813V43.4536ZM215.813 46.9692V47.9692H216.813V46.9692H215.813ZM211.633 46.9692V45.9692H210.633V46.9692H211.633ZM212.18 60.5825L211.428 61.241L211.439 61.2535L211.45 61.2657L212.18 60.5825ZM214.915 61.0903L214.773 60.1004L214.769 60.101L214.915 61.0903ZM216.008 60.895L216.998 60.7497L216.839 59.6693L215.777 59.9222L216.008 60.895ZM216.516 64.3521L216.799 65.3111L217.632 65.0652L217.505 64.2067L216.516 64.3521ZM214.543 64.7817L214.387 63.794L214.385 63.7944L214.543 64.7817ZM212.434 63.9575C210.828 63.9575 209.71 63.5147 208.942 62.7465L207.528 64.1607C208.765 65.3977 210.447 65.9575 212.434 65.9575V63.9575ZM208.947 62.7511C208.208 62.0034 207.731 60.7014 207.731 58.6099H205.731C205.731 60.9454 206.256 62.8726 207.523 64.1561L208.947 62.7511ZM207.731 58.6099V46.9692H205.731V58.6099H207.731ZM206.731 45.9692H203.645V47.9692H206.731V45.9692ZM204.645 46.9692V43.4536H202.645V46.9692H204.645ZM203.645 44.4536H206.731V42.4536H203.645V44.4536ZM207.731 43.4536V38.3169H205.731V43.4536H207.731ZM206.731 39.3169H211.633V37.3169H206.731V39.3169ZM210.633 38.3169V43.4536H212.633V38.3169H210.633ZM211.633 44.4536H215.813V42.4536H211.633V44.4536ZM214.813 43.4536V46.9692H216.813V43.4536H214.813ZM215.813 45.9692H211.633V47.9692H215.813V45.9692ZM210.633 46.9692V58.6099H212.633V46.9692H210.633ZM210.633 58.6099C210.633 59.609 210.83 60.5581 211.428 61.241L212.933 59.924C212.801 59.7736 212.633 59.4076 212.633 58.6099H210.633ZM211.45 61.2657C212.046 61.9032 212.836 62.188 213.704 62.188V60.188C213.296 60.188 213.069 60.0691 212.91 59.8994L211.45 61.2657ZM213.704 62.188C214.126 62.188 214.58 62.1504 215.06 62.0797L214.769 60.101C214.364 60.1605 214.01 60.188 213.704 60.188V62.188ZM215.056 62.0803C215.526 62.0132 215.924 61.943 216.24 61.8678L215.777 59.9222C215.546 59.9772 215.215 60.0373 214.773 60.1004L215.056 62.0803ZM215.019 61.0404L215.527 64.4974L217.505 64.2067L216.998 60.7497L215.019 61.0404ZM216.233 63.393C215.711 63.5473 215.097 63.6819 214.387 63.794L214.699 65.7695C215.474 65.6472 216.176 65.4954 216.799 65.3111L216.233 63.393ZM214.385 63.7944C213.703 63.9039 213.053 63.9575 212.434 63.9575V65.9575C213.169 65.9575 213.925 65.8939 214.702 65.7691L214.385 63.7944ZM223.079 63.6685L222.557 64.522L222.566 64.5273L223.079 63.6685ZM219.641 59.9575L218.751 60.4135L218.754 60.4193L219.641 59.9575ZM219.622 48.2388L218.729 47.7886L218.726 47.7945L219.622 48.2388ZM222.942 44.4497L222.393 43.6141L222.942 44.4497ZM232.551 44.2153L232.039 45.0744L232.043 45.0766L232.551 44.2153ZM235.5 47.4966L234.595 47.9204L234.596 47.9236L235.5 47.4966ZM236.497 55.3872V56.3872H237.497V55.3872H236.497ZM223.528 55.3872V54.3872H222.851L222.599 55.0158L223.528 55.3872ZM223.489 55.4849L222.56 55.1135L222.48 55.315L222.49 55.5319L223.489 55.4849ZM224.172 58.4341L223.267 58.8593L223.273 58.8704L224.172 58.4341ZM225.93 60.4653L225.382 61.3018L225.389 61.306L225.93 60.4653ZM234.446 59.4106L235.34 58.9634L234.814 57.9118L233.861 58.5996L234.446 59.4106ZM235.989 62.4966L236.634 63.2609L237.235 62.7533L236.883 62.0494L235.989 62.4966ZM223.606 51.9302L222.748 52.4447L223.04 52.9302H223.606V51.9302ZM231.79 51.9302V52.9302H232.79V51.9302H231.79ZM231.36 49.0005L230.428 49.3629L230.432 49.3734L230.436 49.3839L231.36 49.0005ZM230.051 47.3599L229.497 48.192L229.505 48.1975L230.051 47.3599ZM224.27 49.2544L223.367 48.8256L223.363 48.8324L224.27 49.2544ZM223.547 51.8325L222.556 51.6986L222.509 52.0462L222.69 52.347L223.547 51.8325ZM228.293 63.9966C226.454 63.9966 224.898 63.5893 223.591 62.8096L222.566 64.5273C224.228 65.5184 226.149 65.9966 228.293 65.9966V63.9966ZM223.6 62.815C222.289 62.0144 221.267 60.915 220.528 59.4957L218.754 60.4193C219.656 62.1511 220.926 63.5257 222.557 64.5219L223.6 62.815ZM220.531 59.5015C219.806 58.0866 219.43 56.4435 219.43 54.5474H217.43C217.43 56.7137 217.862 58.6774 218.751 60.4135L220.531 59.5015ZM219.43 54.5474V53.7271H217.43V54.5474H219.43ZM219.43 53.7271C219.43 51.8006 219.801 50.1271 220.517 48.6831L218.726 47.7945C217.853 49.5536 217.43 51.5389 217.43 53.7271H219.43ZM220.515 48.6889C221.248 47.233 222.241 46.1073 223.491 45.2853L222.393 43.6141C220.83 44.6411 219.609 46.0414 218.729 47.7887L220.515 48.6889ZM223.491 45.2853C224.723 44.4754 226.131 44.063 227.747 44.063V42.063C225.768 42.063 223.973 42.575 222.393 43.6141L223.491 45.2853ZM227.747 44.063C229.529 44.063 230.942 44.4206 232.039 45.0744L233.063 43.3563C231.582 42.4736 229.792 42.063 227.747 42.063V44.063ZM232.043 45.0766C233.165 45.7385 234.013 46.6766 234.595 47.9204L236.406 47.0728C235.66 45.478 234.542 44.2286 233.059 43.3541L232.043 45.0766ZM234.596 47.9236C235.182 49.1651 235.497 50.7042 235.497 52.5747H237.497C237.497 50.4868 237.147 48.6406 236.405 47.0696L234.596 47.9236ZM235.497 52.5747V55.3872H237.497V52.5747H235.497ZM236.497 54.3872H223.528V56.3872H236.497V54.3872ZM222.599 55.0158L222.56 55.1135L224.417 55.8563L224.456 55.7586L222.599 55.0158ZM222.49 55.5319C222.547 56.748 222.799 57.8631 223.267 58.8592L225.077 58.0089C224.738 57.2864 224.535 56.4352 224.488 55.4379L222.49 55.5319ZM223.273 58.8704C223.763 59.8827 224.467 60.7021 225.382 61.3018L226.478 59.6289C225.883 59.239 225.415 58.7042 225.072 57.9978L223.273 58.8704ZM225.389 61.306C226.348 61.9238 227.476 62.2075 228.723 62.2075V60.2075C227.783 60.2075 227.049 59.9965 226.472 59.6246L225.389 61.306ZM228.723 62.2075C229.96 62.2075 231.11 62.0389 232.164 61.6875L231.532 59.7901C230.711 60.0637 229.778 60.2075 228.723 60.2075V62.2075ZM232.164 61.6875C233.197 61.3432 234.154 60.8544 235.031 60.2217L233.861 58.5996C233.149 59.1128 232.374 59.5093 231.532 59.7901L232.164 61.6875ZM233.551 59.8579L235.094 62.9438L236.883 62.0494L235.34 58.9634L233.551 59.8579ZM235.344 61.7323C234.618 62.345 233.664 62.8855 232.455 63.3372L233.155 65.2106C234.525 64.6988 235.693 64.0545 236.634 63.2609L235.344 61.7323ZM232.455 63.3372C231.302 63.7682 229.921 63.9966 228.293 63.9966V65.9966C230.103 65.9966 231.73 65.7432 233.155 65.2106L232.455 63.3372ZM223.606 52.9302H231.79V50.9302H223.606V52.9302ZM232.79 51.9302V51.4224H230.79V51.9302H232.79ZM232.79 51.4224C232.79 50.3966 232.631 49.4539 232.283 48.6171L230.436 49.3839C230.662 49.9273 230.79 50.5992 230.79 51.4224H232.79ZM232.292 48.638C231.947 47.7515 231.382 47.0336 230.598 46.5223L229.505 48.1975C229.919 48.4674 230.226 48.8432 230.428 49.3629L232.292 48.638ZM230.606 46.5278C229.814 45.9996 228.857 45.7739 227.805 45.7739V47.7739C228.577 47.7739 229.117 47.9389 229.497 48.1919L230.606 46.5278ZM227.805 45.7739C226.812 45.7739 225.904 46.0552 225.121 46.6338L226.31 48.2422C226.725 47.9353 227.21 47.7739 227.805 47.7739V45.7739ZM225.121 46.6338C224.372 47.1874 223.792 47.93 223.367 48.8257L225.173 49.6831C225.478 49.0423 225.861 48.574 226.31 48.2422L225.121 46.6338ZM223.363 48.8324C222.963 49.6926 222.698 50.6516 222.556 51.6986L224.538 51.9664C224.657 51.0864 224.874 50.3266 225.177 49.6764L223.363 48.8324ZM222.69 52.347L222.748 52.4447L224.463 51.4157L224.405 51.318L222.69 52.347ZM239.504 64.5864H238.504V65.5864H239.504V64.5864ZM239.504 61.5786L239.308 60.598L238.504 60.7588V61.5786H239.504ZM242.434 60.9927L242.63 61.9733L243.434 61.8125V60.9927H242.434ZM242.434 47.0669H243.434V46.2389L242.621 46.0844L242.434 47.0669ZM239.348 46.481H238.348V47.309L239.162 47.4634L239.348 46.481ZM239.348 43.4536V42.4536H238.348V43.4536H239.348ZM246.965 43.4536L247.961 43.3585L247.874 42.4536H246.965V43.4536ZM247.219 46.1099L248.215 46.0193L248.215 46.0147L247.219 46.1099ZM247.258 46.5396L246.262 46.6301L246.581 50.1309L248.153 46.9868L247.258 46.5396ZM249.309 43.9614L248.719 43.1538L248.713 43.1583L249.309 43.9614ZM253.333 43.1606L253.173 44.1479L253.178 44.1487L253.333 43.1606ZM254.348 43.3755L255.34 43.499L255.445 42.6605L254.635 42.4177L254.348 43.3755ZM253.782 47.9263L253.725 48.9247L254.659 48.9776L254.774 48.0498L253.782 47.9263ZM251.028 47.77L250.97 48.7683L250.971 48.7684L251.028 47.77ZM248.801 48.2974L248.234 47.4738L248.225 47.4799L248.801 48.2974ZM247.356 49.9771L246.478 49.4982L246.356 49.7221V49.9771H247.356ZM247.356 60.9927H246.356V61.8125L247.16 61.9733L247.356 60.9927ZM250.286 61.5786H251.286V60.7588L250.482 60.598L250.286 61.5786ZM250.286 64.5864V65.5864H251.286V64.5864H250.286ZM240.504 64.5864V61.5786H238.504V64.5864H240.504ZM239.701 62.5592L242.63 61.9733L242.238 60.0121L239.308 60.598L239.701 62.5592ZM243.434 60.9927V47.0669H241.434V60.9927H243.434ZM242.621 46.0844L239.535 45.4985L239.162 47.4634L242.248 48.0493L242.621 46.0844ZM240.348 46.481V43.4536H238.348V46.481H240.348ZM239.348 44.4536H246.965V42.4536H239.348V44.4536ZM245.97 43.5488L246.224 46.205L248.215 46.0147L247.961 43.3585L245.97 43.5488ZM246.223 46.2004L246.262 46.6301L248.254 46.449L248.215 46.0193L246.223 46.2004ZM248.153 46.9868C248.659 45.9736 249.251 45.2498 249.905 44.7645L248.713 43.1583C247.753 43.871 246.977 44.8659 246.364 46.0923L248.153 46.9868ZM249.899 44.7691C250.534 44.3049 251.281 44.063 252.18 44.063V42.063C250.892 42.063 249.724 42.42 248.719 43.1538L249.899 44.7691ZM252.18 44.063C252.485 44.063 252.816 44.0903 253.173 44.1479L253.492 42.1734C253.042 42.1008 252.604 42.063 252.18 42.063V44.063ZM253.178 44.1487C253.571 44.2101 253.861 44.2733 254.061 44.3333L254.635 42.4177C254.315 42.3214 253.927 42.2414 253.487 42.1726L253.178 44.1487ZM253.356 43.252L252.789 47.8028L254.774 48.0498L255.34 43.499L253.356 43.252ZM253.838 46.9279L251.084 46.7716L250.971 48.7684L253.725 48.9247L253.838 46.9279ZM251.086 46.7717C250.025 46.7102 249.047 46.9138 248.234 47.4739L249.369 49.1209C249.728 48.8736 250.234 48.7257 250.97 48.7683L251.086 46.7717ZM248.225 47.4799C247.508 47.9852 246.93 48.6695 246.478 49.4982L248.234 50.4559C248.563 49.8523 248.949 49.4169 249.377 49.1148L248.225 47.4799ZM246.356 49.9771V60.9927H248.356V49.9771H246.356ZM247.16 61.9733L250.09 62.5592L250.482 60.598L247.552 60.0121L247.16 61.9733ZM249.286 61.5786V64.5864H251.286V61.5786H249.286ZM250.286 63.5864H239.504V65.5864H250.286V63.5864Z" fill="white" mask="url(#path-2-outside-1_318_397)"/>
</svg>
