<svg width="178" height="52" viewBox="0 0 178 52" fill="none" xmlns="http://www.w3.org/2000/svg">
<path d="M16.3057 9.625L15.1455 8.28906L21.333 1.71484L21.3594 1.67969L20.2256 1.56543V0.203125H24.998V1.56543L23.7939 1.80273L16.3057 9.625ZM13.0537 13V11.6465L14.4512 11.3828V1.8291L13.0537 1.56543V0.203125H18.0195V1.56543L16.666 1.8291V11.3828L18.0195 11.6465V13H13.0537ZM20.5068 13V11.6465L21.6406 11.5322V11.5234L18.2656 6.86523L19.6543 5.30957L24.2334 11.4268L25.4551 11.6465V13H20.5068ZM26.3516 13V11.6465L27.6699 11.3828V5.11621L26.2812 4.85254V3.49023H29.709L29.8232 4.87012C30.1396 4.37793 30.5322 3.99707 31.001 3.72754C31.4756 3.45215 32.0117 3.31445 32.6094 3.31445C33.5879 3.31445 34.3496 3.61621 34.8945 4.21973C35.4395 4.81738 35.7119 5.75488 35.7119 7.03223V11.3828L37.0303 11.6465V13H32.2578V11.6465L33.4971 11.3828V7.0498C33.4971 6.3291 33.3535 5.81934 33.0664 5.52051C32.7793 5.21582 32.3516 5.06348 31.7832 5.06348C31.3555 5.06348 30.9805 5.16016 30.6582 5.35352C30.3418 5.54102 30.084 5.80469 29.8848 6.14453V11.3828L31.0889 11.6465V13H26.3516ZM42.3389 13.1846C41.4248 13.1846 40.6396 12.9795 39.9834 12.5693C39.3271 12.1592 38.8232 11.5908 38.4717 10.8643C38.1201 10.1318 37.9443 9.29102 37.9443 8.3418V8.15723C37.9443 7.21387 38.1201 6.37891 38.4717 5.65234C38.8232 4.92578 39.3271 4.35449 39.9834 3.93848C40.6396 3.52246 41.4189 3.31445 42.3213 3.31445C43.2354 3.31445 44.0205 3.52246 44.6768 3.93848C45.333 4.34863 45.8369 4.91699 46.1885 5.64355C46.54 6.37012 46.7158 7.20801 46.7158 8.15723V8.3418C46.7158 9.29102 46.54 10.1318 46.1885 10.8643C45.8369 11.5908 45.333 12.1592 44.6768 12.5693C44.0264 12.9795 43.2471 13.1846 42.3389 13.1846ZM42.3389 11.4795C42.8311 11.4795 43.2354 11.3477 43.5518 11.084C43.874 10.8145 44.1143 10.4453 44.2725 9.97656C44.4307 9.50195 44.5098 8.95703 44.5098 8.3418V8.15723C44.5098 7.54785 44.4307 7.00879 44.2725 6.54004C44.1143 6.07129 43.874 5.70215 43.5518 5.43262C43.2295 5.16309 42.8193 5.02832 42.3213 5.02832C41.835 5.02832 41.4307 5.16309 41.1084 5.43262C40.7861 5.70215 40.5459 6.07129 40.3877 6.54004C40.2354 7.00879 40.1592 7.54785 40.1592 8.15723V8.3418C40.1592 8.95703 40.2354 9.50195 40.3877 9.97656C40.5459 10.4453 40.7861 10.8145 41.1084 11.084C41.4365 11.3477 41.8467 11.4795 42.3389 11.4795ZM50.8643 13L48.5264 5.02832L47.4102 4.85254V3.49023H51.7256V4.85254L50.6533 5.0459L51.7168 9.17676L51.9365 10.0732H51.9893L52.2969 9.17676L54.292 3.49023H55.9004L57.8252 9.21191L58.1504 10.2227H58.2031L58.5107 9.21191L59.6621 5.0459L58.5195 4.85254V3.49023H62.7471V4.85254L61.6572 5.03711L59.2227 13H57.2803L55.4609 7.86719L55.0918 6.61914H55.0391L54.6699 7.86719L52.8066 13H50.8643ZM71.6416 13V11.8926L73.0742 11.6465V8.3418L69.1367 1.48633L68.082 1.31934V0.203125H72.4941V1.31934L71.0352 1.48633L73.751 6.51367L73.9355 6.85645L73.9443 6.83887L74.1201 6.51367L76.9678 1.48633L75.4561 1.31934V0.203125H79.7803V1.31934L78.6641 1.48633L74.7969 8.20996V11.6465L76.2295 11.8926V13H71.6416ZM84.0781 13.1846C83.1992 13.1846 82.4404 12.9795 81.8018 12.5693C81.1689 12.1533 80.6797 11.582 80.334 10.8555C79.9883 10.123 79.8154 9.28809 79.8154 8.35059V8.15723C79.8154 7.21973 79.9883 6.3877 80.334 5.66113C80.6797 4.92871 81.1689 4.35449 81.8018 3.93848C82.4404 3.52246 83.1934 3.31445 84.0605 3.31445C84.9395 3.31445 85.6953 3.52246 86.3281 3.93848C86.9668 4.35449 87.459 4.92578 87.8047 5.65234C88.1504 6.37891 88.3232 7.21387 88.3232 8.15723V8.35059C88.3232 9.29395 88.1504 10.1318 87.8047 10.8643C87.459 11.5908 86.9697 12.1592 86.3369 12.5693C85.7041 12.9795 84.9512 13.1846 84.0781 13.1846ZM84.0781 11.8311C84.6289 11.8311 85.0889 11.6816 85.458 11.3828C85.833 11.0781 86.1143 10.665 86.3018 10.1436C86.4951 9.61621 86.5918 9.01855 86.5918 8.35059V8.15723C86.5918 7.48926 86.4951 6.89453 86.3018 6.37305C86.1143 5.8457 85.833 5.43262 85.458 5.13379C85.083 4.8291 84.6172 4.67676 84.0605 4.67676C83.5098 4.67676 83.0469 4.8291 82.6719 5.13379C82.2969 5.43262 82.0156 5.8457 81.8281 6.37305C81.6406 6.89453 81.5469 7.48926 81.5469 8.15723V8.35059C81.5469 9.01855 81.6406 9.61621 81.8281 10.1436C82.0156 10.665 82.2969 11.0781 82.6719 11.3828C83.0527 11.6816 83.5215 11.8311 84.0781 11.8311ZM93.8428 13.1846C92.8115 13.1846 92.0059 12.8535 91.4258 12.1914C90.8457 11.5293 90.5557 10.498 90.5557 9.09766V4.85254L89.4658 4.60645V3.49023H90.5557H92.2871V9.11523C92.2871 10.1289 92.4365 10.8262 92.7354 11.207C93.0342 11.5879 93.5 11.7783 94.1328 11.7783C94.748 11.7783 95.2549 11.6553 95.6533 11.4092C96.0576 11.1572 96.3623 10.8027 96.5674 10.3457V4.85254L95.293 4.60645V3.49023H96.5674H98.2988V11.6465L99.3887 11.8926V13H96.7432L96.6289 11.5938C96.3301 12.1035 95.9434 12.4961 95.4688 12.7715C95 13.0469 94.458 13.1846 93.8428 13.1846ZM100.593 13V11.8926L102.025 11.6465V4.85254L100.593 4.60645V3.49023H103.572L103.722 4.70312L103.739 4.87012C104.009 4.38379 104.34 4.00293 104.732 3.72754C105.131 3.45215 105.585 3.31445 106.095 3.31445C106.276 3.31445 106.461 3.33203 106.648 3.36719C106.842 3.39648 106.979 3.42578 107.062 3.45508L106.833 5.06348L105.629 4.99316C105.172 4.96387 104.788 5.06934 104.478 5.30957C104.167 5.54395 103.927 5.86035 103.757 6.25879V11.6465L105.189 11.8926V13H100.593ZM112.546 13V11.6465L113.935 11.3828V1.8291L112.546 1.56543V0.203125H113.935H117.107L120.86 9.45801H120.913L124.552 0.203125H129.166V1.56543L127.769 1.8291V11.3828L129.166 11.6465V13H124.165V11.6465L125.633 11.3828V8.40332L125.65 2.80469L125.606 2.7959L121.643 12.71H120.034L115.956 2.84863L115.912 2.85742L116.026 8.25391V11.3828L117.547 11.6465V13H112.546ZM134.826 13.1846C133.93 13.1846 133.147 12.9854 132.479 12.5869C131.817 12.1826 131.302 11.626 130.933 10.917C130.569 10.208 130.388 9.39648 130.388 8.48242V8.11328C130.388 7.1875 130.566 6.36426 130.924 5.64355C131.287 4.92285 131.785 4.35449 132.418 3.93848C133.051 3.52246 133.771 3.31445 134.58 3.31445C135.441 3.31445 136.162 3.4873 136.742 3.83301C137.328 4.17871 137.771 4.6709 138.069 5.30957C138.368 5.94238 138.518 6.7041 138.518 7.59473V8.86035H132.682L132.664 8.9043C132.688 9.40234 132.79 9.84473 132.972 10.2314C133.159 10.6182 133.423 10.9229 133.763 11.1455C134.108 11.3682 134.527 11.4795 135.02 11.4795C135.535 11.4795 136.004 11.4092 136.426 11.2686C136.848 11.1279 137.237 10.9287 137.595 10.6709L138.289 12.0596C137.914 12.376 137.437 12.6426 136.856 12.8594C136.276 13.0762 135.6 13.1846 134.826 13.1846ZM132.717 7.30469H136.399V7.07617C136.399 6.66016 136.335 6.29688 136.206 5.98633C136.083 5.66992 135.887 5.42383 135.617 5.24805C135.354 5.07227 135.017 4.98438 134.606 4.98438C134.249 4.98438 133.936 5.08398 133.666 5.2832C133.396 5.48242 133.18 5.75488 133.016 6.10059C132.857 6.44043 132.749 6.82715 132.69 7.26074L132.717 7.30469ZM139.713 13V11.6465L141.04 11.3828V5.11621L139.643 4.85254V3.49023H143.07L143.176 4.73828C143.486 4.28711 143.873 3.93848 144.336 3.69238C144.805 3.44043 145.347 3.31445 145.962 3.31445C146.583 3.31445 147.113 3.45508 147.553 3.73633C147.998 4.01172 148.335 4.43066 148.563 4.99316C148.856 4.47168 149.24 4.06152 149.715 3.7627C150.195 3.46387 150.758 3.31445 151.402 3.31445C152.357 3.31445 153.107 3.63965 153.652 4.29004C154.203 4.94043 154.479 5.9248 154.479 7.24316V11.3828L155.806 11.6465V13H151.016V11.6465L152.264 11.3828V7.23438C152.264 6.43164 152.129 5.86914 151.859 5.54688C151.59 5.22461 151.194 5.06348 150.673 5.06348C150.187 5.06348 149.785 5.21875 149.469 5.5293C149.158 5.83984 148.956 6.23535 148.862 6.71582V11.3828L150.066 11.6465V13H145.452V11.6465L146.656 11.3828V7.23438C146.656 6.46094 146.519 5.90723 146.243 5.57324C145.968 5.2334 145.569 5.06348 145.048 5.06348C144.614 5.06348 144.248 5.15137 143.949 5.32715C143.656 5.50293 143.422 5.75195 143.246 6.07422V11.3828L144.485 11.6465V13H139.713ZM161.176 13.1846C160.279 13.1846 159.497 12.9854 158.829 12.5869C158.167 12.1826 157.651 11.626 157.282 10.917C156.919 10.208 156.737 9.39648 156.737 8.48242V8.11328C156.737 7.1875 156.916 6.36426 157.273 5.64355C157.637 4.92285 158.135 4.35449 158.768 3.93848C159.4 3.52246 160.121 3.31445 160.93 3.31445C161.791 3.31445 162.512 3.4873 163.092 3.83301C163.678 4.17871 164.12 4.6709 164.419 5.30957C164.718 5.94238 164.867 6.7041 164.867 7.59473V8.86035H159.031L159.014 8.9043C159.037 9.40234 159.14 9.84473 159.321 10.2314C159.509 10.6182 159.772 10.9229 160.112 11.1455C160.458 11.3682 160.877 11.4795 161.369 11.4795C161.885 11.4795 162.354 11.4092 162.775 11.2686C163.197 11.1279 163.587 10.9287 163.944 10.6709L164.639 12.0596C164.264 12.376 163.786 12.6426 163.206 12.8594C162.626 13.0762 161.949 13.1846 161.176 13.1846ZM159.066 7.30469H162.749V7.07617C162.749 6.66016 162.685 6.29688 162.556 5.98633C162.433 5.66992 162.236 5.42383 161.967 5.24805C161.703 5.07227 161.366 4.98438 160.956 4.98438C160.599 4.98438 160.285 5.08398 160.016 5.2832C159.746 5.48242 159.529 5.75488 159.365 6.10059C159.207 6.44043 159.099 6.82715 159.04 7.26074L159.066 7.30469Z" fill="white"/>
<mask id="path-2-outside-1_1166_1351" maskUnits="userSpaceOnUse" x="10.5" y="26" width="157" height="26" fill="black">
<rect fill="white" x="10.5" y="26" width="157" height="26"/>
<path d="M12.2275 50V47.7441L14.5566 47.3047V31.3818L12.2275 30.9424V28.6719H14.5566H18.292L28.0771 44.2432L28.165 44.2139V31.3818L25.4697 30.9424V28.6719H31.4902H33.8193V30.9424L31.4902 31.3818V50H27.9893L17.9697 34.4873L17.8818 34.502V47.3047L20.5771 47.7441V50H12.2275ZM43.1064 50.3076C41.6123 50.3076 40.3086 49.9756 39.1953 49.3115C38.0918 48.6377 37.2324 47.71 36.6172 46.5283C36.0117 45.3467 35.709 43.9941 35.709 42.4707V41.8555C35.709 40.3125 36.0068 38.9404 36.6025 37.7393C37.208 36.5381 38.0381 35.5908 39.0928 34.8975C40.1475 34.2041 41.3486 33.8574 42.6963 33.8574C44.1318 33.8574 45.333 34.1455 46.2998 34.7217C47.2764 35.2979 48.0137 36.1182 48.5117 37.1826C49.0098 38.2373 49.2588 39.5068 49.2588 40.9912V43.1006H39.5322L39.5029 43.1738C39.542 44.0039 39.7129 44.7412 40.0156 45.3857C40.3281 46.0303 40.7676 46.5381 41.334 46.9092C41.9102 47.2803 42.6084 47.4658 43.4287 47.4658C44.2881 47.4658 45.0693 47.3486 45.7725 47.1143C46.4756 46.8799 47.125 46.5479 47.7207 46.1182L48.8779 48.4326C48.2529 48.96 47.457 49.4043 46.4902 49.7656C45.5234 50.127 44.3955 50.3076 43.1064 50.3076ZM39.5908 40.5078H45.7285V40.127C45.7285 39.4336 45.6211 38.8281 45.4062 38.3105C45.2012 37.7832 44.874 37.373 44.4248 37.0801C43.9854 36.7871 43.4238 36.6406 42.7402 36.6406C42.1445 36.6406 41.6221 36.8066 41.1729 37.1387C40.7236 37.4707 40.3623 37.9248 40.0889 38.501C39.8252 39.0674 39.6445 39.7119 39.5469 40.4346L39.5908 40.5078ZM56.7148 50L52.8184 36.7139L50.958 36.4209V34.1504H58.1504V36.4209L56.3633 36.7432L58.1357 43.6279L58.502 45.1221H58.5898L59.1025 43.6279L62.4277 34.1504H65.1084L68.3164 43.6865L68.8584 45.3711H68.9463L69.459 43.6865L71.3779 36.7432L69.4736 36.4209V34.1504H76.5195V36.4209L74.7031 36.7285L70.6455 50H67.4082L64.376 41.4453L63.7607 39.3652H63.6729L63.0576 41.4453L59.9521 50H56.7148ZM84.6787 50.3076C83.5459 50.3076 82.4863 50.2002 81.5 49.9854C80.5234 49.7607 79.542 49.4336 78.5557 49.0039L78.5117 44.8145H81.1631L81.7197 47.0996C82.1396 47.2852 82.5693 47.4316 83.0088 47.5391C83.458 47.6367 83.9561 47.6855 84.5029 47.6855C85.5576 47.6855 86.2998 47.5 86.7295 47.1289C87.1689 46.7578 87.3887 46.2988 87.3887 45.752C87.3887 45.2246 87.1592 44.7754 86.7002 44.4043C86.251 44.0234 85.3867 43.6963 84.1074 43.4229C82.2129 43.0127 80.8164 42.417 79.918 41.6357C79.0293 40.8447 78.585 39.8193 78.585 38.5596C78.585 37.6904 78.8145 36.9043 79.2734 36.2012C79.7422 35.498 80.4258 34.9365 81.3242 34.5166C82.2324 34.0869 83.3457 33.8721 84.6641 33.8721C85.8652 33.8721 86.9297 33.999 87.8574 34.2529C88.7949 34.4971 89.5908 34.8242 90.2451 35.2344L90.333 39.2627H87.7109L87.2568 37.168C86.9541 36.9531 86.6025 36.7871 86.2021 36.6699C85.8018 36.5527 85.3428 36.4941 84.8252 36.4941C84.0146 36.4941 83.375 36.6748 82.9062 37.0361C82.4375 37.3877 82.2031 37.832 82.2031 38.3691C82.2031 38.6816 82.2764 38.9648 82.4229 39.2188C82.5791 39.4727 82.8721 39.707 83.3018 39.9219C83.7412 40.127 84.3809 40.3271 85.2207 40.5225C87.2812 41.001 88.7559 41.626 89.6445 42.3975C90.5332 43.1689 90.9775 44.1895 90.9775 45.459C90.9775 46.875 90.46 48.0371 89.4248 48.9453C88.3896 49.8535 86.8076 50.3076 84.6787 50.3076ZM92.9258 50V47.7441L95.1377 47.3047V29.8584L92.7939 29.4189V27.1484H98.8145V47.3047L101.026 47.7441V50H92.9258ZM109.845 50.3076C108.351 50.3076 107.047 49.9756 105.934 49.3115C104.83 48.6377 103.971 47.71 103.355 46.5283C102.75 45.3467 102.447 43.9941 102.447 42.4707V41.8555C102.447 40.3125 102.745 38.9404 103.341 37.7393C103.946 36.5381 104.776 35.5908 105.831 34.8975C106.886 34.2041 108.087 33.8574 109.435 33.8574C110.87 33.8574 112.071 34.1455 113.038 34.7217C114.015 35.2979 114.752 36.1182 115.25 37.1826C115.748 38.2373 115.997 39.5068 115.997 40.9912V43.1006H106.271L106.241 43.1738C106.28 44.0039 106.451 44.7412 106.754 45.3857C107.066 46.0303 107.506 46.5381 108.072 46.9092C108.648 47.2803 109.347 47.4658 110.167 47.4658C111.026 47.4658 111.808 47.3486 112.511 47.1143C113.214 46.8799 113.863 46.5479 114.459 46.1182L115.616 48.4326C114.991 48.96 114.195 49.4043 113.229 49.7656C112.262 50.127 111.134 50.3076 109.845 50.3076ZM106.329 40.5078H112.467V40.127C112.467 39.4336 112.359 38.8281 112.145 38.3105C111.939 37.7832 111.612 37.373 111.163 37.0801C110.724 36.7871 110.162 36.6406 109.479 36.6406C108.883 36.6406 108.36 36.8066 107.911 37.1387C107.462 37.4707 107.101 37.9248 106.827 38.501C106.563 39.0674 106.383 39.7119 106.285 40.4346L106.329 40.5078ZM124.054 50.2783C122.706 50.2783 121.656 49.9023 120.904 49.1504C120.152 48.3887 119.776 47.1777 119.776 45.5176V36.7871H117.462V34.1504H119.776V30.2979H123.453V34.1504H126.588V36.7871H123.453V45.5176C123.453 46.1914 123.59 46.6846 123.863 46.9971C124.146 47.2998 124.527 47.4512 125.006 47.4512C125.279 47.4512 125.582 47.4268 125.914 47.3779C126.256 47.3291 126.529 47.2803 126.734 47.2314L127.115 49.8242C126.686 49.9512 126.192 50.0586 125.636 50.1465C125.089 50.2344 124.562 50.2783 124.054 50.2783ZM134.806 50.2783C133.458 50.2783 132.408 49.9023 131.656 49.1504C130.904 48.3887 130.528 47.1777 130.528 45.5176V36.7871H128.214V34.1504H130.528V30.2979H134.205V34.1504H137.34V36.7871H134.205V45.5176C134.205 46.1914 134.342 46.6846 134.615 46.9971C134.898 47.2998 135.279 47.4512 135.758 47.4512C136.031 47.4512 136.334 47.4268 136.666 47.3779C137.008 47.3291 137.281 47.2803 137.486 47.2314L137.867 49.8242C137.438 49.9512 136.944 50.0586 136.388 50.1465C135.841 50.2344 135.313 50.2783 134.806 50.2783ZM146.7 50.3076C145.206 50.3076 143.902 49.9756 142.789 49.3115C141.686 48.6377 140.826 47.71 140.211 46.5283C139.605 45.3467 139.303 43.9941 139.303 42.4707V41.8555C139.303 40.3125 139.601 38.9404 140.196 37.7393C140.802 36.5381 141.632 35.5908 142.687 34.8975C143.741 34.2041 144.942 33.8574 146.29 33.8574C147.726 33.8574 148.927 34.1455 149.894 34.7217C150.87 35.2979 151.607 36.1182 152.105 37.1826C152.604 38.2373 152.853 39.5068 152.853 40.9912V43.1006H143.126L143.097 43.1738C143.136 44.0039 143.307 44.7412 143.609 45.3857C143.922 46.0303 144.361 46.5381 144.928 46.9092C145.504 47.2803 146.202 47.4658 147.022 47.4658C147.882 47.4658 148.663 47.3486 149.366 47.1143C150.069 46.8799 150.719 46.5479 151.314 46.1182L152.472 48.4326C151.847 48.96 151.051 49.4043 150.084 49.7656C149.117 50.127 147.989 50.3076 146.7 50.3076ZM143.185 40.5078H149.322V40.127C149.322 39.4336 149.215 38.8281 149 38.3105C148.795 37.7832 148.468 37.373 148.019 37.0801C147.579 36.7871 147.018 36.6406 146.334 36.6406C145.738 36.6406 145.216 36.8066 144.767 37.1387C144.317 37.4707 143.956 37.9248 143.683 38.501C143.419 39.0674 143.238 39.7119 143.141 40.4346L143.185 40.5078ZM155.108 50V47.7441L157.306 47.3047V36.8604L154.991 36.4209V34.1504H160.704L160.895 36.1426L160.924 36.4648C161.344 35.625 161.856 34.9805 162.462 34.5312C163.077 34.082 163.795 33.8574 164.615 33.8574C164.889 33.8574 165.177 33.8818 165.479 33.9307C165.792 33.9795 166.046 34.0332 166.241 34.0918L165.816 37.5049L163.751 37.3877C163.077 37.3486 162.521 37.4805 162.081 37.7832C161.651 38.0859 161.29 38.5059 160.997 39.043V47.3047L163.194 47.7441V50H155.108Z"/>
</mask>
<path d="M12.2275 50H11.2275V51H12.2275V50ZM12.2275 47.7441L12.0421 46.7615L11.2275 46.9152V47.7441H12.2275ZM14.5566 47.3047L14.742 48.2873L15.5566 48.1337V47.3047H14.5566ZM14.5566 31.3818H15.5566V30.5529L14.742 30.3992L14.5566 31.3818ZM12.2275 30.9424H11.2275V31.7713L12.0421 31.925L12.2275 30.9424ZM12.2275 28.6719V27.6719H11.2275V28.6719H12.2275ZM18.292 28.6719L19.1387 28.1398L18.8446 27.6719H18.292V28.6719ZM28.0771 44.2432L27.2304 44.7752L27.6483 45.4402L28.3934 45.1918L28.0771 44.2432ZM28.165 44.2139L28.4813 45.1625L29.165 44.9346V44.2139H28.165ZM28.165 31.3818H29.165V30.5317L28.326 30.3949L28.165 31.3818ZM25.4697 30.9424H24.4697V31.7925L25.3088 31.9294L25.4697 30.9424ZM25.4697 28.6719V27.6719H24.4697V28.6719H25.4697ZM33.8193 28.6719H34.8193V27.6719H33.8193V28.6719ZM33.8193 30.9424L34.0047 31.925L34.8193 31.7713V30.9424H33.8193ZM31.4902 31.3818L31.3048 30.3992L30.4902 30.5529V31.3818H31.4902ZM31.4902 50V51H32.4902V50H31.4902ZM27.9893 50L27.1492 50.5426L27.4447 51H27.9893V50ZM17.9697 34.4873L18.8097 33.9447L18.4533 33.3929L17.8053 33.5009L17.9697 34.4873ZM17.8818 34.502L17.7174 33.5156L16.8818 33.6548V34.502H17.8818ZM17.8818 47.3047H16.8818V48.1548L17.7209 48.2917L17.8818 47.3047ZM20.5771 47.7441H21.5771V46.894L20.7381 46.7572L20.5771 47.7441ZM20.5771 50V51H21.5771V50H20.5771ZM13.2275 50V47.7441H11.2275V50H13.2275ZM12.4129 48.7268L14.742 48.2873L14.3712 46.322L12.0421 46.7615L12.4129 48.7268ZM15.5566 47.3047V31.3818H13.5566V47.3047H15.5566ZM14.742 30.3992L12.4129 29.9597L12.0421 31.925L14.3712 32.3645L14.742 30.3992ZM13.2275 30.9424V28.6719H11.2275V30.9424H13.2275ZM12.2275 29.6719H14.5566V27.6719H12.2275V29.6719ZM14.5566 29.6719H18.292V27.6719H14.5566V29.6719ZM17.4453 29.2039L27.2304 44.7752L28.9238 43.7111L19.1387 28.1398L17.4453 29.2039ZM28.3934 45.1918L28.4813 45.1625L27.8488 43.2652L27.7609 43.2945L28.3934 45.1918ZM29.165 44.2139V31.3818H27.165V44.2139H29.165ZM28.326 30.3949L25.6306 29.9554L25.3088 31.9294L28.0041 32.3688L28.326 30.3949ZM26.4697 30.9424V28.6719H24.4697V30.9424H26.4697ZM25.4697 29.6719H31.4902V27.6719H25.4697V29.6719ZM31.4902 29.6719H33.8193V27.6719H31.4902V29.6719ZM32.8193 28.6719V30.9424H34.8193V28.6719H32.8193ZM33.6339 29.9597L31.3048 30.3992L31.6756 32.3645L34.0047 31.925L33.6339 29.9597ZM30.4902 31.3818V50H32.4902V31.3818H30.4902ZM31.4902 49H27.9893V51H31.4902V49ZM28.8293 49.4574L18.8097 33.9447L17.1297 35.0299L27.1492 50.5426L28.8293 49.4574ZM17.8053 33.5009L17.7174 33.5156L18.0462 35.4883L18.1341 35.4737L17.8053 33.5009ZM16.8818 34.502V47.3047H18.8818V34.502H16.8818ZM17.7209 48.2917L20.4162 48.7311L20.7381 46.7572L18.0428 46.3177L17.7209 48.2917ZM19.5771 47.7441V50H21.5771V47.7441H19.5771ZM20.5771 49H12.2275V51H20.5771V49ZM39.1953 49.3115L38.6741 50.165L38.683 50.1703L39.1953 49.3115ZM36.6172 46.5283L35.7272 46.9843L35.7302 46.9901L36.6172 46.5283ZM36.6025 37.7393L35.7095 37.2891L35.7067 37.295L36.6025 37.7393ZM39.0928 34.8975L38.5434 34.0619L39.0928 34.8975ZM46.2998 34.7217L45.7879 35.5807L45.7917 35.5829L46.2998 34.7217ZM48.5117 37.1826L47.606 37.6064L47.6075 37.6096L48.5117 37.1826ZM49.2588 43.1006V44.1006H50.2588V43.1006H49.2588ZM39.5322 43.1006V42.1006H38.8552L38.6037 42.7292L39.5322 43.1006ZM39.5029 43.1738L38.5745 42.8024L38.4938 43.004L38.504 43.2208L39.5029 43.1738ZM40.0156 45.3857L39.1104 45.8109L39.1158 45.822L40.0156 45.3857ZM41.334 46.9092L40.7859 47.7457L40.7925 47.7499L41.334 46.9092ZM47.7207 46.1182L48.6151 45.6709L48.0893 44.6193L47.1357 45.3071L47.7207 46.1182ZM48.8779 48.4326L49.5228 49.1969L50.1243 48.6894L49.7724 47.9854L48.8779 48.4326ZM39.5908 40.5078L38.7333 41.0223L39.0246 41.5078H39.5908V40.5078ZM45.7285 40.5078V41.5078H46.7285V40.5078H45.7285ZM45.4062 38.3105L44.4742 38.673L44.4783 38.6835L44.4827 38.6939L45.4062 38.3105ZM44.4248 37.0801L43.8701 37.9122L43.8785 37.9177L44.4248 37.0801ZM40.0889 38.501L39.1854 38.0722L39.1823 38.0789L40.0889 38.501ZM39.5469 40.4346L38.5559 40.3007L38.5089 40.6483L38.6894 40.9491L39.5469 40.4346ZM43.1064 49.3076C41.7647 49.3076 40.6436 49.011 39.7076 48.4527L38.683 50.1703C39.9736 50.9402 41.4599 51.3076 43.1064 51.3076V49.3076ZM39.7165 48.4581C38.7731 47.882 38.038 47.0919 37.5042 46.0665L35.7302 46.9901C36.4268 48.328 37.4105 49.3934 38.6742 50.165L39.7165 48.4581ZM37.5072 46.0723C36.984 45.0513 36.709 43.8591 36.709 42.4707H34.709C34.709 44.1292 35.0394 45.642 35.7272 46.9843L37.5072 46.0723ZM36.709 42.4707V41.8555H34.709V42.4707H36.709ZM36.709 41.8555C36.709 40.4434 36.9808 39.2272 37.4984 38.1836L35.7067 37.295C35.0328 38.6537 34.709 40.1816 34.709 41.8555H36.709ZM37.4955 38.1894C38.0275 37.1339 38.7434 36.3239 39.6421 35.7331L38.5434 34.0619C37.3328 34.8578 36.3885 35.9423 35.7096 37.2891L37.4955 38.1894ZM39.6421 35.7331C40.5224 35.1543 41.53 34.8574 42.6963 34.8574V32.8574C41.1673 32.8574 39.7725 33.2539 38.5434 34.0619L39.6421 35.7331ZM42.6963 34.8574C44.0005 34.8574 45.0131 35.119 45.7879 35.5807L46.8117 33.8627C45.6529 33.1721 44.2632 32.8574 42.6963 32.8574V34.8574ZM45.7917 35.5829C46.588 36.0528 47.19 36.7175 47.606 37.6064L49.4175 36.7588C48.8373 35.5189 47.9647 34.5429 46.808 33.8604L45.7917 35.5829ZM47.6075 37.6096C48.0277 38.4996 48.2588 39.6155 48.2588 40.9912H50.2588C50.2588 39.3981 49.9918 37.9751 49.416 36.7556L47.6075 37.6096ZM48.2588 40.9912V43.1006H50.2588V40.9912H48.2588ZM49.2588 42.1006H39.5322V44.1006H49.2588V42.1006ZM38.6037 42.7292L38.5745 42.8024L40.4314 43.5452L40.4607 43.472L38.6037 42.7292ZM38.504 43.2208C38.5482 44.1603 38.7435 45.0296 39.1105 45.8109L40.9208 44.9606C40.6823 44.4529 40.5357 43.8475 40.5018 43.1268L38.504 43.2208ZM39.1158 45.822C39.5025 46.6195 40.0594 47.2696 40.786 47.7456L41.882 46.0727C41.4758 45.8066 41.1538 45.441 40.9154 44.9495L39.1158 45.822ZM40.7925 47.7499C41.5596 48.2439 42.4546 48.4658 43.4287 48.4658V46.4658C42.7622 46.4658 42.2608 46.3166 41.8755 46.0685L40.7925 47.7499ZM43.4287 48.4658C44.3788 48.4658 45.2688 48.3362 46.0887 48.0629L45.4562 46.1656C44.8699 46.361 44.1974 46.4658 43.4287 46.4658V48.4658ZM46.0887 48.0629C46.887 47.7968 47.6271 47.4186 48.3057 46.9292L47.1357 45.3071C46.6229 45.6771 46.0642 45.9629 45.4562 46.1656L46.0887 48.0629ZM46.8263 46.5654L47.9835 48.8798L49.7724 47.9854L48.6151 45.6709L46.8263 46.5654ZM48.2331 47.6683C47.7153 48.1052 47.0264 48.4977 46.1401 48.8289L46.8403 50.7023C47.8876 50.3109 48.7906 49.8147 49.5228 49.1969L48.2331 47.6683ZM46.1401 48.8289C45.3093 49.1394 44.3046 49.3076 43.1064 49.3076V51.3076C44.4864 51.3076 45.7376 51.1145 46.8403 50.7023L46.1401 48.8289ZM39.5908 41.5078H45.7285V39.5078H39.5908V41.5078ZM46.7285 40.5078V40.127H44.7285V40.5078H46.7285ZM46.7285 40.127C46.7285 39.3323 46.6056 38.5914 46.3298 37.9272L44.4827 38.6939C44.6366 39.0649 44.7285 39.5349 44.7285 40.127H46.7285ZM46.3383 37.9481C46.0618 37.2373 45.6053 36.6561 44.9711 36.2425L43.8785 37.9177C44.1427 38.09 44.3405 38.3291 44.4742 38.673L46.3383 37.9481ZM44.9795 36.248C44.3337 35.8175 43.5637 35.6406 42.7402 35.6406V37.6406C43.2839 37.6406 43.637 37.7567 43.8701 37.9121L44.9795 36.248ZM42.7402 35.6406C41.9457 35.6406 41.2115 35.8666 40.5785 36.3345L41.7672 37.9428C42.0326 37.7467 42.3434 37.6406 42.7402 37.6406V35.6406ZM40.5785 36.3345C39.9792 36.7774 39.5193 37.3687 39.1854 38.0722L40.9923 38.9297C41.2053 38.4809 41.4681 38.164 41.7672 37.9428L40.5785 36.3345ZM39.1823 38.0789C38.8697 38.7504 38.6648 39.4945 38.5559 40.3007L40.5379 40.5685C40.6242 39.9293 40.7807 39.3844 40.9954 38.923L39.1823 38.0789ZM38.6894 40.9491L38.7333 41.0223L40.4483 39.9933L40.4044 39.9201L38.6894 40.9491ZM56.7148 50L55.7553 50.2814L55.966 51H56.7148V50ZM52.8184 36.7139L53.7779 36.4324L53.5997 35.8246L52.9739 35.726L52.8184 36.7139ZM50.958 36.4209H49.958V37.2757L50.8024 37.4087L50.958 36.4209ZM50.958 34.1504V33.1504H49.958V34.1504H50.958ZM58.1504 34.1504H59.1504V33.1504H58.1504V34.1504ZM58.1504 36.4209L58.3279 37.405L59.1504 37.2567V36.4209H58.1504ZM56.3633 36.7432L56.1858 35.759L55.1265 35.9501L55.3949 36.9925L56.3633 36.7432ZM58.1357 43.6279L59.1071 43.3899L59.1042 43.3786L58.1357 43.6279ZM58.502 45.1221L57.5307 45.3601L57.7175 46.1221H58.502V45.1221ZM58.5898 45.1221V46.1221H59.3039L59.5357 45.4466L58.5898 45.1221ZM59.1025 43.6279L58.1589 43.2969L58.1567 43.3034L59.1025 43.6279ZM62.4277 34.1504V33.1504H61.7188L61.4841 33.8193L62.4277 34.1504ZM65.1084 34.1504L66.0562 33.8315L65.8271 33.1504H65.1084V34.1504ZM68.3164 43.6865L69.2684 43.3802L69.2642 43.3677L68.3164 43.6865ZM68.8584 45.3711L67.9065 45.6774L68.1297 46.3711H68.8584V45.3711ZM68.9463 45.3711V46.3711H69.6872L69.903 45.6623L68.9463 45.3711ZM69.459 43.6865L70.4157 43.9777L70.4194 43.9653L70.4229 43.9529L69.459 43.6865ZM71.3779 36.7432L72.3418 37.0095L72.6368 35.942L71.5448 35.7572L71.3779 36.7432ZM69.4736 36.4209H68.4736V37.2659L69.3068 37.4069L69.4736 36.4209ZM69.4736 34.1504V33.1504H68.4736V34.1504H69.4736ZM76.5195 34.1504H77.5195V33.1504H76.5195V34.1504ZM76.5195 36.4209L76.6865 37.4069L77.5195 37.2658V36.4209H76.5195ZM74.7031 36.7285L74.5361 35.7426L73.9274 35.8457L73.7468 36.4361L74.7031 36.7285ZM70.6455 50V51H71.3855L71.6018 50.2924L70.6455 50ZM67.4082 50L66.4657 50.3341L66.7017 51H67.4082V50ZM64.376 41.4453L63.417 41.7289L63.4246 41.7544L63.4334 41.7794L64.376 41.4453ZM63.7607 39.3652L64.7197 39.0816L64.5078 38.3652H63.7607V39.3652ZM63.6729 39.3652V38.3652H62.9258L62.7139 39.0816L63.6729 39.3652ZM63.0576 41.4453L63.9976 41.7865L64.0079 41.758L64.0166 41.7289L63.0576 41.4453ZM59.9521 50V51H60.653L60.8921 50.3412L59.9521 50ZM57.6744 49.7186L53.7779 36.4324L51.8588 36.9953L55.7553 50.2814L57.6744 49.7186ZM52.9739 35.726L51.1136 35.4331L50.8024 37.4087L52.6628 37.7017L52.9739 35.726ZM51.958 36.4209V34.1504H49.958V36.4209H51.958ZM50.958 35.1504H58.1504V33.1504H50.958V35.1504ZM57.1504 34.1504V36.4209H59.1504V34.1504H57.1504ZM57.9729 35.4368L56.1858 35.759L56.5407 37.7273L58.3279 37.405L57.9729 35.4368ZM55.3949 36.9925L57.1673 43.8772L59.1042 43.3786L57.3317 36.4938L55.3949 36.9925ZM57.1645 43.866L57.5307 45.3601L59.4732 44.884L59.107 43.3899L57.1645 43.866ZM58.502 46.1221H58.5898V44.1221H58.502V46.1221ZM59.5357 45.4466L60.0484 43.9525L58.1567 43.3034L57.644 44.7975L59.5357 45.4466ZM60.0461 43.959L63.3713 34.4815L61.4841 33.8193L58.1589 43.2969L60.0461 43.959ZM62.4277 35.1504H65.1084V33.1504H62.4277V35.1504ZM64.1606 34.4692L67.3686 44.0054L69.2642 43.3677L66.0562 33.8315L64.1606 34.4692ZM67.3645 43.9928L67.9065 45.6774L69.8103 45.0648L69.2683 43.3802L67.3645 43.9928ZM68.8584 46.3711H68.9463V44.3711H68.8584V46.3711ZM69.903 45.6623L70.4157 43.9777L68.5023 43.3954L67.9896 45.0799L69.903 45.6623ZM70.4229 43.9529L72.3418 37.0095L70.4141 36.4768L68.4951 43.4201L70.4229 43.9529ZM71.5448 35.7572L69.6405 35.4349L69.3068 37.4069L71.2111 37.7291L71.5448 35.7572ZM70.4736 36.4209V34.1504H68.4736V36.4209H70.4736ZM69.4736 35.1504H76.5195V33.1504H69.4736V35.1504ZM75.5195 34.1504V36.4209H77.5195V34.1504H75.5195ZM76.3526 35.4349L74.5361 35.7426L74.8701 37.7145L76.6865 37.4069L76.3526 35.4349ZM73.7468 36.4361L69.6892 49.7076L71.6018 50.2924L75.6594 37.0209L73.7468 36.4361ZM70.6455 49H67.4082V51H70.6455V49ZM68.3507 49.6659L65.3185 41.1112L63.4334 41.7794L66.4657 50.3341L68.3507 49.6659ZM65.3349 41.1617L64.7197 39.0816L62.8018 39.6489L63.417 41.7289L65.3349 41.1617ZM63.7607 38.3652H63.6729V40.3652H63.7607V38.3652ZM62.7139 39.0816L62.0987 41.1617L64.0166 41.7289L64.6318 39.6489L62.7139 39.0816ZM62.1176 41.1041L59.0122 49.6588L60.8921 50.3412L63.9976 41.7865L62.1176 41.1041ZM59.9521 49H56.7148V51H59.9521V49ZM81.5 49.9854L81.2758 50.96L81.2872 50.9624L81.5 49.9854ZM78.5557 49.0039L77.5557 49.0144L77.5625 49.662L78.1563 49.9207L78.5557 49.0039ZM78.5117 44.8145V43.8145H77.5012L77.5118 44.8249L78.5117 44.8145ZM81.1631 44.8145L82.1347 44.5778L81.9487 43.8145H81.1631V44.8145ZM81.7197 47.0996L80.7481 47.3363L80.8648 47.8151L81.3156 48.0143L81.7197 47.0996ZM83.0088 47.5391L82.7713 48.5105L82.7838 48.5135L82.7964 48.5162L83.0088 47.5391ZM86.7295 47.1289L86.0843 46.3648L86.0759 46.3721L86.7295 47.1289ZM86.7002 44.4043L86.0535 45.1671L86.0624 45.1746L86.0715 45.1819L86.7002 44.4043ZM84.1074 43.4229L83.8958 44.4002L83.8984 44.4008L84.1074 43.4229ZM79.918 41.6357L79.2531 42.3827L79.2618 42.3903L79.918 41.6357ZM79.2734 36.2012L78.4413 35.6464L78.4361 35.6545L79.2734 36.2012ZM81.3242 34.5166L81.7477 35.4225L81.7519 35.4205L81.3242 34.5166ZM87.8574 34.2529L87.5934 35.2175L87.6054 35.2207L87.8574 34.2529ZM90.2451 35.2344L91.2449 35.2126L91.2331 34.6735L90.7763 34.3871L90.2451 35.2344ZM90.333 39.2627V40.2627H91.3551L91.3328 39.2409L90.333 39.2627ZM87.7109 39.2627L86.7336 39.4746L86.9045 40.2627H87.7109V39.2627ZM87.2568 37.168L88.2341 36.9561L88.1519 36.577L87.8356 36.3525L87.2568 37.168ZM82.9062 37.0361L83.5063 37.8362L83.5168 37.8281L82.9062 37.0361ZM82.4229 39.2188L81.5567 39.7185L81.5638 39.7308L81.5712 39.7428L82.4229 39.2188ZM83.3018 39.9219L82.8545 40.8163L82.8666 40.8223L82.8789 40.8281L83.3018 39.9219ZM85.2207 40.5225L84.9942 41.4965L84.9945 41.4965L85.2207 40.5225ZM84.6787 49.3076C83.6089 49.3076 82.6214 49.2062 81.7128 49.0083L81.2872 50.9624C82.3513 51.1942 83.4829 51.3076 84.6787 51.3076V49.3076ZM81.7241 49.0108C80.8119 48.801 79.889 48.494 78.9551 48.0871L78.1563 49.9207C79.195 50.3732 80.235 50.7205 81.2759 50.9599L81.7241 49.0108ZM79.5556 48.9934L79.5117 44.804L77.5118 44.8249L77.5557 49.0144L79.5556 48.9934ZM78.5117 45.8145H81.1631V43.8145H78.5117V45.8145ZM80.1915 45.0511L80.7481 47.3363L82.6913 46.8629L82.1347 44.5778L80.1915 45.0511ZM81.3156 48.0143C81.7885 48.2233 82.2739 48.3889 82.7713 48.5105L83.2462 46.5677C82.8648 46.4744 82.4908 46.3471 82.1239 46.1849L81.3156 48.0143ZM82.7964 48.5162C83.327 48.6316 83.8977 48.6855 84.5029 48.6855V46.6855C84.0145 46.6855 83.589 46.6418 83.2212 46.5619L82.7964 48.5162ZM84.5029 48.6855C85.6161 48.6855 86.6702 48.5014 87.3831 47.8857L86.0759 46.3721C85.9294 46.4986 85.4991 46.6855 84.5029 46.6855V48.6855ZM87.3747 47.8929C88.0258 47.3431 88.3887 46.6103 88.3887 45.752H86.3887C86.3887 45.9873 86.3121 46.1725 86.0843 46.3649L87.3747 47.8929ZM88.3887 45.752C88.3887 44.8841 87.991 44.162 87.3289 43.6267L86.0715 45.1819C86.3274 45.3888 86.3887 45.5651 86.3887 45.752H88.3887ZM87.3469 43.6415C86.6911 43.0855 85.6054 42.7204 84.3164 42.4449L83.8984 44.4008C85.168 44.6721 85.8109 44.9613 86.0535 45.1671L87.3469 43.6415ZM84.319 42.4455C82.4968 42.051 81.2895 41.5032 80.5742 40.8811L79.2618 42.3903C80.3433 43.3308 81.9289 43.9744 83.8958 44.4002L84.319 42.4455ZM80.5828 40.8888C79.9212 40.2998 79.585 39.5529 79.585 38.5596H77.585C77.585 40.0857 78.1374 41.3896 79.2531 42.3827L80.5828 40.8888ZM79.585 38.5596C79.585 37.8774 79.7618 37.2824 80.1108 36.7478L78.4361 35.6545C77.8671 36.5262 77.585 37.5035 77.585 38.5596H79.585ZM80.1055 36.7559C80.4563 36.2297 80.9859 35.7786 81.7476 35.4225L80.9008 33.6107C79.8657 34.0945 79.0281 34.7664 78.4414 35.6465L80.1055 36.7559ZM81.7519 35.4205C82.4915 35.0706 83.4494 34.8721 84.6641 34.8721V32.8721C83.242 32.8721 81.9734 33.1032 80.8966 33.6127L81.7519 35.4205ZM84.6641 34.8721C85.7972 34.8721 86.77 34.9921 87.5934 35.2175L88.1214 33.2884C87.0894 33.006 85.9333 32.8721 84.6641 32.8721V34.8721ZM87.6054 35.2207C88.4682 35.4453 89.1648 35.7374 89.714 36.0817L90.7763 34.3871C90.0169 33.9111 89.1216 33.5488 88.1094 33.2852L87.6054 35.2207ZM89.2454 35.2562L89.3332 39.2845L91.3328 39.2409L91.2449 35.2126L89.2454 35.2562ZM90.333 38.2627H87.7109V40.2627H90.333V38.2627ZM88.6882 39.0508L88.2341 36.9561L86.2795 37.3798L86.7336 39.4746L88.6882 39.0508ZM87.8356 36.3525C87.4318 36.0659 86.977 35.8548 86.483 35.7102L85.9212 37.6297C86.2281 37.7195 86.4764 37.8403 86.6781 37.9835L87.8356 36.3525ZM86.483 35.7102C85.9726 35.5608 85.416 35.4941 84.8252 35.4941V37.4941C85.2695 37.4941 85.6309 37.5447 85.9212 37.6297L86.483 35.7102ZM84.8252 35.4941C83.8743 35.4941 82.994 35.7059 82.2957 36.2441L83.5168 37.8281C83.756 37.6437 84.155 37.4941 84.8252 37.4941V35.4941ZM82.3063 36.2361C81.6122 36.7567 81.2031 37.4856 81.2031 38.3691H83.2031C83.2031 38.1785 83.2628 38.0187 83.5062 37.8361L82.3063 36.2361ZM81.2031 38.3691C81.2031 38.8451 81.3167 39.3025 81.5567 39.7185L83.289 38.719C83.236 38.6271 83.2031 38.5182 83.2031 38.3691H81.2031ZM81.5712 39.7428C81.8679 40.2249 82.3504 40.5642 82.8545 40.8163L83.749 39.0274C83.3937 38.8498 83.2904 38.7204 83.2745 38.6947L81.5712 39.7428ZM82.8789 40.8281C83.4118 41.0768 84.1302 41.2955 84.9942 41.4965L85.4472 39.5485C84.6315 39.3587 84.0706 39.1771 83.7246 39.0157L82.8789 40.8281ZM84.9945 41.4965C87.0042 41.9632 88.2862 42.5425 88.989 43.1526L90.3001 41.6423C89.2255 40.7094 87.5583 40.0387 85.4469 39.5484L84.9945 41.4965ZM88.989 43.1526C89.6401 43.7179 89.9775 44.4534 89.9775 45.459H91.9775C91.9775 43.9255 91.4263 42.62 90.3001 41.6423L88.989 43.1526ZM89.9775 45.459C89.9775 46.5964 89.5771 47.4813 88.7653 48.1936L90.0843 49.697C91.3428 48.5929 91.9775 47.1536 91.9775 45.459H89.9775ZM88.7653 48.1936C87.9895 48.8742 86.6919 49.3076 84.6787 49.3076V51.3076C86.9234 51.3076 88.7898 50.8328 90.0843 49.697L88.7653 48.1936ZM92.9258 50H91.9258V51H92.9258V50ZM92.9258 47.7441L92.7309 46.7633L91.9258 46.9233V47.7441H92.9258ZM95.1377 47.3047L95.3326 48.2855L96.1377 48.1256V47.3047H95.1377ZM95.1377 29.8584H96.1377V29.0285L95.322 28.8755L95.1377 29.8584ZM92.7939 29.4189H91.7939V30.2489L92.6097 30.4018L92.7939 29.4189ZM92.7939 27.1484V26.1484H91.7939V27.1484H92.7939ZM98.8145 27.1484H99.8145V26.1484H98.8145V27.1484ZM98.8145 47.3047H97.8145V48.1256L98.6196 48.2855L98.8145 47.3047ZM101.026 47.7441H102.026V46.9233L101.221 46.7633L101.026 47.7441ZM101.026 50V51H102.026V50H101.026ZM93.9258 50V47.7441H91.9258V50H93.9258ZM93.1207 48.725L95.3326 48.2855L94.9428 46.3239L92.7309 46.7633L93.1207 48.725ZM96.1377 47.3047V29.8584H94.1377V47.3047H96.1377ZM95.322 28.8755L92.9782 28.4361L92.6097 30.4018L94.9534 30.8413L95.322 28.8755ZM93.7939 29.4189V27.1484H91.7939V29.4189H93.7939ZM92.7939 28.1484H98.8145V26.1484H92.7939V28.1484ZM97.8145 27.1484V47.3047H99.8145V27.1484H97.8145ZM98.6196 48.2855L100.831 48.725L101.221 46.7633L99.0093 46.3239L98.6196 48.2855ZM100.026 47.7441V50H102.026V47.7441H100.026ZM101.026 49H92.9258V51H101.026V49ZM105.934 49.3115L105.412 50.165L105.421 50.1703L105.934 49.3115ZM103.355 46.5283L102.465 46.9843L102.468 46.9901L103.355 46.5283ZM103.341 37.7393L102.448 37.2891L102.445 37.295L103.341 37.7393ZM105.831 34.8975L105.282 34.0619L105.831 34.8975ZM113.038 34.7217L112.526 35.5807L112.53 35.5829L113.038 34.7217ZM115.25 37.1826L114.344 37.6064L114.346 37.6096L115.25 37.1826ZM115.997 43.1006V44.1006H116.997V43.1006H115.997ZM106.271 43.1006V42.1006H105.593L105.342 42.7292L106.271 43.1006ZM106.241 43.1738L105.313 42.8024L105.232 43.004L105.242 43.2208L106.241 43.1738ZM106.754 45.3857L105.849 45.8109L105.854 45.822L106.754 45.3857ZM108.072 46.9092L107.524 47.7457L107.531 47.7499L108.072 46.9092ZM114.459 46.1182L115.353 45.6709L114.828 44.6193L113.874 45.3071L114.459 46.1182ZM115.616 48.4326L116.261 49.1969L116.863 48.6894L116.511 47.9854L115.616 48.4326ZM106.329 40.5078L105.472 41.0223L105.763 41.5078H106.329V40.5078ZM112.467 40.5078V41.5078H113.467V40.5078H112.467ZM112.145 38.3105L111.213 38.673L111.217 38.6835L111.221 38.6939L112.145 38.3105ZM111.163 37.0801L110.608 37.9122L110.617 37.9177L111.163 37.0801ZM106.827 38.501L105.924 38.0722L105.921 38.0789L106.827 38.501ZM106.285 40.4346L105.294 40.3007L105.247 40.6483L105.428 40.9491L106.285 40.4346ZM109.845 49.3076C108.503 49.3076 107.382 49.011 106.446 48.4527L105.421 50.1703C106.712 50.9402 108.198 51.3076 109.845 51.3076V49.3076ZM106.455 48.4581C105.511 47.882 104.776 47.0919 104.242 46.0665L102.468 46.9901C103.165 48.328 104.149 49.3934 105.412 50.165L106.455 48.4581ZM104.245 46.0723C103.722 45.0513 103.447 43.8591 103.447 42.4707H101.447C101.447 44.1292 101.778 45.642 102.465 46.9843L104.245 46.0723ZM103.447 42.4707V41.8555H101.447V42.4707H103.447ZM103.447 41.8555C103.447 40.4434 103.719 39.2272 104.237 38.1836L102.445 37.295C101.771 38.6537 101.447 40.1816 101.447 41.8555H103.447ZM104.234 38.1894C104.766 37.1339 105.482 36.3239 106.38 35.7331L105.282 34.0619C104.071 34.8578 103.127 35.9423 102.448 37.2891L104.234 38.1894ZM106.38 35.7331C107.261 35.1543 108.268 34.8574 109.435 34.8574V32.8574C107.906 32.8574 106.511 33.2539 105.282 34.0619L106.38 35.7331ZM109.435 34.8574C110.739 34.8574 111.751 35.119 112.526 35.5807L113.55 33.8627C112.391 33.1721 111.001 32.8574 109.435 32.8574V34.8574ZM112.53 35.5829C113.326 36.0528 113.928 36.7175 114.344 37.6064L116.156 36.7588C115.576 35.5189 114.703 34.5429 113.546 33.8604L112.53 35.5829ZM114.346 37.6096C114.766 38.4996 114.997 39.6155 114.997 40.9912H116.997C116.997 39.3981 116.73 37.9751 116.154 36.7556L114.346 37.6096ZM114.997 40.9912V43.1006H116.997V40.9912H114.997ZM115.997 42.1006H106.271V44.1006H115.997V42.1006ZM105.342 42.7292L105.313 42.8024L107.17 43.5452L107.199 43.472L105.342 42.7292ZM105.242 43.2208C105.287 44.1603 105.482 45.0296 105.849 45.8109L107.659 44.9606C107.421 44.4529 107.274 43.8475 107.24 43.1268L105.242 43.2208ZM105.854 45.822C106.241 46.6195 106.798 47.2696 107.524 47.7456L108.62 46.0727C108.214 45.8066 107.892 45.441 107.654 44.9495L105.854 45.822ZM107.531 47.7499C108.298 48.2439 109.193 48.4658 110.167 48.4658V46.4658C109.5 46.4658 108.999 46.3166 108.614 46.0685L107.531 47.7499ZM110.167 48.4658C111.117 48.4658 112.007 48.3362 112.827 48.0629L112.195 46.1656C111.608 46.361 110.936 46.4658 110.167 46.4658V48.4658ZM112.827 48.0629C113.625 47.7968 114.365 47.4186 115.044 46.9292L113.874 45.3071C113.361 45.6771 112.802 45.9629 112.195 46.1656L112.827 48.0629ZM113.565 46.5654L114.722 48.8798L116.511 47.9854L115.353 45.6709L113.565 46.5654ZM114.971 47.6683C114.454 48.1052 113.765 48.4977 112.878 48.8289L113.579 50.7023C114.626 50.3109 115.529 49.8147 116.261 49.1969L114.971 47.6683ZM112.878 48.8289C112.048 49.1394 111.043 49.3076 109.845 49.3076V51.3076C111.225 51.3076 112.476 51.1145 113.579 50.7023L112.878 48.8289ZM106.329 41.5078H112.467V39.5078H106.329V41.5078ZM113.467 40.5078V40.127H111.467V40.5078H113.467ZM113.467 40.127C113.467 39.3323 113.344 38.5914 113.068 37.9272L111.221 38.6939C111.375 39.0649 111.467 39.5349 111.467 40.127H113.467ZM113.077 37.9481C112.8 37.2373 112.344 36.6561 111.709 36.2425L110.617 37.9177C110.881 38.09 111.079 38.3291 111.213 38.673L113.077 37.9481ZM111.718 36.248C111.072 35.8175 110.302 35.6406 109.479 35.6406V37.6406C110.022 37.6406 110.375 37.7567 110.608 37.9121L111.718 36.248ZM109.479 35.6406C108.684 35.6406 107.95 35.8666 107.317 36.3345L108.506 37.9428C108.771 37.7467 109.082 37.6406 109.479 37.6406V35.6406ZM107.317 36.3345C106.717 36.7774 106.258 37.3687 105.924 38.0722L107.731 38.9297C107.944 38.4809 108.206 38.164 108.506 37.9428L107.317 36.3345ZM105.921 38.0789C105.608 38.7504 105.403 39.4945 105.294 40.3007L107.276 40.5685C107.363 39.9293 107.519 39.3844 107.734 38.923L105.921 38.0789ZM105.428 40.9491L105.472 41.0223L107.187 39.9933L107.143 39.9201L105.428 40.9491ZM120.904 49.1504L120.193 49.8529L120.197 49.8575L120.904 49.1504ZM119.776 36.7871H120.776V35.7871H119.776V36.7871ZM117.462 36.7871H116.462V37.7871H117.462V36.7871ZM117.462 34.1504V33.1504H116.462V34.1504H117.462ZM119.776 34.1504V35.1504H120.776V34.1504H119.776ZM119.776 30.2979V29.2979H118.776V30.2979H119.776ZM123.453 30.2979H124.453V29.2979H123.453V30.2979ZM123.453 34.1504H122.453V35.1504H123.453V34.1504ZM126.588 34.1504H127.588V33.1504H126.588V34.1504ZM126.588 36.7871V37.7871H127.588V36.7871H126.588ZM123.453 36.7871V35.7871H122.453V36.7871H123.453ZM123.863 46.9971L123.111 47.6556L123.122 47.6681L123.133 47.6802L123.863 46.9971ZM125.914 47.3779L125.773 46.388L125.769 46.3886L125.914 47.3779ZM126.734 47.2314L127.724 47.0861L127.565 46.0057L126.503 46.2586L126.734 47.2314ZM127.115 49.8242L127.399 50.7832L128.231 50.5374L128.105 49.6789L127.115 49.8242ZM125.636 50.1465L125.48 49.1587L125.477 49.1592L125.636 50.1465ZM124.054 49.2783C122.897 49.2783 122.129 48.9609 121.611 48.4433L120.197 49.8575C121.184 50.8438 122.515 51.2783 124.054 51.2783V49.2783ZM121.616 48.4479C121.129 47.9541 120.776 47.0558 120.776 45.5176H118.776C118.776 47.2997 119.176 48.8232 120.193 49.8529L121.616 48.4479ZM120.776 45.5176V36.7871H118.776V45.5176H120.776ZM119.776 35.7871H117.462V37.7871H119.776V35.7871ZM118.462 36.7871V34.1504H116.462V36.7871H118.462ZM117.462 35.1504H119.776V33.1504H117.462V35.1504ZM120.776 34.1504V30.2979H118.776V34.1504H120.776ZM119.776 31.2979H123.453V29.2979H119.776V31.2979ZM122.453 30.2979V34.1504H124.453V30.2979H122.453ZM123.453 35.1504H126.588V33.1504H123.453V35.1504ZM125.588 34.1504V36.7871H127.588V34.1504H125.588ZM126.588 35.7871H123.453V37.7871H126.588V35.7871ZM122.453 36.7871V45.5176H124.453V36.7871H122.453ZM122.453 45.5176C122.453 46.2921 122.604 47.0768 123.111 47.6556L124.616 46.3386C124.575 46.2923 124.453 46.0907 124.453 45.5176H122.453ZM123.133 47.6802C123.635 48.2169 124.297 48.4512 125.006 48.4512V46.4512C124.757 46.4512 124.658 46.3827 124.594 46.3139L123.133 47.6802ZM125.006 48.4512C125.337 48.4512 125.69 48.4217 126.06 48.3673L125.769 46.3886C125.474 46.4318 125.221 46.4512 125.006 46.4512V48.4512ZM126.055 48.3679C126.411 48.3171 126.718 48.2632 126.966 48.2043L126.503 46.2586C126.34 46.2974 126.101 46.3411 125.773 46.388L126.055 48.3679ZM125.745 47.3768L126.126 49.9696L128.105 49.6789L127.724 47.0861L125.745 47.3768ZM126.832 48.8652C126.453 48.9771 126.004 49.076 125.48 49.1587L125.792 51.1342C126.381 51.0412 126.918 50.9252 127.399 50.7832L126.832 48.8652ZM125.477 49.1592C124.978 49.2394 124.504 49.2783 124.054 49.2783V51.2783C124.619 51.2783 125.2 51.2294 125.794 51.1338L125.477 49.1592ZM131.656 49.1504L130.945 49.8529L130.949 49.8575L131.656 49.1504ZM130.528 36.7871H131.528V35.7871H130.528V36.7871ZM128.214 36.7871H127.214V37.7871H128.214V36.7871ZM128.214 34.1504V33.1504H127.214V34.1504H128.214ZM130.528 34.1504V35.1504H131.528V34.1504H130.528ZM130.528 30.2979V29.2979H129.528V30.2979H130.528ZM134.205 30.2979H135.205V29.2979H134.205V30.2979ZM134.205 34.1504H133.205V35.1504H134.205V34.1504ZM137.34 34.1504H138.34V33.1504H137.34V34.1504ZM137.34 36.7871V37.7871H138.34V36.7871H137.34ZM134.205 36.7871V35.7871H133.205V36.7871H134.205ZM134.615 46.9971L133.863 47.6556L133.874 47.6681L133.885 47.6802L134.615 46.9971ZM136.666 47.3779L136.525 46.388L136.521 46.3886L136.666 47.3779ZM137.486 47.2314L138.476 47.0861L138.317 46.0057L137.255 46.2586L137.486 47.2314ZM137.867 49.8242L138.151 50.7832L138.983 50.5374L138.857 49.6789L137.867 49.8242ZM136.388 50.1465L136.232 49.1587L136.229 49.1592L136.388 50.1465ZM134.806 49.2783C133.649 49.2783 132.881 48.9609 132.363 48.4433L130.949 49.8575C131.935 50.8438 133.267 51.2783 134.806 51.2783V49.2783ZM132.368 48.4479C131.88 47.9541 131.528 47.0558 131.528 45.5176H129.528C129.528 47.2997 129.928 48.8232 130.945 49.8529L132.368 48.4479ZM131.528 45.5176V36.7871H129.528V45.5176H131.528ZM130.528 35.7871H128.214V37.7871H130.528V35.7871ZM129.214 36.7871V34.1504H127.214V36.7871H129.214ZM128.214 35.1504H130.528V33.1504H128.214V35.1504ZM131.528 34.1504V30.2979H129.528V34.1504H131.528ZM130.528 31.2979H134.205V29.2979H130.528V31.2979ZM133.205 30.2979V34.1504H135.205V30.2979H133.205ZM134.205 35.1504H137.34V33.1504H134.205V35.1504ZM136.34 34.1504V36.7871H138.34V34.1504H136.34ZM137.34 35.7871H134.205V37.7871H137.34V35.7871ZM133.205 36.7871V45.5176H135.205V36.7871H133.205ZM133.205 45.5176C133.205 46.2921 133.356 47.0768 133.863 47.6556L135.368 46.3386C135.327 46.2923 135.205 46.0907 135.205 45.5176H133.205ZM133.885 47.6802C134.387 48.2169 135.049 48.4512 135.758 48.4512V46.4512C135.509 46.4512 135.41 46.3827 135.346 46.3139L133.885 47.6802ZM135.758 48.4512C136.089 48.4512 136.442 48.4217 136.812 48.3673L136.521 46.3886C136.226 46.4318 135.973 46.4512 135.758 46.4512V48.4512ZM136.807 48.3679C137.163 48.3171 137.47 48.2632 137.718 48.2043L137.255 46.2586C137.092 46.2974 136.853 46.3411 136.525 46.388L136.807 48.3679ZM136.497 47.3768L136.878 49.9696L138.857 49.6789L138.476 47.0861L136.497 47.3768ZM137.584 48.8652C137.205 48.9771 136.756 49.076 136.232 49.1587L136.544 51.1342C137.133 51.0412 137.67 50.9252 138.151 50.7832L137.584 48.8652ZM136.229 49.1592C135.73 49.2394 135.256 49.2783 134.806 49.2783V51.2783C135.371 51.2783 135.952 51.2294 136.546 51.1338L136.229 49.1592ZM142.789 49.3115L142.268 50.165L142.277 50.1703L142.789 49.3115ZM140.211 46.5283L139.321 46.9843L139.324 46.9901L140.211 46.5283ZM140.196 37.7393L139.303 37.2891L139.3 37.295L140.196 37.7393ZM142.687 34.8975L142.137 34.0619L142.687 34.8975ZM149.894 34.7217L149.382 35.5807L149.385 35.5829L149.894 34.7217ZM152.105 37.1826L151.2 37.6064L151.201 37.6096L152.105 37.1826ZM152.853 43.1006V44.1006H153.853V43.1006H152.853ZM143.126 43.1006V42.1006H142.449L142.197 42.7292L143.126 43.1006ZM143.097 43.1738L142.168 42.8024L142.088 43.004L142.098 43.2208L143.097 43.1738ZM143.609 45.3857L142.704 45.8109L142.71 45.822L143.609 45.3857ZM144.928 46.9092L144.38 47.7457L144.386 47.7499L144.928 46.9092ZM151.314 46.1182L152.209 45.6709L151.683 44.6193L150.729 45.3071L151.314 46.1182ZM152.472 48.4326L153.117 49.1969L153.718 48.6894L153.366 47.9854L152.472 48.4326ZM143.185 40.5078L142.327 41.0223L142.618 41.5078H143.185V40.5078ZM149.322 40.5078V41.5078H150.322V40.5078H149.322ZM149 38.3105L148.068 38.673L148.072 38.6835L148.076 38.6939L149 38.3105ZM148.019 37.0801L147.464 37.9122L147.472 37.9177L148.019 37.0801ZM143.683 38.501L142.779 38.0722L142.776 38.0789L143.683 38.501ZM143.141 40.4346L142.15 40.3007L142.103 40.6483L142.283 40.9491L143.141 40.4346ZM146.7 49.3076C145.358 49.3076 144.237 49.011 143.301 48.4527L142.277 50.1703C143.567 50.9402 145.054 51.3076 146.7 51.3076V49.3076ZM143.31 48.4581C142.367 47.882 141.632 47.0919 141.098 46.0665L139.324 46.9901C140.021 48.328 141.004 49.3934 142.268 50.165L143.31 48.4581ZM141.101 46.0723C140.578 45.0513 140.303 43.8591 140.303 42.4707H138.303C138.303 44.1292 138.633 45.642 139.321 46.9843L141.101 46.0723ZM140.303 42.4707V41.8555H138.303V42.4707H140.303ZM140.303 41.8555C140.303 40.4434 140.575 39.2272 141.092 38.1836L139.3 37.295C138.627 38.6537 138.303 40.1816 138.303 41.8555H140.303ZM141.089 38.1894C141.621 37.1339 142.337 36.3239 143.236 35.7331L142.137 34.0619C140.927 34.8578 139.982 35.9423 139.303 37.2891L141.089 38.1894ZM143.236 35.7331C144.116 35.1543 145.124 34.8574 146.29 34.8574V32.8574C144.761 32.8574 143.366 33.2539 142.137 34.0619L143.236 35.7331ZM146.29 34.8574C147.594 34.8574 148.607 35.119 149.382 35.5807L150.406 33.8627C149.247 33.1721 147.857 32.8574 146.29 32.8574V34.8574ZM149.385 35.5829C150.182 36.0528 150.784 36.7175 151.2 37.6064L153.011 36.7588C152.431 35.5189 151.558 34.5429 150.402 33.8604L149.385 35.5829ZM151.201 37.6096C151.621 38.4996 151.853 39.6155 151.853 40.9912H153.853C153.853 39.3981 153.586 37.9751 153.01 36.7556L151.201 37.6096ZM151.853 40.9912V43.1006H153.853V40.9912H151.853ZM152.853 42.1006H143.126V44.1006H152.853V42.1006ZM142.197 42.7292L142.168 42.8024L144.025 43.5452L144.054 43.472L142.197 42.7292ZM142.098 43.2208C142.142 44.1603 142.337 45.0296 142.704 45.8109L144.515 44.9606C144.276 44.4529 144.129 43.8475 144.096 43.1268L142.098 43.2208ZM142.71 45.822C143.096 46.6195 143.653 47.2696 144.38 47.7456L145.476 46.0727C145.07 45.8066 144.748 45.441 144.509 44.9495L142.71 45.822ZM144.386 47.7499C145.153 48.2439 146.048 48.4658 147.022 48.4658V46.4658C146.356 46.4658 145.855 46.3166 145.469 46.0685L144.386 47.7499ZM147.022 48.4658C147.973 48.4658 148.863 48.3362 149.682 48.0629L149.05 46.1656C148.464 46.361 147.791 46.4658 147.022 46.4658V48.4658ZM149.682 48.0629C150.481 47.7968 151.221 47.4186 151.899 46.9292L150.729 45.3071C150.217 45.6771 149.658 45.9629 149.05 46.1656L149.682 48.0629ZM150.42 46.5654L151.577 48.8798L153.366 47.9854L152.209 45.6709L150.42 46.5654ZM151.827 47.6683C151.309 48.1052 150.62 48.4977 149.734 48.8289L150.434 50.7023C151.481 50.3109 152.384 49.8147 153.117 49.1969L151.827 47.6683ZM149.734 48.8289C148.903 49.1394 147.898 49.3076 146.7 49.3076V51.3076C148.08 51.3076 149.331 51.1145 150.434 50.7023L149.734 48.8289ZM143.185 41.5078H149.322V39.5078H143.185V41.5078ZM150.322 40.5078V40.127H148.322V40.5078H150.322ZM150.322 40.127C150.322 39.3323 150.199 38.5914 149.924 37.9272L148.076 38.6939C148.23 39.0649 148.322 39.5349 148.322 40.127H150.322ZM149.932 37.9481C149.656 37.2373 149.199 36.6561 148.565 36.2425L147.472 37.9177C147.736 38.09 147.934 38.3291 148.068 38.673L149.932 37.9481ZM148.573 36.248C147.927 35.8175 147.157 35.6406 146.334 35.6406V37.6406C146.878 37.6406 147.231 37.7567 147.464 37.9121L148.573 36.248ZM146.334 35.6406C145.539 35.6406 144.805 35.8666 144.172 36.3345L145.361 37.9428C145.626 37.7467 145.937 37.6406 146.334 37.6406V35.6406ZM144.172 36.3345C143.573 36.7774 143.113 37.3687 142.779 38.0722L144.586 38.9297C144.799 38.4809 145.062 38.164 145.361 37.9428L144.172 36.3345ZM142.776 38.0789C142.463 38.7504 142.259 39.4945 142.15 40.3007L144.132 40.5685C144.218 39.9293 144.374 39.3844 144.589 38.923L142.776 38.0789ZM142.283 40.9491L142.327 41.0223L144.042 39.9933L143.998 39.9201L142.283 40.9491ZM155.108 50H154.108V51H155.108V50ZM155.108 47.7441L154.912 46.7636L154.108 46.9243V47.7441H155.108ZM157.306 47.3047L157.502 48.2853L158.306 48.1245V47.3047H157.306ZM157.306 36.8604H158.306V36.0324L157.492 35.8779L157.306 36.8604ZM154.991 36.4209H153.991V37.2489L154.805 37.4033L154.991 36.4209ZM154.991 34.1504V33.1504H153.991V34.1504H154.991ZM160.704 34.1504L161.7 34.0552L161.613 33.1504H160.704V34.1504ZM160.895 36.1426L161.89 36.052L161.89 36.0474L160.895 36.1426ZM160.924 36.4648L159.928 36.5554L160.246 40.0562L161.818 36.9121L160.924 36.4648ZM162.462 34.5312L161.872 33.7236L161.866 33.7282L162.462 34.5312ZM165.479 33.9307L165.32 34.9179L165.325 34.9187L165.479 33.9307ZM166.241 34.0918L167.234 34.2153L167.338 33.3768L166.529 33.134L166.241 34.0918ZM165.816 37.5049L165.76 38.5033L166.693 38.5562L166.809 37.6284L165.816 37.5049ZM163.751 37.3877L163.693 38.386L163.694 38.3861L163.751 37.3877ZM162.081 37.7832L161.514 36.9596L161.505 36.9657L162.081 37.7832ZM160.997 39.043L160.119 38.5641L159.997 38.788V39.043H160.997ZM160.997 47.3047H159.997V48.1245L160.801 48.2853L160.997 47.3047ZM163.194 47.7441H164.194V46.9243L163.39 46.7636L163.194 47.7441ZM163.194 50V51H164.194V50H163.194ZM156.108 50V47.7441H154.108V50H156.108ZM155.305 48.7247L157.502 48.2853L157.11 46.3241L154.912 46.7636L155.305 48.7247ZM158.306 47.3047V36.8604H156.306V47.3047H158.306ZM157.492 35.8779L155.178 35.4385L154.805 37.4033L157.119 37.8428L157.492 35.8779ZM155.991 36.4209V34.1504H153.991V36.4209H155.991ZM154.991 35.1504H160.704V33.1504H154.991V35.1504ZM159.709 34.2455L159.899 36.2377L161.89 36.0474L161.7 34.0552L159.709 34.2455ZM159.899 36.2331L159.928 36.5554L161.92 36.3743L161.89 36.052L159.899 36.2331ZM161.818 36.9121C162.185 36.1789 162.606 35.6699 163.058 35.3343L161.866 33.7282C161.107 34.2911 160.503 35.0711 160.029 36.0176L161.818 36.9121ZM163.052 35.3389C163.482 35.0245 163.99 34.8574 164.615 34.8574V32.8574C163.6 32.8574 162.672 33.1396 161.872 33.7236L163.052 35.3389ZM164.615 34.8574C164.829 34.8574 165.064 34.8766 165.32 34.9179L165.639 32.9434C165.29 32.8871 164.948 32.8574 164.615 32.8574V34.8574ZM165.325 34.9187C165.614 34.9639 165.819 35.0092 165.954 35.0496L166.529 33.134C166.273 33.0572 165.97 32.9951 165.634 32.9427L165.325 34.9187ZM165.249 33.9683L164.824 37.3814L166.809 37.6284L167.234 34.2153L165.249 33.9683ZM165.873 36.5065L163.808 36.3893L163.694 38.3861L165.76 38.5033L165.873 36.5065ZM163.809 36.3894C162.973 36.3409 162.18 36.5006 161.514 36.9597L162.648 38.6067C162.861 38.4603 163.182 38.3564 163.693 38.386L163.809 36.3894ZM161.505 36.9657C160.931 37.3701 160.474 37.9145 160.119 38.5641L161.875 39.5218C162.107 39.0972 162.372 38.8018 162.657 38.6007L161.505 36.9657ZM159.997 39.043V47.3047H161.997V39.043H159.997ZM160.801 48.2853L162.998 48.7247L163.39 46.7636L161.193 46.3241L160.801 48.2853ZM162.194 47.7441V50H164.194V47.7441H162.194ZM163.194 49H155.108V51H163.194V49Z" fill="white" mask="url(#path-2-outside-1_1166_1351)"/>
</svg>
