<svg width="77" height="16" viewBox="0 0 77 16" fill="none" xmlns="http://www.w3.org/2000/svg">
<g clip-path="url(#clip0_1166_1639)">
<path d="M25.9585 3.67383H30.0742C31.0662 3.67383 31.9054 3.82861 32.5919 4.13817C33.2239 4.40387 33.7606 4.85486 34.1311 5.43168C34.478 6.0015 34.6558 6.65821 34.6437 7.32521C34.6514 7.99528 34.4667 8.65348 34.1115 9.22176C33.7154 9.82209 33.149 10.2904 32.4849 10.5665C31.7572 10.8982 30.8551 11.0635 29.7787 11.0625H25.9585V3.67383ZM29.7365 9.18256C30.4049 9.18256 30.9185 9.01572 31.2773 8.68204C31.4592 8.50561 31.6013 8.29234 31.6942 8.05652C31.787 7.8207 31.8283 7.56777 31.8155 7.31466C31.8267 7.07971 31.79 6.84494 31.7075 6.62464C31.6251 6.40434 31.4987 6.20311 31.3361 6.03321C31.0145 5.7136 30.5305 5.55329 29.8843 5.55229H28.5968V9.18256H29.7365Z" fill="black"/>
<path d="M40.8069 11.0497C40.2639 10.9137 39.7445 10.6967 39.2661 10.406V8.65416C39.6838 8.95793 40.154 9.18181 40.6531 9.31449C41.1991 9.48107 41.7663 9.5679 42.3371 9.57229C42.5341 9.5828 42.7309 9.54879 42.913 9.47278C43.0426 9.40645 43.1075 9.32203 43.1075 9.23459C43.1088 9.18573 43.1002 9.13711 43.082 9.09173C43.0639 9.04635 43.0366 9.00518 43.0019 8.97076C42.8815 8.87814 42.7402 8.81653 42.5904 8.79135L41.324 8.50642C40.5983 8.33757 40.0832 8.10389 39.7787 7.80539C39.6258 7.6512 39.5067 7.4669 39.4288 7.26421C39.3509 7.06152 39.3161 6.84485 39.3264 6.62796C39.3213 6.23489 39.4645 5.85433 39.7274 5.56209C40.0392 5.23234 40.4323 4.99055 40.8672 4.86106C41.4268 4.68515 42.0113 4.60114 42.5979 4.61231C43.1454 4.60717 43.6915 4.67099 44.2231 4.80227C44.6525 4.904 45.0648 5.06752 45.4472 5.28771V6.94606C45.0886 6.738 44.7031 6.58023 44.3015 6.4772C43.8663 6.36053 43.4177 6.30173 42.9673 6.30232C42.3059 6.30232 41.9753 6.41489 41.9753 6.64002C41.9742 6.69016 41.9879 6.7395 42.0147 6.78187C42.0415 6.82424 42.0802 6.85776 42.126 6.87822C42.3067 6.95504 42.496 7.00971 42.6899 7.04104L43.7452 7.231C44.4306 7.3516 44.9417 7.56267 45.2784 7.86419C45.6151 8.1657 45.7839 8.60692 45.7849 9.18785C45.7903 9.49332 45.7156 9.79488 45.5683 10.0625C45.421 10.3302 45.2062 10.5546 44.9452 10.7135C44.3894 11.0864 43.5959 11.2723 42.5647 11.2713C41.9717 11.2723 41.3811 11.1978 40.8069 11.0497Z" fill="black"/>
<path d="M48.2781 10.8284C47.7139 10.5692 47.2384 10.1498 46.9107 9.62235C46.6051 9.10514 46.4485 8.51343 46.4585 7.91274C46.4494 7.31241 46.6143 6.72229 46.9333 6.21369C47.2734 5.69456 47.7575 5.28589 48.3264 5.03777C49.018 4.7364 49.7672 4.59026 50.5214 4.60961C51.5767 4.60961 52.4526 4.83123 53.1491 5.27446V7.2087C52.8842 7.03057 52.5947 6.89192 52.2898 6.79712C51.9485 6.68938 51.5924 6.63596 51.2345 6.63883C50.5802 6.63883 50.0681 6.75843 49.6983 6.99763C49.532 7.09043 49.3933 7.2256 49.2962 7.38941C49.1992 7.55322 49.1472 7.73982 49.1457 7.93022C49.1442 8.12061 49.1931 8.30802 49.2875 8.47337C49.3819 8.63872 49.5184 8.77611 49.6832 8.87157C50.042 9.11379 50.5626 9.2349 51.2451 9.2349C51.5973 9.23574 51.9478 9.18495 52.2853 9.08414C52.5932 8.99586 52.8889 8.86977 53.1657 8.70875V10.5782C52.35 11.0538 51.4187 11.2948 50.4747 11.2747C49.718 11.2953 48.9667 11.1427 48.2781 10.8284Z" fill="black"/>
<path d="M55.7772 10.829C55.2067 10.5685 54.7227 10.1499 54.3827 9.6229C54.0622 9.10691 53.8959 8.51009 53.9033 7.90274C53.893 7.30258 54.0598 6.71269 54.3827 6.2067C54.7245 5.69308 55.2064 5.28815 55.7712 5.03982C57.1585 4.47696 58.7106 4.47696 60.098 5.03982C60.6605 5.28625 61.1404 5.6892 61.4804 6.20067C61.8012 6.70853 61.9663 7.29916 61.9553 7.89972C61.9628 8.50647 61.7981 9.10291 61.4804 9.61988C61.1441 10.1473 60.6624 10.5661 60.0934 10.826C59.4115 11.1184 58.6773 11.2692 57.9353 11.2692C57.1934 11.2692 56.4591 11.1184 55.7772 10.826V10.829ZM58.9839 8.95654C59.1142 8.82194 59.2157 8.6621 59.2821 8.48685C59.3485 8.31159 59.3783 8.12462 59.3698 7.93741C59.3789 7.75195 59.3493 7.56663 59.2829 7.39324C59.2164 7.21986 59.1146 7.06221 58.9839 6.93034C58.8421 6.80029 58.6756 6.70005 58.4943 6.63557C58.313 6.57109 58.1206 6.54367 57.9285 6.55495C57.7366 6.54486 57.5445 6.57283 57.3634 6.63725C57.1823 6.70168 57.0157 6.80128 56.8732 6.93034C56.743 7.0625 56.6416 7.22023 56.5754 7.39357C56.5093 7.56691 56.4798 7.75209 56.4888 7.93741C56.4803 8.12448 56.5101 8.31132 56.5762 8.48653C56.6423 8.66174 56.7433 8.82166 56.8732 8.95654C57.0143 9.08821 57.1805 9.19011 57.3618 9.25616C57.5431 9.32221 57.7358 9.35105 57.9285 9.34098C58.1214 9.3522 58.3144 9.32388 58.4959 9.25777C58.6774 9.19166 58.8434 9.08916 58.9839 8.95654Z" fill="black"/>
<path d="M68.2976 4.99959V7.28208C67.9825 7.09408 67.6194 7.00237 67.2528 7.01826C66.6905 7.01826 66.2563 7.19012 65.9548 7.53084C65.6533 7.87155 65.5025 8.40072 65.5025 9.11833V11.0601H62.917V4.88652H65.4497V6.84639C65.5905 6.12878 65.8176 5.59961 66.1312 5.2589C66.2832 5.09136 66.4698 4.95877 66.678 4.87028C66.8862 4.78179 67.1111 4.7395 67.3372 4.74632C67.675 4.7371 68.0083 4.82501 68.2976 4.99959Z" fill="black"/>
<path d="M76.8877 3.46289V11.0611H74.3021V9.67417C74.1072 10.1679 73.7569 10.5849 73.3041 10.8621C72.8043 11.1469 72.2358 11.2888 71.6609 11.2722C71.1198 11.2848 70.5872 11.1363 70.1306 10.8456C69.6886 10.5584 69.3364 10.1524 69.1145 9.67417C68.8725 9.14629 68.7519 8.57083 68.7618 7.99019C68.7447 7.38816 68.873 6.79089 69.1356 6.24892C69.3771 5.75251 69.7539 5.33442 70.2226 5.04285C70.7044 4.75094 71.2589 4.60096 71.8222 4.61017C73.0524 4.61017 73.879 5.14486 74.3021 6.21424V3.46289H76.8877ZM73.9222 8.92037C74.054 8.79067 74.1573 8.63494 74.2256 8.46311C74.2939 8.29128 74.3256 8.10711 74.3187 7.92234C74.3243 7.74311 74.2919 7.56473 74.2235 7.39894C74.1552 7.23315 74.0525 7.08372 73.9222 6.9605C73.6264 6.71967 73.2567 6.58818 72.8752 6.58818C72.4938 6.58818 72.124 6.71967 71.8282 6.9605C71.6983 7.08655 71.5963 7.23856 71.5291 7.40662C71.4618 7.57468 71.4307 7.75502 71.4377 7.93591C71.4311 8.1185 71.4628 8.30044 71.5309 8.47001C71.5989 8.63958 71.7017 8.793 71.8327 8.92037C71.9712 9.04912 72.1341 9.14892 72.3116 9.2139C72.4892 9.27888 72.678 9.30774 72.8669 9.29877C73.0592 9.3094 73.2516 9.28138 73.4329 9.21639C73.6141 9.1514 73.7805 9.05074 73.9222 8.92037Z" fill="black"/>
<path d="M16.4379 1.84504C15.1786 1.26849 13.8491 0.859468 12.4835 0.628418C12.2966 0.962482 12.1275 1.30619 11.9769 1.6581C10.5223 1.4389 9.04301 1.4389 7.58835 1.6581C7.43768 1.30623 7.2686 0.962523 7.0818 0.628418C5.7153 0.861419 4.38497 1.27141 3.12438 1.84806C0.621775 5.5507 -0.0566406 9.16138 0.282567 12.7208C1.74815 13.8036 3.38856 14.6272 5.13249 15.1556C5.52517 14.6274 5.87264 14.0671 6.17122 13.4806C5.60411 13.2688 5.05675 13.0075 4.53548 12.6997C4.67267 12.6002 4.80685 12.4977 4.9365 12.3982C6.45328 13.1115 8.10877 13.4813 9.78491 13.4813C11.461 13.4813 13.1165 13.1115 14.6333 12.3982C14.7645 12.5052 14.8987 12.6077 15.0343 12.6997C14.5121 13.008 13.9637 13.2698 13.3956 13.4821C13.6938 14.0684 14.0413 14.6282 14.4343 15.1556C16.1797 14.6293 17.8214 13.8062 19.2873 12.7223C19.6853 8.59453 18.6073 5.01701 16.4379 1.84504ZM6.60088 10.5318C5.65562 10.5318 4.87469 9.67396 4.87469 8.61865C4.87469 7.56334 5.62848 6.69798 6.59787 6.69798C7.56725 6.69798 8.34215 7.56334 8.32556 8.61865C8.30898 9.67396 7.56423 10.5318 6.60088 10.5318ZM12.9689 10.5318C12.0222 10.5318 11.2443 9.67396 11.2443 8.61865C11.2443 7.56334 11.9981 6.69798 12.9689 6.69798C13.9398 6.69798 14.7087 7.56334 14.6921 8.61865C14.6755 9.67396 13.9323 10.5318 12.9689 10.5318Z" fill="black"/>
<path d="M36.8237 5.54418C37.5355 5.54418 38.1126 5.0258 38.1126 4.38635C38.1126 3.74689 37.5355 3.22852 36.8237 3.22852C36.1118 3.22852 35.5347 3.74689 35.5347 4.38635C35.5347 5.0258 36.1118 5.54418 36.8237 5.54418Z" fill="black"/>
<path d="M35.5332 6.34229C35.9415 6.5139 36.38 6.6023 36.8229 6.6023C37.2659 6.6023 37.7044 6.5139 38.1127 6.34229V11.0942H35.5332V6.34229Z" fill="black"/>
</g>
<defs>
<clipPath id="clip0_1166_1639">
<rect width="76.6866" height="14.5271" fill="white" transform="translate(0.201172 0.628418)"/>
</clipPath>
</defs>
</svg>
