<svg width="108" height="20" viewBox="0 0 108 20" fill="none" xmlns="http://www.w3.org/2000/svg">
<path d="M75.916 9.61868V9.10151H75.953C76.1418 9.10151 76.31 9.08099 76.4578 9.03995C76.6138 8.9989 76.7369 8.91681 76.8272 8.79368C76.9175 8.66233 76.9627 8.46942 76.9627 8.21494V4.37313C76.9627 4.12686 76.9134 3.94626 76.8149 3.83133C76.7246 3.7082 76.6015 3.63021 76.4455 3.59738C76.2977 3.55633 76.1335 3.53581 75.953 3.53581H75.916V3.01864H77.8123L78.0462 4.23768H78.1078C78.2145 3.99141 78.3295 3.76566 78.4526 3.56044C78.5757 3.35521 78.7399 3.19514 78.9451 3.08021C79.1504 2.95708 79.4336 2.89551 79.7948 2.89551C80.2463 2.89551 80.5787 2.97349 80.7922 3.12946C81.0138 3.28544 81.1246 3.50708 81.1246 3.79439C81.1246 4.04887 81.0343 4.2582 80.8537 4.42238C80.6813 4.58656 80.3899 4.66865 79.9795 4.66865C79.9795 4.4388 79.9589 4.2541 79.9179 4.11454C79.8769 3.97499 79.8071 3.87238 79.7086 3.80671C79.6183 3.74103 79.491 3.7082 79.3269 3.7082C79.097 3.7082 78.9041 3.7985 78.7481 3.9791C78.5921 4.15969 78.469 4.38955 78.3787 4.66865C78.2884 4.94776 78.2227 5.23918 78.1817 5.54291C78.1407 5.83843 78.1201 6.10523 78.1201 6.34329V8.27651C78.1201 8.51457 78.1653 8.69517 78.2556 8.8183C78.3541 8.93323 78.4772 9.01121 78.625 9.05226C78.781 9.08509 78.9492 9.10151 79.1298 9.10151H79.4746V9.61868H75.916Z" fill="black"/>
<path d="M72.4539 9.74182C71.5591 9.74182 70.8572 9.44629 70.3483 8.85524C69.8475 8.26419 69.5972 7.43509 69.5972 6.36792C69.5972 5.21866 69.8352 4.35261 70.3114 3.76977C70.7875 3.18693 71.4606 2.89551 72.3308 2.89551C73.127 2.89551 73.7509 3.14178 74.2024 3.63432C74.6621 4.12686 74.892 4.86156 74.892 5.83844V6.40486H70.7916C70.808 7.00411 70.886 7.49255 71.0255 7.87016C71.1651 8.24778 71.3662 8.52688 71.6289 8.70748C71.8998 8.87987 72.2323 8.96607 72.6263 8.96607C72.9136 8.96607 73.1681 8.92502 73.3897 8.84293C73.6196 8.76084 73.8166 8.65412 73.9808 8.52278C74.1532 8.39144 74.2886 8.25188 74.3871 8.10412C74.4446 8.12875 74.4979 8.178 74.5472 8.25188C74.5964 8.32576 74.6211 8.41606 74.6211 8.52278C74.6211 8.68696 74.5431 8.86345 74.3871 9.05226C74.2311 9.24107 73.9931 9.40525 73.6729 9.5448C73.3528 9.67614 72.9464 9.74182 72.4539 9.74182ZM73.6483 5.73993C73.6483 5.30485 73.6032 4.92313 73.5129 4.59477C73.4308 4.26641 73.2912 4.01193 73.0942 3.83133C72.8972 3.65074 72.6345 3.56044 72.3061 3.56044C72.0024 3.56044 71.7438 3.64663 71.5304 3.81902C71.3252 3.9832 71.161 4.22537 71.0378 4.54552C70.9229 4.86567 70.849 5.2638 70.8162 5.73993H73.6483Z" fill="black"/>
<path d="M64.5456 9.74165C64.0039 9.74165 63.5441 9.62262 63.1665 9.38456C62.7971 9.1465 62.5139 8.77709 62.3169 8.27635C62.1281 7.76739 62.0337 7.11888 62.0337 6.33081C62.0337 5.53454 62.1281 4.88603 62.3169 4.38528C62.5139 3.87632 62.7971 3.50281 63.1665 3.26475C63.5441 3.01848 64.0039 2.89534 64.5456 2.89534C65.0218 2.89534 65.4076 2.99796 65.7031 3.20318C66.0068 3.4002 66.249 3.65878 66.4296 3.97893H66.5035C66.4871 3.83938 66.4707 3.69162 66.4542 3.53565C66.446 3.37967 66.4378 3.2237 66.4296 3.06773C66.4296 2.90355 66.4296 2.75579 66.4296 2.62445V1.61474C66.4296 1.36847 66.3804 1.18787 66.2819 1.07295C66.1916 0.94981 66.0684 0.871825 65.9124 0.838988C65.7647 0.797943 65.6005 0.777421 65.4199 0.777421H65.3214V0.260254H67.5871V8.26403C67.5871 8.50209 67.6322 8.68269 67.7225 8.80583C67.821 8.92896 67.9442 9.01105 68.0919 9.0521C68.2479 9.08493 68.4162 9.10135 68.5968 9.10135H68.6953V9.61852H66.6143L66.4789 8.5103H66.4296C66.249 8.88792 66.011 9.18754 65.7154 9.40919C65.4199 9.63083 65.03 9.74165 64.5456 9.74165ZM64.755 8.95359C65.3953 8.95359 65.8345 8.74015 66.0725 8.31328C66.3106 7.87821 66.4296 7.21738 66.4296 6.33081C66.4296 5.75618 66.3763 5.27595 66.2695 4.89013C66.171 4.4961 65.9986 4.19647 65.7524 3.99125C65.5143 3.78602 65.1777 3.68341 64.7427 3.68341C64.3815 3.68341 64.09 3.78602 63.8684 3.99125C63.6468 4.19647 63.4826 4.4961 63.3759 4.89013C63.2774 5.28416 63.2281 5.76849 63.2281 6.34312C63.2281 6.92596 63.2774 7.4103 63.3759 7.79612C63.4826 8.18194 63.6468 8.47336 63.8684 8.67038C64.0983 8.85918 64.3938 8.95359 64.755 8.95359Z" fill="black"/>
<path d="M57.6958 9.61852V9.10135H57.8559C58.0365 9.10135 58.2007 9.08493 58.3484 9.05209C58.5044 9.01105 58.6275 8.93306 58.7178 8.81814C58.8163 8.695 58.8656 8.51441 58.8656 8.27634V4.37296C58.8656 4.12669 58.8163 3.9461 58.7178 3.83117C58.6275 3.70803 58.5044 3.63005 58.3484 3.59721C58.2007 3.55617 58.0365 3.53565 57.8559 3.53565H57.8189V3.01848H60.0231V8.21478C60.0231 8.46926 60.0682 8.66217 60.1585 8.79351C60.2488 8.91665 60.3719 8.99874 60.5279 9.03978C60.6839 9.08083 60.8522 9.10135 61.0328 9.10135H61.1928V9.61852H57.6958ZM59.3951 1.78713C59.198 1.78713 59.0298 1.72967 58.8902 1.61474C58.7589 1.49981 58.6932 1.3028 58.6932 1.02369C58.6932 0.736376 58.7589 0.53936 58.8902 0.432643C59.0298 0.317717 59.198 0.260254 59.3951 0.260254C59.5839 0.260254 59.748 0.317717 59.8876 0.432643C60.0272 0.53936 60.0969 0.736376 60.0969 1.02369C60.0969 1.3028 60.0272 1.49981 59.8876 1.61474C59.748 1.72967 59.5839 1.78713 59.3951 1.78713Z" fill="black"/>
<path d="M54.4429 9.74122C54.0324 9.74122 53.6753 9.69197 53.3716 9.59346C53.0679 9.49495 52.8298 9.35129 52.6574 9.16249C52.4932 8.96547 52.4111 8.7233 52.4111 8.43599C52.4111 8.21435 52.4563 8.04196 52.5466 7.91882C52.6369 7.79569 52.7395 7.70949 52.8544 7.66024C52.9776 7.61098 53.0884 7.58636 53.1869 7.58636C53.1869 7.87367 53.2279 8.13636 53.31 8.37442C53.3921 8.61248 53.5317 8.80129 53.7287 8.94084C53.9257 9.0804 54.1884 9.15017 54.5167 9.15017C54.9518 9.15017 55.2843 9.04756 55.5141 8.84234C55.7522 8.6289 55.8712 8.358 55.8712 8.02964C55.8712 7.82442 55.8261 7.65613 55.7358 7.52479C55.6537 7.39345 55.5018 7.26621 55.2802 7.14307C55.0667 7.01173 54.7589 6.85986 54.3567 6.68747C53.938 6.49866 53.5891 6.31807 53.31 6.14568C53.0391 5.96508 52.8339 5.75985 52.6943 5.53C52.563 5.29194 52.4973 4.99642 52.4973 4.64343C52.4973 4.08522 52.7067 3.65835 53.1253 3.36283C53.5522 3.05909 54.1145 2.90723 54.8123 2.90723C55.2063 2.90723 55.5347 2.96059 55.7973 3.0673C56.0682 3.16581 56.2694 3.30126 56.4007 3.47365C56.5403 3.64604 56.61 3.83484 56.61 4.04007C56.61 4.26171 56.5321 4.44231 56.3761 4.58186C56.2283 4.71321 56.0108 4.77888 55.7235 4.77888C55.7235 4.36843 55.6373 4.04828 55.4649 3.81843C55.2925 3.58857 55.0257 3.47365 54.6645 3.47365C54.3854 3.47365 54.1596 3.51469 53.9873 3.59678C53.8149 3.67887 53.6876 3.7938 53.6055 3.94156C53.5317 4.08932 53.4947 4.26171 53.4947 4.45873C53.4947 4.66395 53.544 4.83634 53.6425 4.97589C53.7492 5.11545 53.9134 5.24679 54.135 5.36993C54.3649 5.48485 54.6604 5.6162 55.0216 5.76396C55.4567 5.94456 55.8097 6.12515 56.0806 6.30575C56.3515 6.48635 56.5485 6.69568 56.6716 6.93374C56.8029 7.1718 56.8686 7.46322 56.8686 7.808C56.8686 8.4483 56.647 8.93263 56.2037 9.26099C55.7604 9.58115 55.1735 9.74122 54.4429 9.74122Z" fill="black"/>
<path d="M44.2651 9.61868V9.10151H44.3636C44.5525 9.10151 44.7207 9.08099 44.8685 9.03995C45.0245 8.9989 45.1476 8.91681 45.2379 8.79368C45.3282 8.66233 45.3734 8.46942 45.3734 8.21494V4.37313C45.3734 4.12686 45.3282 3.94626 45.2379 3.83133C45.1476 3.7082 45.0286 3.63021 44.8808 3.59738C44.7331 3.55633 44.5689 3.53581 44.3883 3.53581H44.3267V3.01864H46.3215L46.4816 4.01604H46.5431C46.7155 3.70409 46.8961 3.47014 47.0849 3.31417C47.2819 3.14999 47.4954 3.03917 47.7252 2.9817C47.9551 2.92424 48.2014 2.89551 48.464 2.89551C49.1126 2.89551 49.6174 3.08842 49.9786 3.47424C50.348 3.85186 50.5327 4.46343 50.5327 5.30895V8.21494C50.5327 8.46942 50.5697 8.66233 50.6435 8.79368C50.7256 8.91681 50.8364 8.9989 50.976 9.03995C51.1155 9.08099 51.2756 9.10151 51.4562 9.10151H51.5178V9.61868H49.3752V5.37052C49.3752 4.83694 49.2726 4.42238 49.0674 4.12686C48.8704 3.83133 48.5215 3.68357 48.0208 3.68357C47.6513 3.68357 47.3558 3.77798 47.1342 3.96678C46.9208 4.14738 46.7648 4.38955 46.6663 4.69328C46.576 4.99701 46.5308 5.32537 46.5308 5.67836V8.27651C46.5308 8.51457 46.576 8.69517 46.6663 8.8183C46.7566 8.93323 46.8756 9.01121 47.0234 9.05226C47.1711 9.08509 47.3353 9.10151 47.5159 9.10151H47.5775V9.61868H44.2651Z" fill="black"/>
<path d="M39.8667 9.6185V9.10133H40.0268C40.2156 9.10133 40.3839 9.08081 40.5316 9.03977C40.6876 8.99872 40.8107 8.91663 40.901 8.7935C40.9913 8.66215 41.0365 8.46924 41.0365 8.21476V2.2304C41.0365 1.96771 40.9913 1.7748 40.901 1.65167C40.8107 1.52853 40.6876 1.44644 40.5316 1.40539C40.3839 1.36435 40.2156 1.34383 40.0268 1.34383H39.8667V0.82666H43.4499V1.34383H43.2899C43.1093 1.34383 42.941 1.36435 42.785 1.40539C42.629 1.44644 42.5059 1.52853 42.4156 1.65167C42.3253 1.7748 42.2801 1.96771 42.2801 2.2304V8.21476C42.2801 8.46924 42.3253 8.66215 42.4156 8.7935C42.5059 8.91663 42.629 8.99872 42.785 9.03977C42.941 9.08081 43.1093 9.10133 43.2899 9.10133H43.4499V9.6185H39.8667Z" fill="black"/>
<path d="M33.1448 9.74182C32.25 9.74182 31.5482 9.44629 31.0392 8.85524C30.5385 8.26419 30.2881 7.43509 30.2881 6.36792C30.2881 5.21866 30.5261 4.35261 31.0023 3.76977C31.4784 3.18693 32.1515 2.89551 33.0217 2.89551C33.818 2.89551 34.4418 3.14178 34.8933 3.63432C35.353 4.12686 35.5829 4.86156 35.5829 5.83844V6.40486H31.4825C31.4989 7.00411 31.5769 7.49255 31.7165 7.87016C31.856 8.24778 32.0571 8.52688 32.3198 8.70748C32.5907 8.87987 32.9232 8.96607 33.3172 8.96607C33.6045 8.96607 33.859 8.92502 34.0806 8.84293C34.3105 8.76084 34.5075 8.65412 34.6717 8.52278C34.8441 8.39144 34.9795 8.25188 35.078 8.10412C35.1355 8.12875 35.1889 8.178 35.2381 8.25188C35.2874 8.32576 35.312 8.41606 35.312 8.52278C35.312 8.68696 35.234 8.86345 35.078 9.05226C34.9221 9.24107 34.684 9.40525 34.3639 9.5448C34.0437 9.67614 33.6374 9.74182 33.1448 9.74182ZM34.3392 5.73993C34.3392 5.30485 34.2941 4.92313 34.2038 4.59477C34.1217 4.26641 33.9821 4.01193 33.7851 3.83133C33.5881 3.65074 33.3254 3.56044 32.9971 3.56044C32.6933 3.56044 32.4347 3.64663 32.2213 3.81902C32.0161 3.9832 31.8519 4.22537 31.7288 4.54552C31.6138 4.86567 31.54 5.2638 31.5071 5.73993H34.3392Z" fill="black"/>
<path d="M18.3154 9.61868V9.10151H18.4755C18.6643 9.10151 18.8285 9.08099 18.968 9.03995C19.1076 8.9989 19.2184 8.91681 19.3005 8.79368C19.3826 8.66233 19.4236 8.46942 19.4236 8.21494V4.37313C19.4236 4.12686 19.3826 3.94626 19.3005 3.83133C19.2184 3.7082 19.1035 3.63021 18.9557 3.59738C18.8162 3.55633 18.6561 3.53581 18.4755 3.53581H18.4386V3.01864H20.3718L20.5319 4.01604H20.5934C20.7576 3.70409 20.9341 3.47014 21.1229 3.31417C21.3117 3.14999 21.5169 3.03917 21.7386 2.9817C21.9602 2.92424 22.1983 2.89551 22.4528 2.89551C22.7155 2.89551 22.9617 2.93245 23.1916 3.00633C23.4296 3.08021 23.639 3.19924 23.8196 3.36342C24.0002 3.51939 24.1397 3.73693 24.2382 4.01604H24.3367C24.5009 3.70409 24.6815 3.47014 24.8785 3.31417C25.0838 3.14999 25.3013 3.03917 25.5311 2.9817C25.7692 2.92424 26.0155 2.89551 26.27 2.89551C26.902 2.89551 27.3946 3.08842 27.7476 3.47424C28.1006 3.85186 28.2771 4.46343 28.2771 5.30895V8.21494C28.2771 8.46942 28.3181 8.66233 28.4002 8.79368C28.4823 8.91681 28.5931 8.9989 28.7327 9.03995C28.8804 9.08099 29.0446 9.10151 29.2252 9.10151H29.2621V9.61868H27.1196V5.37052C27.1196 4.83694 27.0211 4.42238 26.8241 4.12686C26.6353 3.83133 26.3028 3.68357 25.8267 3.68357C25.4901 3.68357 25.2192 3.76977 25.014 3.94216C24.817 4.10634 24.6733 4.32798 24.583 4.60708C24.5009 4.88619 24.4599 5.18992 24.4599 5.51828V8.21494C24.4599 8.46942 24.5009 8.66233 24.583 8.79368C24.6651 8.91681 24.7759 8.9989 24.9155 9.03995C25.0632 9.08099 25.2274 9.10151 25.408 9.10151H25.4449V9.61868H23.3024V5.37052C23.3024 4.83694 23.2039 4.42238 23.0069 4.12686C22.8181 3.83133 22.4856 3.68357 22.0095 3.68357C21.6565 3.68357 21.3733 3.77798 21.1598 3.96678C20.9546 4.14738 20.8069 4.38955 20.7166 4.69328C20.6263 4.99701 20.5811 5.32537 20.5811 5.67836V8.27651C20.5811 8.51457 20.6263 8.69517 20.7166 8.8183C20.8151 8.93323 20.9382 9.01121 21.086 9.05226C21.2419 9.08509 21.4102 9.10151 21.5908 9.10151H21.6278V9.61868H18.3154Z" fill="black"/>
<path d="M14.9148 9.74182C14.0201 9.74182 13.3182 9.44629 12.8092 8.85524C12.3085 8.26419 12.0581 7.43509 12.0581 6.36792C12.0581 5.21866 12.2962 4.35261 12.7723 3.76977C13.2484 3.18693 13.9215 2.89551 14.7917 2.89551C15.588 2.89551 16.2119 3.14178 16.6634 3.63432C17.1231 4.12686 17.3529 4.86156 17.3529 5.83844V6.40486H13.2525C13.2689 7.00411 13.3469 7.49255 13.4865 7.87016C13.626 8.24778 13.8271 8.52688 14.0898 8.70748C14.3607 8.87987 14.6932 8.96607 15.0872 8.96607C15.3745 8.96607 15.629 8.92502 15.8507 8.84293C16.0805 8.76084 16.2775 8.65412 16.4417 8.52278C16.6141 8.39144 16.7496 8.25188 16.8481 8.10412C16.9055 8.12875 16.9589 8.178 17.0081 8.25188C17.0574 8.32576 17.082 8.41606 17.082 8.52278C17.082 8.68696 17.004 8.86345 16.8481 9.05226C16.6921 9.24107 16.454 9.40525 16.1339 9.5448C15.8137 9.67614 15.4074 9.74182 14.9148 9.74182ZM16.1092 5.73993C16.1092 5.30485 16.0641 4.92313 15.9738 4.59477C15.8917 4.26641 15.7522 4.01193 15.5551 3.83133C15.3581 3.65074 15.0954 3.56044 14.7671 3.56044C14.4633 3.56044 14.2048 3.64663 13.9913 3.81902C13.7861 3.9832 13.6219 4.22537 13.4988 4.54552C13.3839 4.86567 13.31 5.2638 13.2771 5.73993H16.1092Z" fill="black"/>
<path d="M0.292969 9.6185V9.10133H0.453044C0.633642 9.10133 0.797822 9.08492 0.945584 9.05208C1.10156 9.01104 1.22469 8.93305 1.31499 8.81812C1.4135 8.69499 1.46275 8.51439 1.46275 8.27633V2.18115C1.46275 1.93488 1.4135 1.75428 1.31499 1.63935C1.22469 1.51622 1.10156 1.43823 0.945584 1.40539C0.797822 1.36435 0.633642 1.34383 0.453044 1.34383H0.292969V0.82666H3.10045L5.64934 7.86998L8.17361 0.82666H10.9072V1.34383H10.7471C10.5665 1.34383 10.3983 1.36435 10.2423 1.40539C10.0863 1.44644 9.96317 1.52853 9.87287 1.65167C9.78258 1.7748 9.73743 1.96771 9.73743 2.2304V8.21476C9.73743 8.46924 9.78258 8.66215 9.87287 8.7935C9.96317 8.91663 10.0863 8.99872 10.2423 9.03977C10.3983 9.08081 10.5665 9.10133 10.7471 9.10133H10.9072V9.6185H7.63182V9.10133H7.66876C7.84936 9.10133 8.00122 9.08492 8.12436 9.05208C8.2557 9.01104 8.35831 8.93715 8.43219 8.83044C8.50607 8.71551 8.54712 8.54723 8.55533 8.32558V1.75017L5.73554 9.6185H5.07061L2.21388 1.7748V8.21476C2.21388 8.46924 2.24671 8.66215 2.31238 8.7935C2.38626 8.91663 2.48888 8.99872 2.62022 9.03977C2.75977 9.08081 2.91985 9.10133 3.10045 9.10133H3.13739V9.6185H0.292969Z" fill="black"/>
<path d="M103.396 17.7993V17.4976H103.453C103.564 17.4976 103.662 17.4856 103.748 17.4617C103.839 17.4378 103.911 17.3899 103.963 17.318C104.016 17.2414 104.042 17.1289 104.042 16.9804V14.7394C104.042 14.5957 104.016 14.4904 103.963 14.4233C103.911 14.3515 103.841 14.306 103.755 14.2869C103.669 14.2629 103.573 14.251 103.468 14.251H103.432V13.9493H104.596L104.689 14.5311H104.725C104.825 14.3491 104.931 14.2126 105.041 14.1217C105.156 14.0259 105.28 13.9612 105.414 13.9277C105.548 13.8942 105.692 13.8774 105.845 13.8774C106.224 13.8774 106.518 13.99 106.729 14.215C106.944 14.4353 107.052 14.7921 107.052 15.2853V16.9804C107.052 17.1289 107.074 17.2414 107.117 17.318C107.165 17.3899 107.229 17.4378 107.311 17.4617C107.392 17.4856 107.485 17.4976 107.591 17.4976H107.627V17.7993H106.377V15.3212C106.377 15.0099 106.317 14.7681 106.197 14.5957C106.082 14.4233 105.879 14.3371 105.587 14.3371C105.371 14.3371 105.199 14.3922 105.07 14.5024C104.945 14.6077 104.854 14.749 104.797 14.9261C104.744 15.1033 104.718 15.2949 104.718 15.5008V17.0164C104.718 17.1552 104.744 17.2606 104.797 17.3324C104.849 17.3994 104.919 17.4449 105.005 17.4689C105.091 17.488 105.187 17.4976 105.292 17.4976H105.328V17.7993H103.396Z" fill="black"/>
<path d="M101.111 17.8711C100.594 17.8711 100.187 17.7059 99.8897 17.3755C99.5928 17.0451 99.4443 16.5423 99.4443 15.8671C99.4443 15.1967 99.5856 14.6987 99.8681 14.3731C100.155 14.0426 100.577 13.8774 101.132 13.8774C101.649 13.8774 102.057 14.0426 102.353 14.3731C102.65 14.6987 102.799 15.1967 102.799 15.8671C102.799 16.5423 102.655 17.0451 102.368 17.3755C102.085 17.7059 101.666 17.8711 101.111 17.8711ZM101.125 17.4976C101.365 17.4976 101.556 17.4378 101.7 17.318C101.843 17.1935 101.946 17.0092 102.009 16.765C102.071 16.5207 102.102 16.2215 102.102 15.8671C102.102 15.508 102.068 15.2111 102.001 14.9764C101.939 14.737 101.836 14.5574 101.693 14.4377C101.549 14.318 101.357 14.2581 101.118 14.2581C100.879 14.2581 100.687 14.318 100.543 14.4377C100.4 14.5574 100.297 14.737 100.234 14.9764C100.172 15.2111 100.141 15.508 100.141 15.8671C100.141 16.2215 100.172 16.5207 100.234 16.765C100.301 17.0092 100.407 17.1935 100.55 17.318C100.694 17.4378 100.886 17.4976 101.125 17.4976Z" fill="black"/>
<path d="M96.9136 17.7993V17.4976H97.0069C97.1123 17.4976 97.2081 17.4881 97.2943 17.4689C97.3852 17.445 97.4571 17.3995 97.5097 17.3324C97.5672 17.2606 97.5959 17.1553 97.5959 17.0164V14.7394C97.5959 14.5958 97.5672 14.4904 97.5097 14.4234C97.4571 14.3515 97.3852 14.306 97.2943 14.2869C97.2081 14.2629 97.1123 14.251 97.0069 14.251H96.9854V13.9493H98.2711V16.9805C98.2711 17.1289 98.2975 17.2414 98.3501 17.3181C98.4028 17.3899 98.4747 17.4378 98.5656 17.4617C98.6566 17.4857 98.7548 17.4976 98.8601 17.4976H98.9535V17.7993H96.9136ZM97.9048 13.231C97.7899 13.231 97.6917 13.1975 97.6103 13.1304C97.5337 13.0634 97.4954 12.9485 97.4954 12.7857C97.4954 12.6181 97.5337 12.5031 97.6103 12.4409C97.6917 12.3739 97.7899 12.3403 97.9048 12.3403C98.0149 12.3403 98.1107 12.3739 98.1921 12.4409C98.2735 12.5031 98.3142 12.6181 98.3142 12.7857C98.3142 12.9485 98.2735 13.0634 98.1921 13.1304C98.1107 13.1975 98.0149 13.231 97.9048 13.231Z" fill="black"/>
<path d="M95.9468 17.8713C95.5829 17.8713 95.3171 17.7899 95.1495 17.627C94.9867 17.4594 94.9053 17.1697 94.9053 16.7579V14.3588H94.3594V14.0715C94.4456 14.0715 94.5413 14.0548 94.6467 14.0212C94.752 13.9829 94.843 13.9231 94.9196 13.8417C95.001 13.7555 95.0681 13.6501 95.1208 13.5256C95.1734 13.4011 95.2165 13.2479 95.25 13.0659H95.5805V13.9494H96.5214V14.3588H95.5805V16.7795C95.5805 17.0237 95.6307 17.2033 95.7313 17.3182C95.8319 17.4331 95.9636 17.4906 96.1264 17.4906C96.2126 17.4906 96.2916 17.4858 96.3634 17.4762C96.4352 17.4666 96.5094 17.4547 96.5861 17.4403V17.7563C96.5238 17.7851 96.4304 17.8114 96.3059 17.8353C96.1814 17.8593 96.0617 17.8713 95.9468 17.8713Z" fill="black"/>
<path d="M91.648 17.8711C91.4373 17.8711 91.2458 17.8304 91.0734 17.749C90.9058 17.6628 90.7741 17.5359 90.6783 17.3683C90.5826 17.1959 90.5347 16.9804 90.5347 16.7219C90.5347 16.3388 90.6687 16.0562 90.9369 15.8743C91.2099 15.6923 91.6217 15.5918 92.1724 15.5726L92.7685 15.5511V15.1201C92.7685 14.9477 92.7542 14.7968 92.7254 14.6676C92.6967 14.5335 92.6345 14.4281 92.5387 14.3515C92.4429 14.2749 92.2969 14.2366 92.1005 14.2366C91.9186 14.2366 91.7797 14.2701 91.6839 14.3371C91.5882 14.4042 91.5235 14.4976 91.49 14.6173C91.4613 14.7322 91.4469 14.8663 91.4469 15.0195C91.2458 15.0195 91.0925 14.986 90.9872 14.919C90.8866 14.8471 90.8363 14.7298 90.8363 14.567C90.8363 14.3994 90.8938 14.2653 91.0087 14.1648C91.1285 14.0642 91.2865 13.9924 91.4828 13.9493C91.6791 13.9014 91.8946 13.8774 92.1293 13.8774C92.5698 13.8774 92.8978 13.9708 93.1133 14.1576C93.3336 14.3443 93.4437 14.6652 93.4437 15.1201V16.9804C93.4437 17.1145 93.4581 17.2199 93.4868 17.2965C93.5156 17.3683 93.5634 17.421 93.6305 17.4545C93.6975 17.4832 93.7837 17.4976 93.8891 17.4976H93.9106V17.7993H92.9409L92.826 17.1816H92.7685C92.668 17.3156 92.5698 17.4354 92.474 17.5407C92.3783 17.6413 92.2657 17.7227 92.1365 17.7849C92.012 17.8424 91.8491 17.8711 91.648 17.8711ZM91.8132 17.4258C92.0096 17.4258 92.1772 17.3851 92.316 17.3037C92.4597 17.2223 92.5698 17.1073 92.6464 16.9589C92.7278 16.8057 92.7685 16.6285 92.7685 16.4274V15.8455L92.3088 15.8671C92.0359 15.8767 91.8204 15.9174 91.6624 15.9892C91.5091 16.061 91.399 16.1616 91.332 16.2909C91.2649 16.4154 91.2314 16.571 91.2314 16.7578C91.2314 16.9062 91.253 17.0307 91.2961 17.1313C91.3392 17.2271 91.4038 17.3013 91.49 17.354C91.5762 17.4018 91.6839 17.4258 91.8132 17.4258Z" fill="black"/>
<path d="M88.6733 17.8711C88.3573 17.8711 88.0748 17.8041 87.8258 17.67C87.5815 17.5359 87.3876 17.3252 87.2439 17.0379C87.1051 16.7458 87.0356 16.3651 87.0356 15.8958C87.0356 15.3835 87.1051 14.9812 87.2439 14.6891C87.3876 14.3922 87.5791 14.1839 87.8186 14.0642C88.0628 13.9397 88.3357 13.8774 88.6374 13.8774C88.8385 13.8774 89.0349 13.9038 89.2264 13.9565C89.418 14.0091 89.576 14.0905 89.7005 14.2007C89.825 14.306 89.8872 14.4425 89.8872 14.6101C89.8872 14.7202 89.8633 14.8088 89.8154 14.8759C89.7675 14.9429 89.6957 14.9908 89.5999 15.0195C89.5089 15.0483 89.3916 15.0626 89.248 15.0626C89.248 14.9094 89.2288 14.7705 89.1905 14.646C89.157 14.5215 89.0971 14.4233 89.0109 14.3515C88.9247 14.2749 88.8002 14.2366 88.6374 14.2366C88.4555 14.2366 88.295 14.2845 88.1562 14.3802C88.0221 14.476 87.9167 14.6436 87.8401 14.883C87.7683 15.1225 87.7324 15.4577 87.7324 15.8886C87.7324 16.2286 87.7683 16.5112 87.8401 16.7362C87.9167 16.9613 88.0341 17.1289 88.1921 17.239C88.3501 17.3492 88.5584 17.4042 88.817 17.4042C88.9654 17.4042 89.1019 17.3827 89.2264 17.3396C89.3509 17.2965 89.4587 17.2366 89.5496 17.16C89.6454 17.0834 89.7196 16.9972 89.7723 16.9014C89.8106 16.9302 89.8394 16.9685 89.8585 17.0164C89.8825 17.0595 89.8944 17.1145 89.8944 17.1816C89.8944 17.2917 89.8489 17.3994 89.758 17.5048C89.667 17.6101 89.5305 17.6987 89.3485 17.7706C89.1714 17.8376 88.9463 17.8711 88.6733 17.8711Z" fill="black"/>
<path d="M84.5049 17.7993V17.4976H84.5983C84.7036 17.4976 84.7994 17.4881 84.8856 17.4689C84.9766 17.445 85.0484 17.3995 85.1011 17.3324C85.1585 17.2606 85.1872 17.1553 85.1872 17.0164V14.7394C85.1872 14.5958 85.1585 14.4904 85.1011 14.4234C85.0484 14.3515 84.9766 14.306 84.8856 14.2869C84.7994 14.2629 84.7036 14.251 84.5983 14.251H84.5767V13.9493H85.8624V16.9805C85.8624 17.1289 85.8888 17.2414 85.9415 17.3181C85.9941 17.3899 86.066 17.4378 86.1569 17.4617C86.2479 17.4857 86.3461 17.4976 86.4514 17.4976H86.5448V17.7993H84.5049ZM85.4961 13.231C85.3812 13.231 85.283 13.1975 85.2016 13.1304C85.125 13.0634 85.0867 12.9485 85.0867 12.7857C85.0867 12.6181 85.125 12.5031 85.2016 12.4409C85.283 12.3739 85.3812 12.3403 85.4961 12.3403C85.6063 12.3403 85.702 12.3739 85.7834 12.4409C85.8648 12.5031 85.9055 12.6181 85.9055 12.7857C85.9055 12.9485 85.8648 13.0634 85.7834 13.1304C85.702 13.1975 85.6063 13.231 85.4961 13.231Z" fill="black"/>
<path d="M82.2095 17.7993V17.4976H82.3028C82.413 17.4976 82.5112 17.4857 82.5973 17.4617C82.6883 17.4378 82.7602 17.3899 82.8128 17.3181C82.8655 17.2414 82.8918 17.1289 82.8918 16.9805V13.1304C82.8918 12.9868 82.8631 12.8814 82.8056 12.8144C82.753 12.7426 82.6811 12.6971 82.5902 12.6779C82.504 12.654 82.4082 12.642 82.3028 12.642H82.2095V12.3403H83.567V16.9805C83.567 17.1289 83.5934 17.2414 83.646 17.3181C83.6987 17.3899 83.7705 17.4378 83.8615 17.4617C83.9525 17.4857 84.0507 17.4976 84.156 17.4976H84.2494V17.7993H82.2095Z" fill="black"/>
<path d="M80.2536 17.8711C79.9759 17.8711 79.7484 17.8137 79.5713 17.6988C79.3989 17.579 79.26 17.4258 79.1547 17.2391H79.1116L78.9823 17.7993H77.833V17.4976H77.8905C78.0006 17.4976 78.0988 17.4857 78.185 17.4617C78.276 17.4378 78.3478 17.3899 78.4005 17.3181C78.4531 17.2414 78.4795 17.1289 78.4795 16.9805V13.1304C78.4795 12.9868 78.4507 12.8814 78.3933 12.8144C78.3406 12.7426 78.2688 12.6971 78.1778 12.6779C78.0916 12.654 77.9958 12.642 77.8905 12.642H77.833V12.3403H79.1547V13.662C79.1547 13.7434 79.1523 13.8487 79.1475 13.978C79.1475 14.1025 79.1451 14.2246 79.1403 14.3444C79.1355 14.4593 79.1307 14.5431 79.1259 14.5958H79.1547C79.2648 14.3755 79.4061 14.2007 79.5785 14.0714C79.7508 13.9421 79.9759 13.8775 80.2536 13.8775C80.7277 13.8775 81.0892 14.0379 81.3383 14.3587C81.592 14.6748 81.7189 15.1776 81.7189 15.8671C81.7189 16.3268 81.6615 16.7051 81.5466 17.002C81.4364 17.2989 81.2712 17.5192 81.0509 17.6628C80.8355 17.8017 80.5697 17.8711 80.2536 17.8711ZM80.1387 17.4114C80.3494 17.4114 80.5194 17.3516 80.6487 17.2319C80.778 17.1122 80.8714 16.9374 80.9288 16.7075C80.9911 16.4777 81.0222 16.1951 81.0222 15.8599C81.0222 15.52 80.9911 15.2374 80.9288 15.0124C80.8714 14.7873 80.778 14.6197 80.6487 14.5096C80.5194 14.3946 80.347 14.3372 80.1315 14.3372C79.758 14.3372 79.5018 14.4641 79.363 14.7179C79.2241 14.9669 79.1547 15.35 79.1547 15.8671C79.1547 16.1975 79.1834 16.4777 79.2409 16.7075C79.3031 16.9374 79.4061 17.1122 79.5497 17.2319C79.6934 17.3516 79.8897 17.4114 80.1387 17.4114Z" fill="black"/>
<path d="M75.1053 17.8711C74.727 17.8711 74.4349 17.7609 74.229 17.5407C74.0231 17.3156 73.9201 16.9564 73.9201 16.4632V14.7393C73.9201 14.5957 73.8914 14.4903 73.8339 14.4233C73.7812 14.3515 73.7094 14.306 73.6184 14.2868C73.5322 14.2629 73.4365 14.2509 73.3311 14.2509H73.3096V13.9492H74.5953V16.4273C74.5953 16.6332 74.6168 16.8104 74.6599 16.9588C74.7078 17.1073 74.7868 17.2198 74.897 17.2964C75.0071 17.3731 75.158 17.4114 75.3495 17.4114C75.5602 17.4114 75.7326 17.3635 75.8667 17.2677C76.0008 17.1671 76.0989 17.0307 76.1612 16.8583C76.2234 16.6811 76.2545 16.4776 76.2545 16.2477V14.7681C76.2545 14.6148 76.2282 14.5023 76.1755 14.4305C76.1229 14.3586 76.051 14.3108 75.9601 14.2868C75.8739 14.2629 75.7757 14.2509 75.6656 14.2509H75.644V13.9492H76.9297V17.0163C76.9297 17.1552 76.9561 17.2605 77.0087 17.3324C77.0662 17.3994 77.138 17.4449 77.2242 17.4688C77.3152 17.488 77.4134 17.4976 77.5187 17.4976H77.5403V17.7992H76.3982L76.3048 17.2174H76.2689C76.1971 17.3515 76.1157 17.4616 76.0247 17.5478C75.9385 17.634 75.8475 17.7011 75.7517 17.749C75.656 17.7921 75.553 17.8232 75.4429 17.8423C75.3327 17.8615 75.2202 17.8711 75.1053 17.8711Z" fill="black"/>
<path d="M68.8616 19.5232V19.2215H68.9191C69.0292 19.2215 69.1274 19.2095 69.2136 19.1856C69.3045 19.1616 69.3764 19.1114 69.429 19.0347C69.4817 18.9629 69.508 18.8528 69.508 18.7043V14.7394C69.508 14.5957 69.4793 14.4904 69.4219 14.4233C69.3692 14.3515 69.2974 14.306 69.2064 14.2869C69.1202 14.2629 69.0244 14.251 68.9191 14.251H68.8257V13.9493H70.0827L70.1545 14.5957H70.1832C70.2934 14.3755 70.4346 14.2007 70.607 14.0714C70.7794 13.9421 71.0045 13.8774 71.2822 13.8774C71.7563 13.8774 72.1178 14.0379 72.3668 14.3587C72.6206 14.6747 72.7475 15.1775 72.7475 15.8671C72.7475 16.5614 72.6206 17.069 72.3668 17.3899C72.1178 17.7107 71.7563 17.8711 71.2822 17.8711C71.0045 17.8711 70.777 17.8137 70.5999 17.6987C70.4275 17.579 70.2886 17.4258 70.1832 17.239H70.1545C70.1641 17.33 70.1689 17.4282 70.1689 17.5335C70.1737 17.6341 70.1761 17.7299 70.1761 17.8208C70.1808 17.9118 70.1832 17.9884 70.1832 18.0507V18.7402C70.1832 18.8791 70.2096 18.9821 70.2623 19.0491C70.3197 19.1209 70.3915 19.1664 70.4777 19.1856C70.5687 19.2095 70.6669 19.2215 70.7722 19.2215H70.7938V19.5232H68.8616ZM71.1673 17.4114C71.378 17.4114 71.548 17.3516 71.6773 17.2318C71.8066 17.1121 71.8999 16.9373 71.9574 16.7075C72.0197 16.4776 72.0508 16.1951 72.0508 15.8599C72.0508 15.5199 72.0197 15.2374 71.9574 15.0123C71.8999 14.7873 71.8066 14.6197 71.6773 14.5095C71.548 14.3946 71.3756 14.3371 71.1601 14.3371C70.9111 14.3371 70.7148 14.3922 70.5711 14.5024C70.4322 14.6125 70.3317 14.7825 70.2694 15.0123C70.212 15.2374 70.1832 15.5223 70.1832 15.8671C70.1832 16.1975 70.212 16.4776 70.2694 16.7075C70.3317 16.9373 70.4346 17.1121 70.5783 17.2318C70.722 17.3516 70.9183 17.4114 71.1673 17.4114Z" fill="black"/>
<path d="M65.0839 17.8711C64.562 17.8711 64.1525 17.6987 63.8556 17.354C63.5635 17.0092 63.4175 16.5255 63.4175 15.903C63.4175 15.2326 63.5564 14.7274 63.8341 14.3874C64.1118 14.0474 64.5045 13.8774 65.0121 13.8774C65.4766 13.8774 65.8405 14.0211 66.1039 14.3084C66.372 14.5957 66.5061 15.0243 66.5061 15.5941V15.9246H64.1142C64.1238 16.2741 64.1693 16.559 64.2507 16.7793C64.3321 16.9996 64.4494 17.1624 64.6027 17.2678C64.7607 17.3683 64.9546 17.4186 65.1845 17.4186C65.3521 17.4186 65.5005 17.3947 65.6298 17.3468C65.7639 17.2989 65.8788 17.2366 65.9746 17.16C66.0751 17.0834 66.1542 17.002 66.2116 16.9158C66.2451 16.9302 66.2763 16.9589 66.305 17.002C66.3337 17.0451 66.3481 17.0978 66.3481 17.16C66.3481 17.2558 66.3026 17.3587 66.2116 17.4689C66.1206 17.579 65.9818 17.6748 65.795 17.7562C65.6083 17.8328 65.3712 17.8711 65.0839 17.8711ZM65.7807 15.5367C65.7807 15.2829 65.7543 15.0602 65.7016 14.8687C65.6538 14.6771 65.5723 14.5287 65.4574 14.4233C65.3425 14.318 65.1893 14.2653 64.9977 14.2653C64.8205 14.2653 64.6697 14.3156 64.5452 14.4162C64.4255 14.5119 64.3297 14.6532 64.2579 14.8399C64.1908 15.0267 64.1477 15.2589 64.1286 15.5367H65.7807Z" fill="black"/>
<path d="M56.4336 17.7993V17.4976H56.527C56.6371 17.4976 56.7329 17.4856 56.8143 17.4617C56.8957 17.4378 56.9603 17.3899 57.0082 17.318C57.0561 17.2414 57.0801 17.1289 57.0801 16.9804V14.7394C57.0801 14.5957 57.0561 14.4904 57.0082 14.4233C56.9603 14.3515 56.8933 14.306 56.8071 14.2869C56.7257 14.2629 56.6323 14.251 56.527 14.251H56.5054V13.9493H57.6331L57.7265 14.5311H57.7624C57.8582 14.3491 57.9612 14.2126 58.0713 14.1217C58.1814 14.0259 58.3011 13.9612 58.4304 13.9277C58.5597 13.8942 58.6986 13.8774 58.847 13.8774C59.0003 13.8774 59.1439 13.899 59.278 13.9421C59.4169 13.9852 59.539 14.0546 59.6443 14.1504C59.7497 14.2414 59.8311 14.3683 59.8886 14.5311H59.946C60.0418 14.3491 60.1471 14.2126 60.2621 14.1217C60.3818 14.0259 60.5087 13.9612 60.6428 13.9277C60.7816 13.8942 60.9253 13.8774 61.0737 13.8774C61.4425 13.8774 61.7298 13.99 61.9357 14.215C62.1416 14.4353 62.2445 14.7921 62.2445 15.2853V16.9804C62.2445 17.1289 62.2685 17.2414 62.3164 17.318C62.3643 17.3899 62.4289 17.4378 62.5103 17.4617C62.5965 17.4856 62.6923 17.4976 62.7976 17.4976H62.8192V17.7993H61.5694V15.3212C61.5694 15.0099 61.5119 14.7681 61.397 14.5957C61.2868 14.4233 61.0929 14.3371 60.8151 14.3371C60.6188 14.3371 60.4608 14.3874 60.3411 14.488C60.2262 14.5838 60.1424 14.713 60.0897 14.8759C60.0418 15.0387 60.0178 15.2159 60.0178 15.4074V16.9804C60.0178 17.1289 60.0418 17.2414 60.0897 17.318C60.1376 17.3899 60.2022 17.4378 60.2836 17.4617C60.3698 17.4856 60.4656 17.4976 60.5709 17.4976H60.5925V17.7993H59.3427V15.3212C59.3427 15.0099 59.2852 14.7681 59.1703 14.5957C59.0601 14.4233 58.8662 14.3371 58.5885 14.3371C58.3825 14.3371 58.2173 14.3922 58.0928 14.5024C57.9731 14.6077 57.8869 14.749 57.8343 14.9261C57.7816 15.1033 57.7552 15.2949 57.7552 15.5008V17.0164C57.7552 17.1552 57.7816 17.2606 57.8343 17.3324C57.8917 17.3994 57.9635 17.4449 58.0497 17.4689C58.1407 17.488 58.2389 17.4976 58.3442 17.4976H58.3658V17.7993H56.4336Z" fill="black"/>
<path d="M54.4501 17.8711C53.9282 17.8711 53.5187 17.6987 53.2218 17.354C52.9297 17.0092 52.7837 16.5255 52.7837 15.903C52.7837 15.2326 52.9226 14.7274 53.2003 14.3874C53.478 14.0474 53.8707 13.8774 54.3783 13.8774C54.8428 13.8774 55.2067 14.0211 55.4701 14.3084C55.7382 14.5957 55.8723 15.0243 55.8723 15.5941V15.9246H53.4804C53.49 16.2741 53.5355 16.559 53.6169 16.7793C53.6983 16.9996 53.8156 17.1624 53.9689 17.2678C54.1269 17.3683 54.3208 17.4186 54.5507 17.4186C54.7183 17.4186 54.8667 17.3947 54.996 17.3468C55.1301 17.2989 55.245 17.2366 55.3408 17.16C55.4414 17.0834 55.5204 17.002 55.5778 16.9158C55.6114 16.9302 55.6425 16.9589 55.6712 17.002C55.6999 17.0451 55.7143 17.0978 55.7143 17.16C55.7143 17.2558 55.6688 17.3587 55.5778 17.4689C55.4869 17.579 55.348 17.6748 55.1612 17.7562C54.9745 17.8328 54.7374 17.8711 54.4501 17.8711ZM55.1469 15.5367C55.1469 15.2829 55.1205 15.0602 55.0678 14.8687C55.02 14.6771 54.9386 14.5287 54.8236 14.4233C54.7087 14.318 54.5555 14.2653 54.3639 14.2653C54.1867 14.2653 54.0359 14.3156 53.9114 14.4162C53.7917 14.5119 53.6959 14.6532 53.6241 14.8399C53.557 15.0267 53.514 15.2589 53.4948 15.5367H55.1469Z" fill="black"/>
<path d="M45.9204 17.8V17.4983H46.0138C46.1191 17.4983 46.2149 17.4887 46.3011 17.4695C46.3921 17.4456 46.4639 17.4001 46.5166 17.3331C46.5741 17.2612 46.6028 17.1559 46.6028 17.017V13.4615C46.6028 13.3178 46.5741 13.2125 46.5166 13.1455C46.4639 13.0736 46.3921 13.0281 46.3011 13.009C46.2149 12.985 46.1191 12.9731 46.0138 12.9731H45.9204V12.6714H47.5581L49.045 16.78L50.5174 12.6714H52.112V12.9731H52.0187C51.9133 12.9731 51.8152 12.985 51.7242 13.009C51.6332 13.0329 51.5614 13.0808 51.5087 13.1526C51.456 13.2245 51.4297 13.337 51.4297 13.4902V16.9811C51.4297 17.1296 51.456 17.2421 51.5087 17.3187C51.5614 17.3905 51.6332 17.4384 51.7242 17.4624C51.8152 17.4863 51.9133 17.4983 52.0187 17.4983H52.112V17.8H50.2014V17.4983H50.223C50.3283 17.4983 50.4169 17.4887 50.4887 17.4695C50.5653 17.4456 50.6252 17.4025 50.6683 17.3403C50.7114 17.2732 50.7353 17.1751 50.7401 17.0458V13.2101L49.0952 17.8H48.7074L47.0409 13.2245V16.9811C47.0409 17.1296 47.0601 17.2421 47.0984 17.3187C47.1415 17.3905 47.2014 17.4384 47.278 17.4624C47.3594 17.4863 47.4528 17.4983 47.5581 17.4983H47.5797V17.8H45.9204Z" fill="black"/>
<path d="M40.6377 17.7993V17.4976H40.6592C40.7694 17.4976 40.8675 17.4856 40.9537 17.4617C41.0447 17.4378 41.1166 17.3899 41.1692 17.318C41.2219 17.2414 41.2482 17.1289 41.2482 16.9804V14.7394C41.2482 14.5957 41.2195 14.4904 41.162 14.4233C41.1094 14.3515 41.0375 14.306 40.9466 14.2869C40.8604 14.2629 40.7646 14.251 40.6592 14.251H40.6377V13.9493H41.7439L41.8803 14.6604H41.9162C41.9785 14.5167 42.0455 14.385 42.1174 14.2653C42.1892 14.1456 42.285 14.0522 42.4047 13.9852C42.5244 13.9134 42.6896 13.8774 42.9003 13.8774C43.1637 13.8774 43.3576 13.9229 43.4821 14.0139C43.6114 14.1049 43.6761 14.2342 43.6761 14.4018C43.6761 14.5502 43.6234 14.6723 43.518 14.7681C43.4175 14.8639 43.2475 14.9118 43.008 14.9118C43.008 14.7777 42.9961 14.67 42.9721 14.5885C42.9482 14.5071 42.9075 14.4473 42.85 14.409C42.7973 14.3707 42.7231 14.3515 42.6274 14.3515C42.4933 14.3515 42.3807 14.4042 42.2898 14.5095C42.1988 14.6149 42.1269 14.749 42.0743 14.9118C42.0216 15.0746 41.9833 15.2446 41.9593 15.4218C41.9354 15.5941 41.9234 15.7498 41.9234 15.8886V17.0164C41.9234 17.1552 41.9498 17.2606 42.0024 17.3324C42.0599 17.3994 42.1317 17.4449 42.2179 17.4689C42.3089 17.488 42.4071 17.4976 42.5124 17.4976H42.7135V17.7993H40.6377Z" fill="black"/>
<path d="M37.8021 17.8711C37.4238 17.8711 37.1317 17.7609 36.9258 17.5407C36.7198 17.3156 36.6169 16.9564 36.6169 16.4632V14.7393C36.6169 14.5957 36.5882 14.4903 36.5307 14.4233C36.478 14.3515 36.4062 14.306 36.3152 14.2868C36.229 14.2629 36.1332 14.2509 36.0279 14.2509H36.0063V13.9492H37.2921V16.4273C37.2921 16.6332 37.3136 16.8104 37.3567 16.9588C37.4046 17.1073 37.4836 17.2198 37.5938 17.2964C37.7039 17.3731 37.8547 17.4114 38.0463 17.4114C38.257 17.4114 38.4294 17.3635 38.5635 17.2677C38.6975 17.1671 38.7957 17.0307 38.8579 16.8583C38.9202 16.6811 38.9513 16.4776 38.9513 16.2477V14.7681C38.9513 14.6148 38.925 14.5023 38.8723 14.4305C38.8196 14.3586 38.7478 14.3108 38.6568 14.2868C38.5706 14.2629 38.4725 14.2509 38.3623 14.2509H38.3408V13.9492H39.6265V17.0163C39.6265 17.1552 39.6529 17.2605 39.7055 17.3324C39.763 17.3994 39.8348 17.4449 39.921 17.4688C40.012 17.488 40.1102 17.4976 40.2155 17.4976H40.2371V17.7992H39.095L39.0016 17.2174H38.9657C38.8939 17.3515 38.8125 17.4616 38.7215 17.5478C38.6353 17.634 38.5443 17.7011 38.4485 17.749C38.3528 17.7921 38.2498 17.8232 38.1397 17.8423C38.0295 17.8615 37.917 17.8711 37.8021 17.8711Z" fill="black"/>
<path d="M33.7572 17.8711C33.2401 17.8711 32.8331 17.7059 32.5362 17.3755C32.2393 17.0451 32.0908 16.5423 32.0908 15.8671C32.0908 15.1967 32.2321 14.6987 32.5146 14.3731C32.8019 14.0426 33.2233 13.8774 33.7788 13.8774C34.296 13.8774 34.703 14.0426 34.9999 14.3731C35.2968 14.6987 35.4452 15.1967 35.4452 15.8671C35.4452 16.5423 35.3016 17.0451 35.0143 17.3755C34.7317 17.7059 34.3127 17.8711 33.7572 17.8711ZM33.7716 17.4976C34.011 17.4976 34.2026 17.4378 34.3462 17.318C34.4899 17.1935 34.5929 17.0092 34.6551 16.765C34.7174 16.5207 34.7485 16.2215 34.7485 15.8671C34.7485 15.508 34.715 15.2111 34.6479 14.9764C34.5857 14.737 34.4827 14.5574 34.3391 14.4377C34.1954 14.318 34.0039 14.2581 33.7644 14.2581C33.525 14.2581 33.3335 14.318 33.1898 14.4377C33.0461 14.5574 32.9432 14.737 32.8809 14.9764C32.8187 15.2111 32.7876 15.508 32.7876 15.8671C32.7876 16.2215 32.8187 16.5207 32.8809 16.765C32.948 17.0092 33.0533 17.1935 33.197 17.318C33.3406 17.4378 33.5322 17.4976 33.7716 17.4976Z" fill="black"/>
<path d="M28.8533 17.8V17.4983H29.0185C29.1238 17.4983 29.2196 17.4887 29.3058 17.4695C29.3968 17.4456 29.4686 17.4001 29.5213 17.3331C29.5788 17.2612 29.6075 17.1559 29.6075 17.017V15.6595L28.2787 13.3538C28.226 13.2628 28.1757 13.1909 28.1278 13.1383C28.0847 13.0808 28.0344 13.0401 27.977 13.0162C27.9195 12.9874 27.8501 12.9731 27.7687 12.9731H27.6753V12.6714H29.6506V12.9731H29.3848C29.2555 12.9731 29.1693 12.997 29.1262 13.0449C29.0879 13.088 29.0688 13.1407 29.0688 13.2029C29.0688 13.27 29.0831 13.337 29.1119 13.404C29.1406 13.4711 29.1693 13.5309 29.1981 13.5836L29.7296 14.5461C29.7727 14.6179 29.811 14.6922 29.8445 14.7688C29.878 14.8406 29.9092 14.9124 29.9379 14.9843C29.9714 15.0513 30.0001 15.1184 30.0241 15.1854C30.048 15.2476 30.0696 15.3075 30.0887 15.365C30.1318 15.2644 30.1941 15.1399 30.2755 14.9915C30.3569 14.843 30.4383 14.6946 30.5197 14.5461L30.9794 13.7201C31.0273 13.6387 31.0608 13.5621 31.08 13.4902C31.0991 13.4136 31.1087 13.3466 31.1087 13.2891C31.1087 13.1838 31.0704 13.1048 30.9938 13.0521C30.922 12.9994 30.8166 12.9731 30.6777 12.9731H30.4694V12.6714H32.2221V12.9731H32.1359C32.0688 12.9731 32.0042 12.9898 31.9419 13.0233C31.8845 13.0569 31.8222 13.1143 31.7552 13.1957C31.6929 13.2771 31.6211 13.3897 31.5397 13.5333L30.333 15.6595V16.9811C30.333 17.1296 30.3593 17.2421 30.412 17.3187C30.4646 17.3905 30.5365 17.4384 30.6275 17.4624C30.7184 17.4863 30.8166 17.4983 30.922 17.4983H31.0872V17.8H28.8533Z" fill="black"/>
<path d="M20.1902 14.6316C20.1567 14.531 20.116 14.4544 20.0681 14.4017C20.025 14.3443 19.9723 14.306 19.9101 14.2868C19.8526 14.2629 19.776 14.2509 19.6802 14.2509H19.6587V13.9492H21.4329V14.2509H21.3395C21.1958 14.2509 21.0881 14.2724 21.0163 14.3155C20.9444 14.3539 20.9085 14.4329 20.9085 14.5526C20.9085 14.5909 20.9133 14.6388 20.9229 14.6962C20.9372 14.7537 20.9516 14.8088 20.966 14.8614L21.3036 16.0682C21.3371 16.1831 21.3682 16.3124 21.3969 16.456C21.4305 16.5949 21.4616 16.729 21.4903 16.8583C21.5191 16.9828 21.5406 17.0857 21.555 17.1671H21.5765C21.5909 17.0857 21.6124 16.9876 21.6412 16.8726C21.6747 16.7577 21.7106 16.6356 21.7489 16.5063C21.792 16.377 21.8327 16.2549 21.871 16.14L22.618 13.9708H23.0706L23.7888 16.0969C23.8176 16.1831 23.8463 16.2765 23.875 16.377C23.9086 16.4728 23.9397 16.571 23.9684 16.6715C23.9971 16.7721 24.0235 16.8655 24.0474 16.9517C24.0714 17.0379 24.0881 17.1097 24.0977 17.1671H24.1193C24.1336 17.0857 24.1528 16.9948 24.1767 16.8942C24.2055 16.7888 24.2366 16.6715 24.2701 16.5422C24.3084 16.4129 24.3515 16.2717 24.3994 16.1184L24.7585 14.962C24.7777 14.8998 24.7921 14.8351 24.8016 14.7681C24.816 14.6962 24.8232 14.6412 24.8232 14.6029C24.8232 14.4784 24.7825 14.3898 24.7011 14.3371C24.6245 14.2796 24.5071 14.2509 24.3491 14.2509H24.2988V13.9492H25.836V14.2509H25.7426C25.6516 14.2509 25.575 14.2653 25.5127 14.294C25.4505 14.3179 25.3954 14.3706 25.3475 14.452C25.2996 14.5334 25.2518 14.6531 25.2039 14.8112L24.2773 17.7992H23.7027L22.7186 14.7968L21.6986 17.7992H21.1312L20.1902 14.6316Z" fill="black"/>
<path d="M17.5673 17.8711C17.0501 17.8711 16.6431 17.7059 16.3462 17.3755C16.0493 17.0451 15.9009 16.5423 15.9009 15.8671C15.9009 15.1967 16.0421 14.6987 16.3247 14.3731C16.612 14.0426 17.0334 13.8774 17.5889 13.8774C18.106 13.8774 18.5131 14.0426 18.8099 14.3731C19.1068 14.6987 19.2553 15.1967 19.2553 15.8671C19.2553 16.5423 19.1116 17.0451 18.8243 17.3755C18.5418 17.7059 18.1228 17.8711 17.5673 17.8711ZM17.5817 17.4976C17.8211 17.4976 18.0126 17.4378 18.1563 17.318C18.3 17.1935 18.4029 17.0092 18.4652 16.765C18.5274 16.5207 18.5585 16.2215 18.5585 15.8671C18.5585 15.508 18.525 15.2111 18.458 14.9764C18.3957 14.737 18.2928 14.5574 18.1491 14.4377C18.0055 14.318 17.8139 14.2581 17.5745 14.2581C17.3351 14.2581 17.1435 14.318 16.9999 14.4377C16.8562 14.5574 16.7532 14.737 16.691 14.9764C16.6287 15.2111 16.5976 15.508 16.5976 15.8671C16.5976 16.2215 16.6287 16.5207 16.691 16.765C16.758 17.0092 16.8634 17.1935 17.007 17.318C17.1507 17.4378 17.3422 17.4976 17.5817 17.4976Z" fill="black"/>
<path d="M11.0776 17.7993V17.4976H11.1351C11.2452 17.4976 11.3434 17.4856 11.4296 17.4617C11.5206 17.4378 11.5924 17.3899 11.6451 17.318C11.6978 17.2414 11.7241 17.1289 11.7241 16.9804V14.7394C11.7241 14.5957 11.6978 14.4904 11.6451 14.4233C11.5924 14.3515 11.523 14.306 11.4368 14.2869C11.3506 14.2629 11.2548 14.251 11.1495 14.251H11.1136V13.9493H12.2772L12.3706 14.5311H12.4065C12.507 14.3491 12.6124 14.2126 12.7225 14.1217C12.8374 14.0259 12.9619 13.9612 13.096 13.9277C13.2301 13.8942 13.3738 13.8774 13.527 13.8774C13.9053 13.8774 14.1998 13.99 14.4105 14.215C14.626 14.4353 14.7337 14.7921 14.7337 15.2853V16.9804C14.7337 17.1289 14.7553 17.2414 14.7984 17.318C14.8463 17.3899 14.9109 17.4378 14.9923 17.4617C15.0737 17.4856 15.1671 17.4976 15.2724 17.4976H15.3084V17.7993H14.0585V15.3212C14.0585 15.0099 13.9987 14.7681 13.879 14.5957C13.764 14.4233 13.5605 14.3371 13.2684 14.3371C13.0529 14.3371 12.8805 14.3922 12.7512 14.5024C12.6267 14.6077 12.5358 14.749 12.4783 14.9261C12.4256 15.1033 12.3993 15.2949 12.3993 15.5008V17.0164C12.3993 17.1552 12.4256 17.2606 12.4783 17.3324C12.531 17.3994 12.6004 17.4449 12.6866 17.4689C12.7728 17.488 12.8686 17.4976 12.9739 17.4976H13.0098V17.7993H11.0776Z" fill="black"/>
<path d="M6.12012 17.8V17.4983H6.21349C6.31884 17.4983 6.41462 17.4887 6.50081 17.4695C6.59179 17.4456 6.66362 17.4001 6.7163 17.3331C6.77376 17.2612 6.80249 17.1559 6.80249 17.017V13.4615C6.80249 13.3178 6.77376 13.2125 6.7163 13.1455C6.66362 13.0736 6.59179 13.0281 6.50081 13.009C6.41462 12.985 6.31884 12.9731 6.21349 12.9731H6.12012V12.6714H8.21033V12.9731H8.11696C8.01161 12.9731 7.91344 12.985 7.82246 13.009C7.73148 13.0329 7.65965 13.0808 7.60697 13.1526C7.5543 13.2245 7.52796 13.337 7.52796 13.4902V15.5158L9.01482 13.8135C9.12017 13.6937 9.19918 13.5908 9.25185 13.5046C9.30931 13.4184 9.35002 13.3442 9.37396 13.2819C9.3979 13.2197 9.40987 13.167 9.40987 13.1239C9.40987 13.0808 9.39551 13.0497 9.36678 13.0305C9.34283 13.0066 9.30453 12.9898 9.25185 12.9803C9.20397 12.9707 9.13932 12.9659 9.05791 12.9659V12.6714H10.6453V12.9659C10.5352 12.9659 10.4298 12.9946 10.3293 13.0521C10.2335 13.1048 10.133 13.1814 10.0276 13.2819C9.92225 13.3825 9.80733 13.5022 9.68282 13.6411L8.64131 14.8119L10.1569 16.9236C10.2239 17.0146 10.291 17.096 10.358 17.1679C10.4251 17.2397 10.4897 17.3019 10.552 17.3546C10.619 17.4025 10.6836 17.4384 10.7459 17.4624C10.8129 17.4863 10.88 17.4983 10.947 17.4983H10.9614V17.8H10.8824C10.6429 17.8 10.4442 17.7904 10.2862 17.7712C10.133 17.7521 10.0037 17.7186 9.89831 17.6707C9.79775 17.6228 9.70677 17.5581 9.62536 17.4767C9.54874 17.3905 9.46494 17.2828 9.37396 17.1535L8.13851 15.3793L7.52796 15.9827V16.9811C7.52796 17.1296 7.5543 17.2421 7.60697 17.3187C7.65965 17.3905 7.73148 17.4384 7.82246 17.4624C7.91344 17.4863 8.01161 17.4983 8.11696 17.4983H8.21033V17.8H6.12012Z" fill="black"/>
<path d="M1.40631 17.8711C1.19562 17.8711 1.00407 17.8304 0.831684 17.749C0.664084 17.6628 0.532398 17.5359 0.436626 17.3683C0.340855 17.1959 0.292969 16.9804 0.292969 16.7219C0.292969 16.3388 0.427049 16.0562 0.69521 15.8743C0.968159 15.6923 1.37998 15.5918 1.93066 15.5726L2.52684 15.5511V15.1201C2.52684 14.9477 2.51248 14.7968 2.48375 14.6676C2.45501 14.5335 2.39276 14.4281 2.29699 14.3515C2.20122 14.2749 2.05517 14.2366 1.85884 14.2366C1.67687 14.2366 1.538 14.2701 1.44223 14.3371C1.34646 14.4042 1.28181 14.4976 1.24829 14.6173C1.21956 14.7322 1.20519 14.8663 1.20519 15.0195C1.00407 15.0195 0.850839 14.986 0.74549 14.919C0.64493 14.8471 0.59465 14.7298 0.59465 14.567C0.59465 14.3994 0.652113 14.2653 0.767039 14.1648C0.886753 14.0642 1.04478 13.9924 1.24111 13.9493C1.43744 13.9014 1.65293 13.8774 1.88757 13.8774C2.32812 13.8774 2.65614 13.9708 2.87162 14.1576C3.0919 14.3443 3.20203 14.6652 3.20203 15.1201V16.9804C3.20203 17.1145 3.2164 17.2199 3.24513 17.2965C3.27386 17.3683 3.32175 17.421 3.38879 17.4545C3.45583 17.4832 3.54202 17.4976 3.64737 17.4976H3.66892V17.7993H2.69923L2.58431 17.1816H2.52684C2.42628 17.3156 2.32812 17.4354 2.23235 17.5407C2.13657 17.6413 2.02404 17.7227 1.89475 17.7849C1.77025 17.8424 1.60744 17.8711 1.40631 17.8711ZM1.57152 17.4258C1.76785 17.4258 1.93545 17.3851 2.07432 17.3037C2.21798 17.2223 2.32812 17.1073 2.40473 16.9589C2.48614 16.8057 2.52684 16.6285 2.52684 16.4274V15.8455L2.06714 15.8671C1.79419 15.8767 1.5787 15.9174 1.42068 15.9892C1.26745 16.061 1.15731 16.1616 1.09027 16.2909C1.02323 16.4154 0.989708 16.571 0.989708 16.7578C0.989708 16.9062 1.01126 17.0307 1.05435 17.1313C1.09745 17.2271 1.1621 17.3013 1.24829 17.354C1.33449 17.4018 1.44223 17.4258 1.57152 17.4258Z" fill="black"/>
</svg>
