<svg width="37" height="37" viewBox="0 0 37 37" fill="none" xmlns="http://www.w3.org/2000/svg">
<path d="M18.5597 0.586426H18.4768C8.44729 0.586426 0.316772 8.71934 0.316772 18.7518V18.8347C0.316772 28.8672 8.44729 37.0001 18.4768 37.0001H18.5597C28.5892 37.0001 36.7197 28.8672 36.7197 18.8347V18.7518C36.7197 8.71934 28.5892 0.586426 18.5597 0.586426Z" fill="#12143C"/>
<path d="M24.2136 15.4602C24.211 15.7038 24.1855 15.9475 24.1626 16.1912C24.1549 16.2715 24.1524 16.3532 24.1511 16.4336C24.1485 16.5726 24.2595 16.6989 24.3985 16.69C24.4648 16.6862 24.5324 16.6683 24.5962 16.6466C24.8092 16.5713 25.0196 16.491 25.2313 16.4106C25.4226 16.3366 25.6178 16.2703 25.8154 16.2167C26.031 16.158 26.2465 16.1146 26.4659 16.1503C26.9123 16.2231 27.203 16.704 27.0398 17.1263C26.9939 17.2449 26.9237 17.347 26.8396 17.4414C26.7235 17.5703 26.5921 17.68 26.4493 17.7769C26.281 17.8905 26.1113 18.0015 25.9417 18.1137C25.6586 18.3 25.3754 18.485 25.0936 18.6738C24.9762 18.7516 24.8627 18.8345 24.7518 18.92C24.6906 18.9672 24.6332 19.0221 24.5809 19.0795C24.4814 19.1904 24.4266 19.3321 24.4355 19.48C24.4444 19.637 24.4712 19.7901 24.5146 19.9406C24.6485 20.4101 24.8538 20.8464 25.1025 21.2635C25.7695 22.3773 26.7146 23.2473 27.8395 23.9579C28.1481 24.1531 28.4784 24.31 28.8036 24.4784C28.8495 24.5027 28.8942 24.5269 28.9388 24.5537C28.9835 24.5805 29.023 24.6162 29.0523 24.6596C29.0983 24.7246 29.1046 24.7935 29.0651 24.865C29.0319 24.9262 28.9835 24.9734 28.9312 25.0168C28.8725 25.0653 28.8087 25.1061 28.7424 25.1431C28.3624 25.3587 27.9542 25.5194 27.5321 25.6317C27.328 25.6866 27.124 25.744 26.9212 25.8039C26.7962 25.8409 26.6789 25.8958 26.5628 25.9557C26.3677 26.0565 26.2567 26.2185 26.2159 26.429C26.193 26.5464 26.1789 26.6663 26.1572 26.7837C26.1037 27.0809 25.9965 27.1894 25.7058 27.2404C25.6037 27.2583 25.4991 27.2685 25.3958 27.2749C25.1357 27.2889 24.8755 27.2965 24.6153 27.3106C24.6077 27.3106 24.6 27.3106 24.5936 27.3119C23.5542 27.3731 22.5492 27.7061 21.6577 28.2444C21.6105 28.2725 21.5634 28.3018 21.5149 28.3299C21.154 28.5481 20.7867 28.756 20.3926 28.9091C19.9526 29.08 19.4985 29.1821 19.0279 29.2242C18.6313 29.2599 18.2359 29.2548 17.8418 29.2102C17.2513 29.1438 16.6914 28.9716 16.1621 28.7012C15.916 28.5749 15.6788 28.4345 15.4441 28.2904C15.4314 28.2827 15.4186 28.275 15.4046 28.2661C14.4685 27.6959 13.4035 27.3501 12.308 27.3055C12.3003 27.3055 12.2927 27.3055 12.285 27.3055C12.0555 27.2965 11.8272 27.2876 11.5976 27.2736C11.4637 27.2659 11.3298 27.2481 11.1984 27.2123C11.0313 27.1664 10.9102 27.0197 10.8783 26.85C10.8604 26.7569 10.8464 26.6638 10.8298 26.5707C10.826 26.5502 10.826 26.5285 10.8222 26.5081C10.7839 26.2351 10.6487 26.0348 10.3924 25.9187C10.2355 25.8473 10.0748 25.7899 9.90901 25.744C9.62333 25.6649 9.33509 25.5947 9.05578 25.4939C8.80963 25.4059 8.57242 25.3013 8.34413 25.1763C8.27526 25.1393 8.20893 25.0972 8.14516 25.0538C8.1018 25.0245 8.061 24.9913 8.02529 24.9543C7.9105 24.8344 7.92198 24.6774 8.05206 24.5754C8.12731 24.5154 8.21531 24.4759 8.30076 24.4338C8.89635 24.1416 9.46136 23.7997 9.98681 23.394C10.7801 22.783 11.4522 22.0596 11.9611 21.1883C12.1422 20.877 12.2927 20.5466 12.4164 20.2072C12.498 19.9827 12.5643 19.7582 12.5809 19.5222C12.5924 19.3487 12.5337 19.1764 12.4151 19.0501C12.3297 18.9595 12.2302 18.8868 12.1294 18.8141C11.9789 18.7069 11.8272 18.6011 11.6741 18.5003C11.3451 18.2834 11.0148 18.0703 10.6857 17.8547C10.5416 17.7603 10.4026 17.6583 10.2776 17.5396C10.187 17.4529 10.1054 17.3598 10.0404 17.2513C9.90517 17.0242 9.89498 16.7908 9.99573 16.5509C10.0557 16.4081 10.1679 16.2868 10.3082 16.2218C10.5084 16.1299 10.7176 16.1185 10.928 16.1529C11.155 16.1899 11.3731 16.2601 11.5887 16.3379C11.8093 16.417 12.0261 16.5037 12.2455 16.5854C12.3475 16.6237 12.4508 16.6619 12.5592 16.6785C12.5847 16.6823 12.6103 16.69 12.6358 16.6887C12.762 16.6849 12.8666 16.6441 12.8653 16.4744C12.8653 16.3927 12.8628 16.3098 12.8589 16.2282C12.8398 15.8199 12.8156 15.4117 12.8054 15.0035C12.7824 14.0313 12.7862 13.0554 13.04 12.1113C13.1956 11.5334 13.4647 10.9963 13.8282 10.5192C14.582 9.52794 15.5768 8.89901 16.7667 8.56348C17.4171 8.37978 18.0816 8.31982 18.755 8.34023C19.3914 8.35937 20.0253 8.46653 20.6272 8.67703C21.3414 8.92707 21.9906 9.28938 22.5428 9.80351C23.1703 10.3878 23.6537 11.0703 23.9164 11.897C24.035 12.2708 24.1103 12.6535 24.1562 13.0414C24.2518 13.8438 24.2251 14.6513 24.2174 15.4576L24.2136 15.4602Z" fill="white"/>
</svg>
