<svg width="16" height="17" viewBox="0 0 16 17" fill="none" xmlns="http://www.w3.org/2000/svg">
<path d="M13.3332 5.16634V5.03301C13.3332 3.9129 13.3332 3.35285 13.1152 2.92503C12.9234 2.5487 12.6175 2.24274 12.2412 2.05099C11.8133 1.83301 11.2533 1.83301 10.1332 1.83301H5.8665C4.7464 1.83301 4.18635 1.83301 3.75852 2.05099C3.3822 2.24274 3.07624 2.5487 2.88449 2.92503C2.6665 3.35285 2.6665 3.9129 2.6665 5.03301V11.9663C2.6665 13.0864 2.6665 13.6465 2.88449 14.0743C3.07624 14.4506 3.3822 14.7566 3.75852 14.9484C4.18635 15.1663 4.7464 15.1663 5.8665 15.1663H8.33317M8.33317 7.83301H5.33317M7.6665 10.4997H5.33317M10.6665 5.16634H5.33317M11.9998 12.4997V8.83301C11.9998 8.28072 12.4476 7.83301 12.9998 7.83301C13.5521 7.83301 13.9998 8.28072 13.9998 8.83301V12.4997C13.9998 13.6042 13.1044 14.4997 11.9998 14.4997C10.8953 14.4997 9.99984 13.6042 9.99984 12.4997V9.83301" stroke="#12143C" stroke-linecap="round" stroke-linejoin="round"/>
</svg>
