<svg width="38" height="37" viewBox="0 0 38 37" fill="none" xmlns="http://www.w3.org/2000/svg">
<path d="M19.05 0.586426H18.9671C8.93765 0.586426 0.807129 8.71934 0.807129 18.7518V18.8347C0.807129 28.8672 8.93765 37.0001 18.9671 37.0001H19.05C29.0795 37.0001 37.2101 28.8672 37.2101 18.8347V18.7518C37.2101 8.71934 29.0795 0.586426 19.05 0.586426Z" fill="#12143C"/>
<path d="M27.8085 13.7599V17.198C27.2078 17.1394 26.4272 17.0029 25.5638 16.6865C24.4364 16.2731 23.5972 15.708 23.0475 15.2704V22.2194L23.0335 22.1977C23.0424 22.3355 23.0475 22.4758 23.0475 22.6174C23.0475 26.0683 20.2404 28.8775 16.7893 28.8775C13.3381 28.8775 10.531 26.0683 10.531 22.6174C10.531 19.1665 13.3381 16.3561 16.7893 16.3561C17.1272 16.3561 17.4588 16.3828 17.7828 16.4352V19.8235C17.4716 19.7125 17.1374 19.6526 16.7893 19.6526C15.1555 19.6526 13.8253 20.9819 13.8253 22.6174C13.8253 24.2529 15.1555 25.5823 16.7893 25.5823C18.423 25.5823 19.7532 24.2517 19.7532 22.6174C19.7532 22.5562 19.7519 22.495 19.7481 22.4337V8.92993H23.1827C23.1954 9.2208 23.2069 9.51423 23.2197 9.8051C23.2426 10.3779 23.4467 10.9278 23.8025 11.3781C24.2196 11.9075 24.8356 12.5224 25.7003 13.0136C26.5101 13.4716 27.2703 13.6693 27.8085 13.7625V13.7599Z" fill="white"/>
</svg>
