<svg width="37" height="37" viewBox="0 0 37 37" fill="none" xmlns="http://www.w3.org/2000/svg">
<path d="M36.6116 18.7939C36.6116 27.9895 29.7973 35.5917 20.9449 36.8253C20.1172 36.9401 19.2704 37.0001 18.4108 37.0001C17.4185 37.0001 16.4442 36.921 15.4953 36.7679C6.82914 35.3722 0.209961 27.8555 0.209961 18.7939C0.209961 8.73845 8.35958 0.586426 18.4121 0.586426C28.4645 0.586426 36.6142 8.73845 36.6142 18.7939H36.6116Z" fill="#12143C"/>
<path d="M7.59185 8.61719L15.9863 19.8438L7.53955 28.9717H9.44113L16.837 20.9804L22.8121 28.9717H29.2821L20.4157 17.1137L28.2784 8.61719H26.3768L19.5663 15.977L14.0631 8.61719H7.59311H7.59185ZM10.3874 10.018H13.3591L26.4839 27.571H23.5123L10.3874 10.018Z" fill="white"/>
</svg>
