<svg width="37" height="37" viewBox="0 0 37 37" fill="none" xmlns="http://www.w3.org/2000/svg">
<path d="M36.9139 18.7416C36.9139 8.71477 28.7879 0.586426 18.7641 0.586426C8.74021 0.586426 0.614258 8.71477 0.614258 18.7416C0.614258 28.7684 8.74021 36.8967 18.7641 36.8967C28.7879 36.8967 36.9139 28.7684 36.9139 18.7416Z" fill="#12143C"/>
<path d="M30.1928 14.9789C30.05 13.5998 29.7426 12.0753 28.6114 11.2741C27.7352 10.6528 26.5835 10.6299 25.5084 10.6311C23.2357 10.6311 20.9617 10.635 18.689 10.6363C16.503 10.6388 14.317 10.6401 12.131 10.6426C11.2179 10.6426 10.3302 10.5725 9.48207 10.9679C8.75384 11.3073 8.18375 11.9528 7.84067 12.6711C7.36496 13.67 7.26548 14.8016 7.20809 15.9064C7.10224 17.9182 7.11371 19.9352 7.23998 21.9457C7.33308 23.4129 7.56902 25.0343 8.70282 25.9695C9.70782 26.7974 11.126 26.8382 12.4295 26.8395C16.5668 26.8433 20.7054 26.8472 24.8439 26.8497C25.3745 26.851 25.928 26.8408 26.4688 26.7821C27.5324 26.6673 28.5463 26.3624 29.2299 25.574C29.9199 24.7792 30.0972 23.6731 30.2018 22.6257C30.4568 20.0844 30.4543 17.5189 30.1928 14.9789ZM16.2964 22.303V15.1779L22.4641 18.7398L16.2964 22.303Z" fill="white"/>
</svg>
